<svg width="18" height="20" viewBox="0 0 18 20" fill="none" xmlns="http://www.w3.org/2000/svg"><path fill-rule="evenodd" clip-rule="evenodd" d="M1.06667 10.9333V18.9333H3.46667V10.9333H1.06667ZM0.8 9.86667C0.358172 9.86667 0 10.2248 0 10.6667V19.2C0 19.6418 0.358172 20 0.8 20H3.73333C4.17516 20 4.53333 19.6418 4.53333 19.2V10.6667C4.53333 10.2248 4.17516 9.86667 3.73333 9.86667H0.8Z" fill="#323031"/><path fill-rule="evenodd" clip-rule="evenodd" d="M7.46669 1.06667V18.9333H9.86669V1.06667H7.46669ZM7.20002 0C6.7582 0 6.40002 0.358173 6.40002 0.8V19.2C6.40002 19.6418 6.7582 20 7.20002 20H10.1334C10.5752 20 10.9334 19.6418 10.9334 19.2V0.8C10.9334 0.358172 10.5752 0 10.1334 0H7.20002Z" fill="#323031"/><path fill-rule="evenodd" clip-rule="evenodd" d="M13.6 5.33333V18.9333H16V5.33333H13.6ZM13.3333 4.26666C12.8915 4.26666 12.5333 4.62484 12.5333 5.06666V19.2C12.5333 19.6418 12.8915 20 13.3333 20H16.2667C16.7085 20 17.0667 19.6418 17.0667 19.2V5.06666C17.0667 4.62483 16.7085 4.26666 16.2667 4.26666H13.3333Z" fill="#323031"/></svg>