<svg width="24" height="24" viewBox="0 0 24 24" fill="none" xmlns="http://www.w3.org/2000/svg">
<g clip-path="url(#clip0)">
<path d="M1.24047 24.0001C0.924327 24.0001 0.608188 23.8798 0.367994 23.6378C-0.114201 23.1556 -0.114201 22.3739 0.367994 21.8917L21.898 0.361646C22.3802 -0.120549 23.162 -0.120549 23.6442 0.361646C24.1264 0.843842 24.1264 1.6256 23.6442 2.1081L2.11445 23.6378C1.87244 23.8783 1.5563 24.0001 1.24047 24.0001Z" fill="#323031"/>
<path d="M22.772 24.0001C22.4559 24.0001 22.14 23.8798 21.8995 23.6378L0.367994 2.1081C-0.114201 1.6256 -0.114201 0.843842 0.367994 0.361646C0.85019 -0.120549 1.63195 -0.120549 2.11445 0.361646L23.6442 21.8917C24.1264 22.3739 24.1264 23.1556 23.6442 23.6378C23.4022 23.8783 23.0863 24.0001 22.772 24.0001Z" fill="#323031"/>
</g>
<defs>
<clipPath id="clip0">
<rect width="24" height="24" fill="white"/>
</clipPath>
</defs>
</svg>
