<svg width="48" height="58" viewBox="0 0 48 58" fill="none" xmlns="http://www.w3.org/2000/svg">
<path fill-rule="evenodd" clip-rule="evenodd" d="M8.89027 12.5832C7.30541 12.5832 6.00574 13.8831 6.00574 15.4722V18.0718C6.00574 19.661 7.30556 20.9565 8.89027 20.9565H11.7792C15.3374 16.9189 13.6447 13.7232 11.5763 12.5832H8.89027Z" fill="#E6000A"/>
<path fill-rule="evenodd" clip-rule="evenodd" d="M36.2418 20.9565H39.1609H39.3292C40.9184 20.9565 42.2138 19.6567 42.2138 18.0718V15.4722C42.2138 13.8831 40.9184 12.5832 39.3292 12.5832H36.4403C34.2079 13.6024 33.8495 19.2033 36.2418 20.9565Z" fill="#E6000A"/>
<path fill-rule="evenodd" clip-rule="evenodd" d="M6.00555 18.0718C6.00555 19.6609 7.30535 20.9564 8.89003 20.9564H11.7789C12.4051 20.2482 12.8671 19.5616 13.1953 18.9095H11.5803H8.89003C7.3052 18.9095 6.00555 17.6097 6.00555 16.0249V18.0718Z" fill="#E6000A"/>
<path fill-rule="evenodd" clip-rule="evenodd" d="M36.4404 18.9095H34.9031C35.1665 19.7602 35.6114 20.4944 36.2418 20.9564H39.1608H39.3292C40.9183 20.9564 42.2137 19.6566 42.2137 18.0718V16.0249C42.2137 17.6097 40.9183 18.9095 39.3292 18.9095H39.1608H36.4404Z" fill="#E6000A"/>
<path fill-rule="evenodd" clip-rule="evenodd" d="M27.1735 29.9214C26.0292 30.3489 25.0187 30.5605 24.0126 30.5605C23.0021 30.5605 21.9917 30.3489 20.8473 29.9214C19.8024 29.5327 18.7918 28.993 17.8461 28.3409V35.6606L23.1921 40.0696H24.8287L27.2556 38.0702L28.551 37.0037L30.1747 35.6607V28.3411C29.2334 28.993 28.2229 29.5327 27.1735 29.9214Z" fill="white"/>
<path fill-rule="evenodd" clip-rule="evenodd" d="M24.0126 30.5605C23.0021 30.5605 21.9917 30.3489 20.8473 29.9214C19.8024 29.5327 18.7918 28.993 17.8461 28.3409V32.0029C19.1156 33.4237 24.0557 35.3064 27.2425 33.6654V37.9881L30.1746 34.0455V29.956V28.3409C29.2332 28.993 28.2227 29.5327 27.1733 29.9214C26.0292 30.3489 25.0187 30.5605 24.0126 30.5605Z" fill="white"/>
<path fill-rule="evenodd" clip-rule="evenodd" d="M21.3052 57.4551L24.0127 46.2101L13.9339 35.3064C12.1072 35.993 10.164 36.8696 8.35903 37.9535C5.3319 39.7759 2.69356 42.1941 1.66141 45.3034C1.35916 46.2059 1.19508 47.1688 1.19508 48.1923V56.0517C1.13033 57.1701 1.39801 57.4551 2.4949 57.4551H16.3089H21.3052Z" fill="url(#paint0_linear)"/>
<path fill-rule="evenodd" clip-rule="evenodd" d="M46.8258 48.1923C46.8258 41.5463 39.8692 37.4785 34.087 35.3064L24.0126 46.2101L27.0009 57.4551H45.5261C46.6273 57.4551 46.8907 57.1701 46.8259 56.0517V48.1923H46.8258Z" fill="url(#paint1_linear)"/>
<path fill-rule="evenodd" clip-rule="evenodd" d="M29 56.625L26.5431 46.2101L24.0126 44.8413L21.4779 46.2101L19.25 57H24.0126L29 56.625Z" fill="#E6000A"/>
<path fill-rule="evenodd" clip-rule="evenodd" d="M23.6173 44.25L21.0826 45.619L20.75 47.4715H24.2002L25.9016 56.8639H28.1816L26.1478 45.6188L23.6173 44.25Z" fill="#E6000A"/>
<path fill-rule="evenodd" clip-rule="evenodd" d="M28.6548 41.7191L24.0126 39.1281L19.3705 41.7191L21.4779 46.2101H24.0126H26.5431L28.6548 41.7191Z" fill="#E6000A"/>
<path fill-rule="evenodd" clip-rule="evenodd" d="M24.0126 39.1281L19.3705 41.7191L20.3897 43.8913L22.0824 42.9455L24.0126 41.8702L26.1804 43.0837L27.6313 43.8913L28.6548 41.7191L24.0126 39.1281Z" fill="#E6000A"/>
<path fill-rule="evenodd" clip-rule="evenodd" d="M24.0126 39.1281L17.8462 34.0454C16.6933 34.3563 15.3459 34.7751 13.934 35.3064L17.721 42.6345L19.3706 41.7191L24.0126 39.1281Z" fill="#EFF6FF"/>
<path fill-rule="evenodd" clip-rule="evenodd" d="M34.087 35.3064C32.6749 34.7753 31.332 34.3563 30.1748 34.0454L24.0126 39.1281L28.6548 41.7191L30.3044 42.6345L34.087 35.3064Z" fill="#EFF6FF"/>
<path fill-rule="evenodd" clip-rule="evenodd" d="M36.4405 19.2033V16.0034C34.7174 12.0738 16.6025 2.62525 11.5804 16.9146V19.2033C11.5804 23.6642 15.7734 29.2608 20.8991 31.1609C22.0219 31.5797 23.0151 31.787 24.0126 31.787C25.0058 31.787 25.9991 31.5797 27.1262 31.1609C32.2474 29.2606 36.4405 23.6642 36.4405 19.2033Z" fill="white"/>
<path fill-rule="evenodd" clip-rule="evenodd" d="M36.4405 11.5426C36.4405 2.4179 21.7498 -2.13361 17.1509 3.83869C11.1443 4.36977 11.5848 12.3631 11.5848 13.4167L11.5805 16.0034V16.9146C15.8254 13.7623 14.4175 14.5525 17.4489 12.6783C22.0781 9.81952 26.012 16.0034 33.353 16.0034H36.4406V11.5426H36.4405Z" fill="#626262"/>
<path fill-rule="evenodd" clip-rule="evenodd" d="M30.0797 29.6061C32.4633 27.9565 34.4239 25.5815 35.5121 23.1459C36.1081 21.8159 36.4405 20.4641 36.4405 19.2033V16.0034C35.1882 14.9324 33.8236 14.4489 32.472 15.9733V19.2033C32.472 22.7702 29.7947 27.0627 26.0983 29.6148C25.1741 30.2539 24.1852 30.7807 23.1575 31.1608C22.7646 31.3077 22.3932 31.4243 22.0262 31.5193C22.7128 31.7008 23.3606 31.787 24.0126 31.787C25.0058 31.787 25.9991 31.5796 27.1261 31.1608C28.1537 30.7807 29.1513 30.2452 30.0797 29.6061Z" fill="white"/>
<path fill-rule="evenodd" clip-rule="evenodd" d="M32.472 15.9731C32.7613 15.9947 33.055 16.0033 33.3529 16.0033H36.4405V11.5426C36.4405 4.5468 27.8084 0.241482 21.7067 1.3038C27.0095 2.11565 32.472 5.98054 32.472 11.5426V15.9731Z" fill="#323031"/>
<path d="M47.9687 53.173V48.1923C47.9687 44.8774 46.4417 41.8702 43.4298 39.2545C38.75 36.1316 42.2316 38.8914 41.818 39.3678C41.4041 39.8442 41.4549 40.5659 41.9313 40.9796C44.4211 43.142 45.6835 45.5688 45.6835 48.1923V55.125H29.1697L27.7329 46.3658L29.1697 43.3101C29.3918 43.4339 29.611 43.5774 29.844 43.6803C30.3892 43.9208 31.0472 43.6874 31.3199 43.1588L34.6316 36.7432C35.7131 37.1815 36.839 37.6958 37.9501 38.2945C38.1225 38.3873 41.7484 40.9798 41.9313 40.9796C45.3716 43.5279 41.6116 39.7508 41.818 39.3678C42.1173 38.8123 44.75 39.75 39.034 36.2828C36.2697 34.7934 33.4343 33.798 31.3178 33.1802V30.1098C31.6202 29.8798 31.9156 29.6392 32.2032 29.3888H35.4046C38.1062 29.3888 40.3041 27.1889 40.3041 24.4849V21.9795C42.0555 21.5428 43.3571 19.9568 43.3571 18.0722V15.4724C43.3571 13.2493 41.5506 11.4407 39.3299 11.4407H37.5811C37.5299 6.84146 34.0268 2.69398 28.6246 0.855151C26.3411 0.0775732 23.923 -0.181569 21.8152 0.126781C19.6148 0.447928 17.8097 1.355 16.5618 2.76025C14.2152 3.12679 10.8843 4.82805 10.4783 11.4408H8.89083C6.67023 11.4408 4.86354 13.2495 4.86354 15.4725V18.072C4.86354 20.2926 6.67007 22.0993 8.89083 22.0993H10.8983C11.8035 25.0626 13.9693 28.0292 16.7042 30.1088V33.181C15.815 33.4415 14.7403 33.7867 13.5717 34.2244C13.5437 34.2339 13.5156 34.2442 13.488 34.256C11.343 35.0643 8.88991 36.1833 6.68165 37.6671C2.28324 40.6225 0.0530396 44.1638 0.0530396 48.1925V53.1732V57.375H47.9687V53.173ZM17.5801 35.3065L21.9943 38.945L18.1951 41.0625L15.5511 35.9462C16.3208 35.6825 17.0117 35.47 17.5801 35.3065ZM22.4331 47.3527H25.5893L26.6435 53.173H21.3819L22.4331 47.3527ZM25.8181 45.0675H22.2044L20.8566 42.1954L24.0129 40.4362L27.1688 42.1949L25.8181 45.0675ZM29.8306 41.0622L26.0311 38.9447L30.4424 35.3064C31.0577 35.482 31.7418 35.6923 32.4741 35.9414L29.8306 41.0622ZM35.4045 27.1033H34.3953C35.6406 25.5507 36.5966 23.8246 37.1236 22.099H38.0186V24.4844C38.0188 25.9285 36.846 27.1033 35.4045 27.1033ZM41.0718 15.4724V18.0719C41.0718 19.0324 40.2902 19.8139 39.3297 19.8139H37.5587C37.5733 19.6092 37.5834 19.4053 37.5834 19.2033V16.0034V13.7259H39.3297C40.2902 13.7259 41.0718 14.5092 41.0718 15.4724ZM17.2521 4.97674C17.5702 4.94855 17.8621 4.78874 18.0568 4.5357C20.1066 1.87328 24.4715 1.85516 27.8882 3.01817C31.3065 4.18179 35.2983 7.11249 35.2983 11.5424V14.8607H33.3533C30.2742 14.8607 27.7686 13.6422 25.5579 12.5673C23.6799 11.6539 21.8696 10.7737 19.9987 10.7737C18.9738 10.7737 17.9305 11.0382 16.8484 11.7064C14.9794 12.8619 14.747 13.0353 13.8267 13.7617C13.5563 13.9751 13.2143 14.2451 12.7262 14.6201L12.7277 13.4166C12.7277 13.3596 12.7265 13.2839 12.7251 13.1914C12.6695 9.63154 13.4094 5.31647 17.2521 4.97674ZM8.89068 19.8139C7.93013 19.8139 7.14859 19.0324 7.14859 18.0719V15.4724C7.14859 14.5094 7.93013 13.7259 8.89068 13.7259H10.4422L10.4382 16.9133V16.9146V19.2033C10.4382 19.4053 10.4483 19.6092 10.4627 19.8139H8.89068ZM12.7234 19.2033V17.4881C14.0542 16.4934 14.7604 15.936 15.2426 15.5554C16.0822 14.8927 16.2335 14.7732 18.0496 13.6503C19.9443 12.4801 21.6704 13.2181 24.5586 14.6224C26.9912 15.8054 29.748 17.1459 33.3534 17.1459H35.2985V19.2032C35.2985 21.8152 33.6764 24.8233 31.3214 27.1031H24.8336C24.2025 27.1031 23.691 27.6145 23.691 28.2457C23.691 28.8769 24.2025 29.3883 24.8336 29.3883H28.2515C27.7541 29.6606 27.2453 29.8978 26.7285 30.0896C25.7107 30.4679 24.8478 30.6443 24.0132 30.6443C23.1747 30.6443 22.3124 30.4683 21.2969 30.0893C16.7297 28.3965 12.7234 23.3095 12.7234 19.2033ZM20.5001 32.2311C21.7769 32.7077 22.8932 32.9295 24.0131 32.9295C25.1281 32.9295 26.244 32.7078 27.5239 32.2319C28.0353 32.0422 28.5393 31.8178 29.0326 31.5626V33.5066L24.0128 37.647L18.9893 33.5064V31.5611C19.4833 31.8167 19.9881 32.0413 20.5001 32.2311ZM2.33809 48.1923C2.33809 42.3876 8.51515 38.7327 13.395 36.7515L16.7064 43.1592C16.9795 43.6874 17.6369 43.9207 18.1822 43.6803C18.4148 43.5777 18.6337 43.4342 18.8555 43.3107L20.2891 46.3657L18.8555 55.125H2.33809V48.1923Z" fill="#626262"/>
<defs>
<linearGradient id="paint0_linear" x1="12.5993" y1="35.3064" x2="12.5993" y2="57.4551" gradientUnits="userSpaceOnUse">
<stop stop-color="#757575" stop-opacity="0.38"/>
<stop offset="1" stop-color="#828282"/>
</linearGradient>
<linearGradient id="paint1_linear" x1="35.4239" y1="35.3064" x2="35.4239" y2="57.4551" gradientUnits="userSpaceOnUse">
<stop stop-color="#828282" stop-opacity="0.38"/>
<stop offset="1" stop-color="#757575"/>
</linearGradient>
</defs>
</svg>
