<svg width="72" height="65" viewBox="0 0 72 65" fill="none" xmlns="http://www.w3.org/2000/svg">
<path fill-rule="evenodd" clip-rule="evenodd" d="M37.7695 28.9955C37.9648 28.768 38.2393 27.8457 38.3553 27.4707C38.7763 26.4992 39.0631 24.3412 39.1424 23.1976C39.3132 20.7629 39.0387 18.5802 38.2271 16.3607C37.9892 15.7028 37.6902 15.1372 37.4278 14.5469C37.2204 14.0673 36.5431 12.9668 36.2197 12.4995C35.8048 11.897 34.6699 10.5321 34.1329 10.0279C33.3641 9.3024 32.0584 8.22645 31.198 7.75303C30.9113 7.59317 30.6916 7.41487 30.3804 7.27346C27.0184 5.76097 24.8462 5.21992 20.8191 5.53348C20.6605 5.55808 20.5812 5.53963 20.4958 5.60726C19.9283 5.53348 18.4883 5.93927 17.927 6.09298C17.146 6.30817 16.3832 6.60329 15.6816 6.94145C14.7297 7.40257 14.4856 7.63621 13.7046 8.06659C13.308 8.28793 12.7589 8.7552 12.3867 9.05647L10.8124 10.5874C10.6599 10.7903 10.5928 10.8272 10.4341 11.0055C9.65314 11.8662 8.7928 13.1758 8.21315 14.2026C7.6701 15.1679 7.62739 15.2294 7.21248 16.3053C7.14536 16.4713 7.03553 16.7419 6.99892 16.914C6.78536 17.3137 6.45587 18.7401 6.41316 19.2135C5.94334 20.726 6.26672 24.3719 6.76096 26.0381C7.23689 27.6428 7.57248 28.7003 8.36569 30.1575L9.8911 32.4447C10.1413 32.7644 10.9345 33.7051 11.2457 33.951C11.4653 34.1232 11.4958 34.2584 11.7216 34.4183C11.9718 34.5966 11.9962 34.6519 12.228 34.8671L13.3202 35.6787C17.4327 38.427 22.7961 39.5767 27.6469 37.9536C28.0923 37.806 28.5926 37.597 29.0136 37.4187C29.3553 37.2772 29.9899 36.9883 30.2889 36.7915C30.6916 36.5333 31.076 36.3427 31.4665 36.0722C31.8509 35.8078 32.2292 35.5434 32.6014 35.3036C32.8394 35.1499 34.3831 33.8772 34.6516 33.5452C34.7614 33.41 34.737 33.4468 34.8834 33.3239C35.0238 33.2009 35.0055 33.1886 35.1153 33.0595C35.4204 32.6906 35.701 32.4447 35.9817 32.0143C36.3112 31.504 36.7078 31.1228 37.1227 30.2989C37.318 29.9054 37.617 29.4627 37.7756 28.9893L37.7695 28.9955ZM35.4509 5.58267L35.5912 5.68719C35.9024 5.87779 36.6285 6.27128 36.9214 6.25898C37.0739 6.42499 38.1051 6.75085 38.4468 6.9476C38.7214 7.09516 38.9471 7.16279 39.2217 7.31035C39.4353 7.42716 39.7525 7.6731 39.9783 7.70999C40.0942 7.91288 40.2712 7.99281 40.4359 8.15881C40.5763 8.30637 40.7593 8.50312 40.9485 8.63838C40.9546 8.74905 41.2169 9.13025 41.3024 9.29625C41.7295 10.1324 41.7173 11.0731 41.8149 12.0138C41.9979 13.8214 42.4312 16.293 43.4379 17.8609C43.5722 18.0699 43.6942 18.3343 43.8589 18.5433C44.1091 18.8569 44.524 19.4348 44.7132 19.8406C45.1647 20.812 45.0854 21.1318 45.2379 21.4884V22.5643C44.9633 23.1791 45.1647 23.6403 44.2739 24.9806C44.164 25.1466 44.0481 25.2819 43.9322 25.4417C42.2908 27.8519 42.0468 29.7947 41.8271 32.6168C41.7051 34.1477 41.278 35.1499 40.2834 36.1091L39.2522 36.7792C38.3126 37.142 37.2448 37.7076 36.3783 38.0581C35.8719 38.2671 35.2068 38.4762 34.7126 38.9434C34.5661 39.0848 34.4502 39.1586 34.2916 39.3246C34.1878 39.4291 34.1878 39.4107 34.0719 39.5029L33.2604 40.3944C33.1689 40.5297 33.1811 40.5236 33.0651 40.6527C32.9065 40.831 32.8638 40.9109 32.6929 41.083C32.3757 41.4028 32.4611 41.4458 32.1133 41.7532C31.9913 41.8639 32.0096 41.8639 31.8936 41.9869C31.7716 42.1221 31.5946 42.3004 31.4726 42.4172C31.3689 42.5156 31.3567 42.5095 31.2469 42.5955C31.1553 42.6693 31.1065 42.7246 31.0394 42.7923C30.8869 42.9337 30.7343 43.0444 30.5574 43.1612C30.2462 43.3579 29.8313 43.6223 29.4103 43.7145C27.1893 44.2125 24.2849 42.2881 20.8802 43.0198C19.9283 43.2227 19.1229 43.487 18.171 43.6653C17.6829 43.7576 17.1215 43.7883 16.6334 43.7514C16.2002 43.7207 15.59 43.4501 15.3033 43.4317C15.1202 43.2165 14.51 42.9829 14.089 42.5341C14.0341 42.4787 13.9792 42.4049 13.9182 42.3558C13.845 42.2943 13.8023 42.282 13.7168 42.2082L12.7528 41.0646C12.4111 40.5051 12.4172 40.7019 12.1121 40.2469L10.3975 38.759C10.3182 38.6852 10.2816 38.6422 10.2145 38.593L9.28094 38.0581C7.98739 37.3449 5.71758 37.062 4.44843 35.236C4.20437 34.8794 4.04573 34.7195 3.91759 34.2154C3.5942 32.9365 3.64912 31.1658 3.28302 29.4689C3.23421 29.2414 3.222 29.0201 3.1915 28.8356C2.99624 27.6797 1.7271 25.7737 1.08643 24.7962C0.872871 24.4764 0.75694 24.1383 0.598297 23.7264C0.335926 23.0623 0.390841 22.7242 0.299316 22.4967V21.4822C0.482366 21.1072 0.354231 20.7198 0.824058 19.7853C1.3488 18.7524 1.81252 18.2175 2.0932 17.6887C2.21523 17.4551 2.37388 17.1968 2.52642 16.9694C2.71557 16.6865 3.13048 15.7458 3.1915 15.3769L3.34404 14.6699C3.38065 14.178 3.49048 13.7046 3.52098 13.1697C3.54539 12.6348 3.53929 12.2167 3.582 11.6449C3.66132 10.655 3.97251 9.72663 4.37521 9.01343C4.50335 8.78594 4.58877 8.72446 4.74131 8.52771C5.72978 7.21812 6.96841 6.9353 8.49382 6.35121C8.88433 6.22209 9.8972 5.76097 10.068 5.49044C10.4036 5.472 11.5263 4.38375 11.746 4.16856C12.7162 3.19097 12.7711 2.902 13.4423 2.15806L14.1928 1.40181C15.2422 0.424232 16.3161 0.454974 16.7554 0.282821H17.8049C18.0185 0.387342 18.3724 0.350452 19.0497 0.565643C21.1669 1.24811 23.1317 1.43256 25.3344 0.897652C25.7188 0.805428 26.0605 0.65172 26.4327 0.54105C26.634 0.485715 26.8354 0.448825 27.0428 0.405787C27.2564 0.362749 27.476 0.3566 27.6469 0.276672H28.6964L29.0442 0.362749C29.996 0.534902 31.0699 1.10055 31.735 1.77071C31.8631 1.89983 31.9851 2.0105 32.1072 2.14576C32.7295 2.84052 33.0041 3.4492 33.7729 4.23619C34.2183 4.69731 34.8773 5.27525 35.457 5.55193L35.4509 5.58267Z" fill="#626262" stroke="#626262" stroke-width="0.199368" stroke-miterlimit="22.9256"/>
<path fill-rule="evenodd" clip-rule="evenodd" d="M27.3296 24.4027L27.2625 25.2081C27.1893 25.6815 27.1649 26.1857 27.0978 26.6407C27.0123 27.194 25.9079 30.3112 26.274 30.594C26.5913 30.7231 26.7012 30.6371 27.0123 30.6616C27.6408 30.7047 28.0069 31.006 28.1961 31.0306C28.6476 31.0859 28.373 31.2457 28.7391 31.2273C28.8856 31.3933 29.215 31.2703 29.4652 31.3011C30.655 31.5224 30.3255 31.7315 31.4116 31.1966C32.4794 30.6678 32.0584 29.5181 32.4672 28.8909C32.5709 28.7249 32.5343 28.5343 32.6137 28.2884C33.1445 26.53 33.3825 24.3227 33.3581 22.2938C33.352 22.0233 33.3337 21.765 33.3337 21.4945C33.3275 21.0518 33.4008 21.1686 33.175 20.8243C32.9981 20.5477 33.0042 20.1665 32.2048 20.1173L27.653 20.0189C27.1222 20.1296 27.3296 20.7444 27.3845 21.2424C27.4822 22.2385 27.4761 23.4374 27.3479 24.415L27.3296 24.4027ZM17.5487 17.7379C17.2314 17.7256 16.786 17.8424 16.3772 17.8424C15.9501 17.8424 15.4985 17.8363 15.1324 17.9715C14.4979 18.2113 13.8938 17.7317 13.0823 18.4757C12.582 18.9368 12.3379 19.5025 12.4538 20.3632C12.6369 21.7158 11.4898 23.2775 13.0823 27.2124C13.3996 27.9994 13.7962 28.2269 13.8999 29.0508C13.9975 29.8501 14.4674 30.2559 15.0958 30.5202C16.426 31.0736 18.0734 31.215 19.6538 31.0367C21.1792 30.8645 22.5642 30.3358 24.108 30.1821C25.4564 30.0468 25.1941 30.3173 25.548 28.9832C25.7249 28.3068 25.9751 27.5752 26.0788 26.8558C26.1398 26.3886 26.1764 26.1795 26.2801 25.7368C26.573 24.4273 26.512 23.2283 26.512 21.8941L26.4937 21.39C26.6096 20.1972 26.1398 20.314 25.8835 20.1665C25.1208 19.7176 25.1391 19.3426 24.9683 19.1827C24.8524 18.9184 24.7181 18.6909 24.6144 18.4818C24.5412 18.3343 24.5351 18.2789 24.4436 18.1498C24.3642 18.033 24.2971 17.9777 24.2178 17.8731C23.9798 17.5473 23.9737 17.369 23.5161 17.0247L22.6802 16.3053C22.5703 16.1947 22.5581 16.1209 22.4666 16.0164C22.3995 15.9426 22.3141 15.8811 22.2104 15.7704C21.7222 15.2724 22.0212 15.5675 21.7405 15.1863C21.6551 15.0757 21.6124 15.0265 21.5209 14.9097L21.2951 14.6391C21.1182 14.344 20.9534 14.1288 20.7582 13.8583C20.6178 13.6616 20.4104 13.225 20.2822 13.0959C19.9833 12.3151 20.0992 11.608 19.8856 10.8087C19.8002 10.489 19.5622 10.2431 19.2755 10.1201C19.007 10.0033 18.4517 9.89878 18.2443 10.1017L18.1711 10.0771C17.8111 10.2369 17.5853 10.3906 17.3534 10.612C17.1887 10.7718 17.207 10.8272 17.0728 11.0301C16.5663 11.7986 16.2979 12.5733 16.4138 13.6062C16.6212 15.463 17.7317 16.4344 17.805 17.5842L17.5426 17.7502L17.5487 17.7379ZM28.7818 8.47852C28.8794 8.60149 30.0022 9.16099 30.2035 9.25321C30.2523 9.37618 30.4781 9.43151 30.6062 9.50529L31.3872 10.0771C31.552 10.2001 31.6435 10.2369 31.7716 10.3476L33.175 11.6511C33.8706 12.3397 35.1763 13.9321 35.4875 14.6945C35.6279 14.9343 35.7682 15.1556 35.8719 15.42C35.9574 15.629 36.0855 16.0041 36.2258 16.1701C36.3784 16.7296 36.6712 17.246 36.8177 17.8424C37.3912 20.1419 37.6414 21.3101 37.3241 23.8678C37.2387 24.5256 37.1228 25.1712 36.9641 25.7737C36.6957 26.8005 36.2197 28.1347 35.695 29.0262L35.0848 30.0714C34.9628 30.262 34.914 30.2805 34.8774 30.4649L33.1262 32.623C33.1201 32.6291 33.1079 32.6353 33.0957 32.6414C33.0896 32.6476 33.0713 32.6537 33.0652 32.6599C32.5831 32.9365 32.8638 32.8259 32.632 33.0349C32.5465 33.1087 32.455 33.1394 32.3635 33.2193C32.2048 33.3546 32.2171 33.4222 31.8754 33.6805C31.7838 33.7481 31.8021 33.742 31.7289 33.785C31.5581 33.8834 31.7167 33.7727 31.5703 33.8772L31.0211 34.326C30.8076 34.4244 30.4781 34.6273 30.2645 34.781C30.0144 34.9593 29.6727 35.1192 29.4957 35.2237C29.1296 35.445 28.312 35.7893 27.83 35.9492C27.531 36.0476 27.2503 36.1705 26.9452 36.2628C26.6279 36.3611 26.329 36.4165 25.9873 36.5087C25.3649 36.6747 24.5473 36.7731 23.87 36.8223C22.3629 36.9329 21.0876 36.8038 19.6233 36.5333C17.7928 36.189 17.6158 35.9553 16.0416 35.2606C15.2362 34.904 13.7962 33.9571 13.1128 33.33L12.1853 32.4508C11.4776 31.7069 10.3671 30.1821 9.86673 29.3029C9.59215 28.8233 9.31758 28.2392 9.06131 27.649C7.43827 23.9477 7.85928 18.9184 9.48842 15.5614C9.97045 14.5715 11.3372 12.4011 12.2525 11.6511C12.405 11.5281 12.4416 11.3867 12.8504 11.0485L13.8633 10.2062C16.9751 7.8268 20.8802 6.81233 25.011 7.39027C25.6273 7.47635 26.4327 7.64235 26.9757 7.8268C27.4273 7.98051 28.5988 8.48467 28.7757 8.48467L28.7818 8.47852Z" fill="#626262" stroke="#626262" stroke-width="0.199368" stroke-miterlimit="22.9256"/>
<path fill-rule="evenodd" clip-rule="evenodd" d="M36.2746 40.1731C36.3234 40.2591 36.3356 40.2776 36.4028 40.3514C36.5309 40.794 36.8177 41.4027 36.9824 41.7962L41.6624 53.1645C42.1017 54.3757 42.9132 56.1956 43.4197 57.4314C43.5844 57.831 43.9383 58.5688 43.3769 58.95C42.663 59.4419 39.5573 57.8187 38.6726 57.9294C38.459 57.7327 37.9892 57.9233 37.7329 57.7204C37.556 57.5728 37.6658 57.5359 37.4156 57.4314C37.2326 57.3576 37.0984 57.3884 36.9519 57.3392L36.1038 57.0379C34.9445 56.6813 34.676 56.5829 33.9682 57.2162C33.7485 57.4129 33.2055 58.5873 32.9431 59.0054C32.7784 59.2759 32.6747 59.4665 32.5343 59.7432C32.1133 60.5547 30.777 62.9649 30.5635 63.5428C30.0449 64.92 30.1059 64.3728 29.4835 64.6926H29.2455L29.1235 64.5819C28.373 64.0039 28.2266 62.4792 27.8361 62.1533C27.8422 61.8705 25.4076 56.1464 25.4015 56.1402L23.9127 52.482L22.3873 48.7315C22.1981 48.3134 20.8924 45.1716 20.868 44.9749C21.289 44.9257 21.6551 44.7782 22.0883 44.729C24.7974 44.4461 27.0123 46.3398 30.2828 45.3438C30.8564 45.1716 32.0218 44.4093 32.4794 44.0342C32.5526 43.9789 32.5709 43.9358 32.6564 43.8621C33.6753 42.9275 33.7974 42.5033 34.4929 41.8331C34.6699 41.6671 34.6699 41.6302 34.8041 41.4396C35.0299 41.1261 35.2801 41.04 35.4997 40.7387C35.6401 40.5543 36.0245 40.1792 36.2746 40.1608V40.1731Z" fill="#626262" stroke="#626262" stroke-width="0.199368" stroke-miterlimit="22.9256"/>
<path fill-rule="evenodd" clip-rule="evenodd" d="M15.2788 45.393C15.6327 45.5344 16.9873 45.7496 17.4144 45.6327C17.6524 45.6389 18.0612 45.6389 18.2015 45.5098C18.4456 45.5467 18.4639 45.4975 18.6652 45.5098C18.7934 45.5159 18.8849 45.5651 19.013 45.5959C19.0863 45.7557 19.0435 45.6389 19.1351 45.7741C19.2815 45.977 19.6171 46.8747 19.7208 47.1329C19.8001 47.3666 19.8917 47.7293 20.0503 47.8707C20.0564 48.1535 20.7032 49.5246 20.8618 49.9243C21.7405 52.1684 21.9845 51.6519 20.9412 54.1051C20.8008 54.431 20.1601 55.882 20.1479 56.1218C19.9832 56.2878 18.5615 59.7001 18.3602 60.2042C18.1527 60.7146 18.0124 61.1818 17.8293 61.686L16.5785 64.3974C16.4625 64.5757 15.767 65.043 15.3337 64.1945C15.2483 64.0285 14.6687 63.0325 14.5588 62.9587L14.571 62.9341C14.4795 62.682 14.2721 62.3623 14.1561 62.1102C14.0524 61.8889 13.8999 61.52 13.7168 61.397C13.7046 61.1941 13.6436 61.1326 13.5155 60.8929C13.43 60.733 13.3568 60.6408 13.2714 60.4871L12.3622 58.6856C12.1853 58.3659 12.0938 58.163 11.9168 57.8248C11.8192 57.6465 11.746 57.5728 11.6545 57.3822C11.0565 56.1033 10.4463 56.7427 8.4999 57.3022C7.10873 57.7019 5.76026 58.1077 4.37519 58.5319C3.76502 58.7225 2.67283 59.1406 2.22131 58.9438C1.4647 58.6118 1.98334 57.7019 2.21521 57.0993L4.53383 51.3322C4.7962 50.6928 5.04027 50.0841 5.30264 49.4385C5.44298 49.0881 5.46128 49.3586 5.71145 48.4979L6.88296 45.6512C7.16974 45.0671 7.3955 44.3969 7.66398 43.7698C7.81041 43.4316 8.40838 42.1221 8.42668 41.87C8.61583 41.7163 8.93922 40.671 9.11006 40.3329C9.13447 40.2899 9.15278 40.253 9.18328 40.2099C9.19549 40.1915 9.2443 40.1423 9.2443 40.1423C9.2504 40.1177 9.26871 40.1177 9.28091 40.1054L11.6911 42.657C12.0938 43.1796 12.5697 43.6653 13.0578 44.0957L13.4361 44.4215C13.9975 44.8519 14.5893 45.1409 15.2971 45.3745L15.2788 45.393Z" fill="#626262" stroke="#626262" stroke-width="0.199368" stroke-miterlimit="22.9256"/>
<path fill-rule="evenodd" clip-rule="evenodd" d="M28.3363 28.479C28.5194 28.811 28.855 29.1061 28.6536 29.6287C28.4278 30.2005 27.7018 30.139 27.5004 30.0407C27.3662 29.973 27.1892 29.8132 27.116 29.6287C27.0306 29.4135 27.0672 29.1738 27.1648 28.9832C27.354 28.6143 27.7506 28.3929 28.3363 28.479Z" fill="#626262" stroke="#626262" stroke-width="0.199368" stroke-miterlimit="22.9256"/>
<path fill-rule="evenodd" clip-rule="evenodd" d="M38.0135 28.8479C38.2088 28.6204 38.4833 27.6981 38.5993 27.3231C39.0203 26.3517 39.3071 24.1936 39.3864 23.05C39.5572 20.6153 39.2827 18.4326 38.4711 16.2131C38.2332 15.5552 37.9342 14.9896 37.6718 14.3993C37.4644 13.9198 36.7871 12.8192 36.4637 12.3519C36.0488 11.7494 34.9139 10.3845 34.3769 9.88032C33.6081 9.15482 32.3024 8.07886 31.4421 7.60544C31.1553 7.44559 30.9356 7.26729 30.6244 7.12587C27.2624 5.61339 25.0902 5.07234 21.0632 5.3859C20.9045 5.41049 20.8252 5.39205 20.7398 5.45968C20.1723 5.3859 18.7323 5.79169 18.171 5.9454C17.39 6.15444 16.6273 6.45571 15.9256 6.79386C14.9737 7.25499 14.7297 7.48862 13.9486 7.91901C13.552 8.14035 13.0029 8.60762 12.6307 8.90889L11.0565 10.4398C10.9039 10.6427 10.8368 10.6796 10.6782 10.8579C9.89715 11.7187 9.03682 13.0283 8.45717 14.055C7.91412 15.0203 7.87141 15.0818 7.4565 16.1578C7.38938 16.3238 7.27955 16.5943 7.24294 16.7664C7.02938 17.1661 6.69989 18.5925 6.65718 19.0659C6.18735 20.5784 6.51074 24.2243 7.00497 25.8905C7.4809 27.4952 7.81649 28.5528 8.60971 30.0099L10.1351 32.2971C10.3853 32.6106 11.1785 33.5575 11.4897 33.8034C11.7093 33.9756 11.7399 34.1108 11.9656 34.2707C12.2158 34.449 12.2402 34.5043 12.472 34.7195L13.5642 35.5311C17.6767 38.2794 23.0401 39.4291 27.8909 37.806C28.3363 37.6584 28.8367 37.4494 29.2577 37.2711C29.5994 37.1297 30.2339 36.8407 30.5329 36.6439C30.9356 36.3857 31.32 36.1951 31.7105 35.9246C32.0949 35.6602 32.4732 35.3958 32.8454 35.1561C33.0834 35.0023 34.6271 33.7296 34.8956 33.3976C35.0054 33.2624 34.981 33.2993 35.1274 33.1763C35.2678 33.0595 35.2495 33.041 35.3593 32.9119C35.6644 32.543 35.9451 32.2971 36.2257 31.8667C36.5552 31.3564 36.9518 30.9752 37.3668 30.1513C37.562 29.7578 37.861 29.3152 38.0196 28.8417L38.0135 28.8479ZM35.6949 5.43509L35.8352 5.53961C36.1464 5.73021 36.8725 6.1237 37.1654 6.1114C37.3179 6.27741 38.3491 6.60327 38.6908 6.80001C38.9654 6.94757 39.1911 7.0152 39.4657 7.16276C39.6793 7.27958 39.9966 7.52551 40.2223 7.5624C40.3382 7.7653 40.5152 7.84523 40.6799 8.01123C40.8203 8.15879 41.0033 8.35554 41.1925 8.4908C41.1986 8.60147 41.4609 8.98267 41.5464 9.14867C41.9735 9.98484 41.9613 10.9255 42.0589 11.8662C42.242 13.6738 42.6752 16.1455 43.6819 17.7133C43.8162 17.9223 43.9382 18.1867 44.103 18.3957C44.3531 18.7093 44.768 19.2872 44.9572 19.693C45.4087 20.6645 45.3294 20.9842 45.4819 21.3408V22.4167C45.2074 23.0316 45.4087 23.4927 44.5179 24.833C44.408 24.999 44.2921 25.1343 44.1762 25.2942C42.5348 27.7043 42.2908 29.6472 42.0711 32.4692C41.9491 34.0002 41.522 35.0023 40.5274 35.9615L39.4962 36.6316C38.5566 36.9944 37.4888 37.56 36.6223 37.9166C36.1159 38.1257 35.4508 38.3347 34.9566 38.802C34.8102 38.9434 34.6942 39.0172 34.5356 39.1832C34.4319 39.2877 34.4319 39.2693 34.3159 39.3615L33.5044 40.253C33.4129 40.3883 33.4251 40.3821 33.3092 40.5112C33.1505 40.6895 33.1078 40.7695 32.937 40.9416C32.6197 41.2613 32.7051 41.3044 32.3573 41.6118C32.2353 41.7225 32.2536 41.7225 32.1376 41.8454C32.0156 41.9807 31.8387 42.159 31.7166 42.2758C31.6129 42.3742 31.6007 42.368 31.4909 42.4541C31.3993 42.5279 31.3505 42.5832 31.2834 42.6509C31.1309 42.7923 30.9783 42.9029 30.8014 43.0197C30.4902 43.2165 30.0753 43.4809 29.6543 43.5731C27.4333 44.0711 24.5289 42.1467 21.1242 42.8783C20.1723 43.0812 19.3669 43.3456 18.415 43.5239C17.9269 43.6161 17.3656 43.6469 16.8774 43.6161C16.4442 43.5854 15.8341 43.3149 15.5473 43.2964C15.3642 43.0812 14.7541 42.8476 14.333 42.3988C14.2781 42.3434 14.2232 42.2697 14.1622 42.2205C14.089 42.159 14.0463 42.1467 13.9608 42.0729L12.9968 40.9293C12.6551 40.3698 12.6612 40.5666 12.3561 40.1116L10.6416 38.6176C10.5622 38.5438 10.5256 38.5007 10.4585 38.4515L9.52495 37.9166C8.2314 37.2034 5.96159 36.9206 4.69245 35.0946C4.44839 34.7441 4.28974 34.5781 4.16161 34.0739C3.83822 32.7951 3.89314 31.0244 3.52704 29.3274C3.47823 29.1 3.46602 28.8786 3.43551 28.6942C3.24026 27.5383 1.97112 25.6323 1.33045 24.6547C1.11689 24.335 1.00096 23.9969 0.842315 23.5849C0.579945 22.9209 0.63486 22.5827 0.543335 22.3553V21.3408C0.726384 20.9657 0.59825 20.5784 1.06808 19.6438C1.59282 18.6109 2.05654 18.076 2.33722 17.5473C2.45925 17.3136 2.61789 17.0554 2.77043 16.8279C2.95348 16.5451 3.3745 15.6044 3.43551 15.2355L3.58805 14.5284C3.62466 14.0366 3.73449 13.5632 3.765 13.0283C3.78941 12.4934 3.78331 12.0753 3.82602 11.5035C3.90534 10.5136 4.21652 9.5852 4.61923 8.872C4.74737 8.64451 4.83279 8.58302 4.98533 8.38628C5.9738 7.07669 7.21243 6.79387 8.73784 6.20363C9.12835 6.07451 10.1412 5.61339 10.3121 5.34286C10.6477 5.32442 11.7704 4.23617 11.99 4.02097C12.9602 3.04339 13.0151 2.75442 13.6924 2.01047L14.4429 1.25423C15.4924 0.276649 16.5662 0.307391 17.0056 0.135238H18.055C18.2686 0.239759 18.6225 0.202869 19.2998 0.41806C21.4171 1.10052 23.3818 1.28497 25.5845 0.750069C25.9689 0.657845 26.3106 0.504137 26.6828 0.393467C26.8841 0.338132 27.0855 0.301242 27.2929 0.258204C27.5065 0.215166 27.7262 0.209017 27.897 0.129089H28.9465L29.2943 0.215166C30.2461 0.387319 31.32 0.952964 31.9851 1.62313C32.1132 1.75225 32.2353 1.86291 32.3573 1.99818C32.9797 2.69294 33.2542 3.30162 34.023 4.08861C34.4685 4.54973 35.1274 5.12767 35.7071 5.40435L35.6949 5.43509Z" fill="#626262"/>
<path fill-rule="evenodd" clip-rule="evenodd" d="M27.5798 24.2489L27.5126 25.0543C27.4394 25.5278 27.415 26.0319 27.3479 26.4869C27.2625 27.0402 26.1581 30.1574 26.5242 30.4403C26.8415 30.5694 26.9513 30.4833 27.2625 30.5079C27.8909 30.5509 28.257 30.8522 28.4462 30.8768C28.8977 30.9321 28.6231 31.092 28.9892 31.0735C29.1357 31.2395 29.4652 31.1166 29.7153 31.1473C30.9051 31.3687 30.5757 31.5777 31.6618 31.0428C32.7295 30.514 32.3085 29.3643 32.7173 28.7372C32.8211 28.5773 32.7845 28.3806 32.8638 28.1346C33.3946 26.3762 33.6326 24.169 33.6082 22.14C33.6021 21.8695 33.5838 21.6113 33.5838 21.3408C33.5777 20.8981 33.6509 21.0149 33.4251 20.6706C33.2482 20.3939 33.2543 20.0127 32.455 19.9635L27.9031 19.8652C27.3723 19.9758 27.5798 20.5907 27.6347 21.0887C27.7323 22.0847 27.7262 23.2836 27.5981 24.2612L27.5798 24.2489ZM17.7988 17.5841C17.4815 17.5718 17.0361 17.6887 16.6273 17.6887C16.2002 17.6887 15.7487 17.6825 15.3826 17.8178C14.748 18.0576 14.1439 17.578 13.3324 18.3219C12.8321 18.7831 12.588 19.3487 12.7039 20.2095C12.887 21.5621 11.7399 23.1238 13.3324 27.0587C13.6497 27.8457 14.0463 28.0732 14.15 28.897C14.2477 29.6963 14.7175 30.1021 15.346 30.3665C16.6761 30.9198 18.3236 31.0612 19.9039 30.8829C21.4293 30.7108 22.8144 30.182 24.3581 30.0222C25.7065 29.8869 25.4442 30.1574 25.7981 28.8233C25.975 28.1469 26.2252 27.4153 26.3289 26.6959C26.3899 26.2287 26.4265 26.0196 26.5303 25.5769C26.8231 24.2674 26.7621 23.0684 26.7621 21.7342L26.7438 21.2301C26.8598 20.0373 26.3899 20.1541 26.1337 20.0066C25.371 19.5577 25.3893 19.1888 25.2184 19.0228C25.1025 18.7585 24.9682 18.531 24.8645 18.3219C24.7913 18.1744 24.7852 18.119 24.6937 17.9899C24.6144 17.8731 24.5472 17.8178 24.4679 17.7133C24.2299 17.3874 24.2238 17.2091 23.7662 16.8648L22.9303 16.1454C22.8205 16.0348 22.8083 15.961 22.7167 15.8565C22.6496 15.7827 22.5642 15.7212 22.4605 15.6167C21.9723 15.1187 22.2713 15.4138 21.9906 15.0326C21.9052 14.9219 21.8625 14.8727 21.771 14.7559L21.5452 14.4854C21.3683 14.1903 21.2035 13.9751 21.0083 13.7046C20.8679 13.5078 20.6605 13.0713 20.5324 12.9422C20.2334 12.1613 20.3493 11.4543 20.1357 10.655C20.0503 10.3353 19.8124 10.0893 19.5256 9.96637C19.2571 9.84956 18.7019 9.74504 18.4944 9.94793L18.4212 9.92334C18.0612 10.0832 17.8354 10.2369 17.6036 10.4582C17.4388 10.6181 17.4571 10.6734 17.3229 10.8763C16.8165 11.6449 16.548 12.4196 16.6639 13.4525C16.8714 15.3093 17.9819 16.2807 18.0551 17.4304L17.7927 17.5964L17.7988 17.5841ZM29.0319 8.32477C29.1296 8.44774 30.2523 9.00724 30.4536 9.09946C30.5024 9.22243 30.7282 9.27776 30.8563 9.35154L31.6373 9.92334C31.8021 10.0463 31.8936 10.0832 32.0217 10.1939L33.4251 11.4973C34.1207 12.1859 35.4265 13.7783 35.7376 14.5407C35.878 14.7805 36.0183 15.0018 36.1221 15.2662C36.2075 15.4753 36.3356 15.8503 36.4759 16.0163C36.6285 16.5758 36.9214 17.0923 37.0678 17.6887C37.6414 19.9881 37.8915 21.1563 37.5742 23.714C37.4888 24.3719 37.3729 25.0175 37.2142 25.62C36.9458 26.6468 36.4698 27.9809 35.9451 28.8724L35.3349 29.9177C35.2129 30.1083 35.1641 30.1206 35.1275 30.3112L33.3763 32.4692C33.3702 32.4754 33.358 32.4815 33.3458 32.4877C33.3397 32.4938 33.3214 32.5 33.3153 32.5061C32.8333 32.7828 33.1139 32.6721 32.8821 32.8811C32.7967 32.9549 32.7051 32.9857 32.6136 33.0656C32.455 33.2009 32.4672 33.2685 32.1255 33.5267C32.034 33.5944 32.0523 33.5882 31.979 33.6312C31.8082 33.7296 31.9668 33.6189 31.8204 33.7235L31.2712 34.1723C31.0577 34.2707 30.7282 34.4736 30.5146 34.6273C30.2645 34.8056 29.9228 34.9654 29.7458 35.0699C29.3797 35.2913 28.5621 35.6356 28.0801 35.7955C27.7811 35.8938 27.5004 36.0168 27.1953 36.109C26.8781 36.2074 26.5791 36.2627 26.2374 36.3549C25.615 36.521 24.7974 36.6193 24.1201 36.6685C22.613 36.7792 21.3378 36.6501 19.8734 36.3795C18.0429 36.0352 17.8659 35.8016 16.2917 35.1068C15.4863 34.7502 14.0463 33.8034 13.3629 33.1763L12.4355 32.2971C11.7277 31.5531 10.6172 30.0283 10.1168 29.1491C9.84227 28.6696 9.5677 28.0855 9.31143 27.4952C7.68839 23.7939 8.10941 18.7708 9.73855 15.4076C10.2206 14.4178 11.5873 12.2474 12.5026 11.4973C12.6551 11.3743 12.6917 11.2329 13.1006 10.8948L14.1134 10.0525C17.2253 7.67305 21.1303 6.65858 25.2611 7.23652C25.8774 7.3226 26.6828 7.4886 27.2259 7.67305C27.6774 7.82676 28.8489 8.33092 29.0258 8.33092L29.0319 8.32477Z" fill="#626262"/>
<path fill-rule="evenodd" clip-rule="evenodd" d="M36.5187 40.0255C36.5675 40.1116 36.5797 40.13 36.6468 40.2038C36.775 40.6465 37.0618 41.2551 37.2265 41.6486L41.9065 53.0169C42.3458 54.2281 43.1573 56.048 43.6637 57.2838C43.8285 57.6834 44.1824 58.4212 43.621 58.8024C42.9071 59.2943 39.8014 57.6711 38.9167 57.7818C38.7031 57.5851 38.2333 57.7757 37.977 57.5728C37.8001 57.4314 37.9099 57.3883 37.6597 57.2838C37.4767 57.21 37.3424 57.2408 37.196 57.1916L36.3479 56.8903C35.1886 56.5337 34.9201 56.4353 34.2123 57.0686C33.9926 57.2654 33.4496 58.4397 33.1872 58.8578C33.0225 59.1283 32.9187 59.3189 32.7723 59.5956C32.3574 60.4071 31.015 62.8173 30.8015 63.3952C30.2828 64.7724 30.3438 64.2253 29.7215 64.545H29.4835L29.3615 64.4343C28.611 63.8564 28.4645 62.3316 28.074 62.0057C28.0801 61.7229 25.6456 55.9988 25.6395 55.9927L24.1507 52.3344L22.6253 48.5839C22.4361 48.1658 21.1304 45.0241 21.106 44.8273C21.527 44.7781 21.8931 44.6306 22.3263 44.5814C25.0354 44.2986 27.2503 46.1922 30.5208 45.1962C31.0943 45.0241 32.2598 44.2617 32.7174 43.8866C32.7906 43.8313 32.8089 43.7882 32.8943 43.7145C33.9133 42.7799 34.0353 42.3557 34.7309 41.6855C34.9079 41.5195 34.9079 41.4826 35.0421 41.292C35.2679 40.9785 35.5119 40.8924 35.7377 40.5911C35.878 40.4005 36.2624 40.0316 36.5126 40.0132L36.5187 40.0255Z" fill="#E6000A"/>
<path fill-rule="evenodd" clip-rule="evenodd" d="M15.529 45.2392C15.8829 45.3806 17.2375 45.5958 17.6646 45.479C17.9025 45.4852 18.3114 45.4852 18.4517 45.356C18.6958 45.3929 18.7141 45.3437 18.9154 45.356C19.0436 45.3622 19.1351 45.4114 19.2632 45.4421C19.3364 45.602 19.2937 45.4913 19.3913 45.6204C19.5378 45.8233 19.8734 46.721 19.9771 46.9792C20.0564 47.219 20.148 47.5756 20.3066 47.717C20.3127 47.9998 20.9595 49.3709 21.1181 49.7705C21.9968 52.0085 22.2408 51.4982 21.1974 53.9514C21.0571 54.2773 20.4164 55.7283 20.4042 55.968C20.2395 56.134 18.8178 59.5464 18.6164 60.0505C18.409 60.5608 18.2686 61.0281 18.0856 61.5323L16.8348 64.2437C16.7188 64.422 16.0232 64.8893 15.59 64.0408C15.5046 63.8748 14.9249 62.8788 14.8151 62.805L14.8273 62.7804C14.7358 62.5283 14.5283 62.2086 14.4124 61.9565C14.3087 61.7352 14.1561 61.3663 13.9731 61.2433C13.9609 61.0404 13.8999 60.9789 13.7717 60.7391C13.6863 60.5793 13.6131 60.4871 13.5277 60.3333L12.6185 58.5319C12.4416 58.2122 12.3501 58.0031 12.1731 57.6711C12.0755 57.4928 12.0023 57.419 11.9107 57.2346C11.3128 55.9557 10.7026 56.5952 8.75619 57.1547C7.36501 57.5543 6.01655 57.9601 4.63147 58.3843C4.02131 58.5749 2.92912 58.993 2.47759 58.7963C1.72099 58.4643 2.23963 57.5543 2.47149 56.9518L4.79012 51.1847C5.05249 50.5452 5.29655 49.9365 5.55892 49.291C5.69926 48.9405 5.71757 49.211 5.96773 48.3503L7.13925 45.5036C7.42603 44.9195 7.65179 44.2493 7.92026 43.6222C8.0667 43.2841 8.66466 41.9745 8.68297 41.7224C8.87212 41.5687 9.1955 40.5235 9.36635 40.1853C9.39076 40.1423 9.40906 40.1054 9.43957 40.0623C9.45177 40.0439 9.50059 39.9947 9.50059 39.9947C9.50669 39.9701 9.52499 39.9701 9.5372 39.9578L11.9473 42.5094C12.3501 43.032 12.826 43.5177 13.3141 43.9481L13.6924 44.2739C14.2538 44.7043 14.8456 44.9933 15.5534 45.2269L15.529 45.2392Z" fill="#E6000A"/>
<path fill-rule="evenodd" clip-rule="evenodd" d="M28.5866 28.3253C28.7696 28.6573 29.1052 28.9524 28.9039 29.475C28.6781 30.0468 27.952 29.9854 27.7506 29.887C27.6164 29.8193 27.4395 29.6595 27.3662 29.475C27.2808 29.2598 27.3174 29.0201 27.4151 28.8295C27.6042 28.4606 28.0008 28.2392 28.5866 28.3253Z" fill="#626262"/>
<path fill-rule="evenodd" clip-rule="evenodd" d="M44.9878 23.6648C44.8413 27.2862 43.6637 26.4254 43.5234 28.4728C43.261 32.3032 48.9843 32.7951 49.3077 29.0262C49.4481 27.4153 48.7586 28.5773 49.2528 23.4619C50.8514 22.927 54.4148 22.761 55.6351 23.8493L66.734 35.0884C67.9849 36.3488 69.0404 37.4248 70.3035 38.679C72.195 40.5604 72.1584 41.6917 70.2852 43.5423C58.0087 55.6791 59.8697 56.3063 54.4758 50.8896L43.3464 39.6812C41.7844 38.1195 40.8569 38.015 40.8874 34.8056C40.9119 32.377 41.0766 30.305 41.3268 27.901C41.6868 24.4211 41.1498 23.9169 44.9817 23.6771L44.9878 23.6648Z" fill="#626262" stroke="#626262" stroke-width="0.199368" stroke-miterlimit="22.9256"/>
<path fill-rule="evenodd" clip-rule="evenodd" d="M45.6589 29.5796C44.4996 27.0219 47.5382 23.7141 44.8108 20.9535C37.3668 16.084 38.7702 23.9662 37.6658 29.2476C37.4827 30.1329 36.7139 30.7908 36.3661 31.4671C34.5417 26.6099 34.2855 17.7687 41.3329 17.3813C46.3606 17.1046 48.844 21.1072 47.947 26.4685C47.5992 28.5467 47.8982 30.1022 45.6528 29.5796H45.6589Z" fill="#626262"/>
<path fill-rule="evenodd" clip-rule="evenodd" d="M44.9878 23.2468C44.8413 26.8682 43.6637 26.0074 43.5234 28.0548C43.261 31.8852 48.9843 32.3771 49.3077 28.602C49.4481 26.9911 48.7586 28.1532 49.2528 23.0378C50.8514 22.4967 54.4148 22.3369 55.6351 23.4251L66.734 34.6642C67.9849 35.9246 69.0404 37.0006 70.3035 38.2548C72.195 40.1362 72.1584 41.2675 70.2852 43.1182C58.0087 55.2549 59.8697 55.8821 54.4758 50.4654L43.3464 39.257C41.7844 37.6953 40.8569 37.5908 40.8874 34.3814C40.9119 31.9528 41.0766 29.8808 41.3268 27.4768C41.6868 23.9969 41.1498 23.4927 44.9817 23.253L44.9878 23.2468Z" fill="url(#paint0_linear)"/>
<path fill-rule="evenodd" clip-rule="evenodd" d="M45.2684 29.1922C44.1091 26.6345 47.1477 23.3267 44.4203 20.5661C36.9763 15.6966 38.3797 23.5788 37.2753 28.8602C37.0922 29.7455 36.3234 30.4034 35.9756 31.0797C34.1512 26.2225 33.895 17.3813 40.9424 16.9939C45.9701 16.7173 48.4535 20.7198 47.5565 26.0811C47.2087 28.1593 47.5077 29.7148 45.2623 29.1922H45.2684Z" fill="url(#paint1_linear)"/>
<defs>
<linearGradient id="paint0_linear" x1="56.9958" y1="55.3841" x2="55.5709" y2="13.6931" gradientUnits="userSpaceOnUse">
<stop stop-color="#262626"/>
<stop offset="1" stop-color="#FEFEFE"/>
</linearGradient>
<linearGradient id="paint1_linear" x1="42.3091" y1="14.1964" x2="43.3808" y2="29.5415" gradientUnits="userSpaceOnUse">
<stop stop-color="#CDCDCD"/>
<stop offset="1" stop-color="#626262"/>
</linearGradient>
</defs>
</svg>
