<svg width="81" height="48" viewBox="0 0 81 48" fill="none" xmlns="http://www.w3.org/2000/svg">
<g clip-path="url(#clip0)">
<path fill-rule="evenodd" clip-rule="evenodd" d="M41.5901 13.5801L44.1102 14.2748C44.6423 14.4088 44.9136 14.4853 45.3556 14.6362C47.0705 15.2228 48.583 16.3222 47.5924 17.9256C47.2935 18.4092 47.0659 18.3736 47.0746 18.7097C47.0147 17.7447 47.4458 16.9333 45.7219 17.3791C45.6548 17.3961 45.4686 17.4612 45.4072 17.4832C45.3537 17.5021 45.3111 17.5184 45.2603 17.5384L44.4109 18.0887C45.2256 17.2069 45.7023 17.0601 46.0173 16.3377C44.9935 16.5746 44.1166 16.9685 43.2537 17.538L42.9768 17.6591C43.3969 16.8648 43.9908 16.5447 44.2813 15.6883C43.3834 15.8029 44.0281 15.6837 43.4233 15.9176C42.9059 16.1182 43.7131 15.873 43.1045 16.072C42.0053 16.4319 43.8709 16.1534 42.817 16.1201C41.0697 16.0656 39.6552 15.2599 37.1414 15.7942L37.4855 16.0349C38.2334 16.4209 39.4788 16.2824 40.2215 16.8815C39.4475 17.0673 37.8303 16.5292 36.453 16.8743C36.0347 16.9791 35.7284 17.1369 35.2962 17.0158C35.0731 16.953 34.9665 16.8731 34.8203 16.8134C34.4363 16.6552 34.6371 16.7354 34.2656 16.6033C31.2055 15.518 27.7286 14.447 24.4602 14.2158C23.7484 14.1651 23.7751 14.3123 22.9503 14.1678C21.7803 13.9623 21.0643 13.8828 19.871 14.08C20.3039 14.6616 23.1553 15.3905 24.5401 15.8843L29.6979 17.8291C29.9074 17.9138 30.0091 17.9547 30.2134 18.0372L34.6047 19.9505C34.2562 20.1136 34.2611 20.0183 34.0026 19.963L33.3228 19.7507C33.2761 19.7363 33.229 19.722 33.1819 19.7072L26.3996 17.7802C24.6531 17.3144 22.8674 16.6987 21.0033 16.4792C21.119 17.1483 21.4362 17.6576 21.8044 18.2283C21.8262 18.2624 21.8549 18.3074 21.8764 18.3411C22.4657 19.2569 22.8361 19.5891 23.9183 19.977L25.9441 20.8345C25.978 20.8504 26.0243 20.8747 26.0582 20.8913C26.0929 20.9083 26.1396 20.9326 26.1747 20.9496L30.0785 22.8811C30.8445 23.3257 32.6408 24.508 33.4261 24.816C32.8586 24.7456 32.0986 26.3729 31.5239 26.687L31.6256 26.9659C32.3303 26.844 28.5983 24.7551 28.2814 24.6385C27.963 24.5216 28.1804 24.5969 28.0128 24.5439L24.9316 24.7551L27.2339 26.0796C27.6058 26.3426 27.3677 26.1057 27.5542 26.3169C27.0432 26.4652 26.4237 26.2457 25.854 26.1299C24.8886 25.9335 24.3045 26.0924 23.3022 26.0675L30.1146 30.791C29.4985 31.1611 29.2378 31.2115 28.8248 31.8082L28.237 32.8512C28.0214 33.2614 28.275 32.911 28.0286 33.2323C27.9822 33.1933 27.9009 33.0631 27.8892 33.0506L26.4776 32.1042C26.4294 32.0773 26.2858 31.9994 26.2361 31.9729L20.1913 28.5647C19.9938 28.4584 19.9482 28.4357 19.7285 28.3044L15.5791 26.0652C14.7787 27.1063 14.9136 27.5562 14.7369 28.9825L15.9498 29.4446C16.682 29.9445 13.4723 32.2593 15.1706 36.9057C15.4513 37.6735 15.642 38.2018 16.4894 38.5689C16.2999 37.5263 15.6427 35.5736 16.2407 33.8332C16.3824 33.4219 16.6827 32.8917 16.7231 32.6578C16.7325 32.7558 16.2577 36.0694 17.2325 37.5225C17.7013 38.2215 17.211 37.722 17.9078 38.1295L17.7141 35.9668C17.7548 34.3539 17.7668 32.2987 19.3841 31.3394C19.8092 31.7636 20.5289 31.9978 21.0496 32.2911C21.0824 32.31 21.1291 32.3354 21.1623 32.3539L24.2198 34.0028C24.2684 34.0296 24.4089 34.1072 24.4594 34.1341C26.3917 35.1528 27.804 36.0758 30.1071 35.538C30.2137 36.3229 29.7337 37.3046 29.3862 38.0198C28.7404 39.35 27.8899 40.4474 26.7599 41.3496C25.3012 42.5136 22.2618 43.8257 19.5043 43.2504L17.9903 42.7831C17.9451 42.7661 17.8976 42.749 17.8524 42.732L16.6492 42.1345C15.2738 41.191 14.0409 39.9025 13.4354 38.3271C12.8928 36.9163 12.6064 35.2255 12.8826 33.7443L13.2232 31.4953C12.1056 32.0826 11.7781 33.8245 11.5114 35.0264C11.0645 37.0404 11.3177 38.9802 12.0419 40.7721L12.8178 42.3793C13.3981 43.3886 14.2173 44.131 15.1811 44.7392C15.5538 44.9742 15.7464 44.945 15.7614 45.504C14.4671 45.7011 13.4275 45.4798 12.1369 45.4533C10.743 45.4249 9.51086 45.8045 8.33973 45.7662C6.47073 45.7053 6.29212 45.6682 4.46232 45.8987C3.21356 46.0561 1.90187 45.4817 0.870911 46.3256C1.96028 46.6109 2.21237 46.4448 3.26631 46.3766C4.17368 46.3184 4.54409 46.5299 5.42583 46.6257C7.10905 46.8077 8.29978 46.466 10.145 46.7259C12.0027 46.9874 13.3069 46.6741 15.0432 46.7146C16.6255 46.7509 18.0257 47.0665 19.7462 47.0306C21.5282 46.9939 22.676 46.8421 24.4764 47.0272C26.1392 47.1978 27.6785 47.2501 29.3489 47.1978C32.7851 47.0911 35.6025 47.3961 38.952 47.4003C42.2548 47.4048 45.0308 47.2713 48.3663 47.4567C51.6634 47.6395 54.8622 47.5872 58.1578 47.4658C61.3864 47.3473 64.5486 47.6296 67.7609 47.7133C71.0539 47.7984 74.4471 47.6255 77.6975 47.7602C78.2525 46.7808 79.2695 46.3384 80.1441 45.3121C80.1773 45.2731 80.2104 45.2361 80.2436 45.1952L80.452 44.9095C80.4829 44.8671 80.5288 44.8073 80.559 44.7517C78.9884 45.0537 76.5335 44.8425 74.8537 44.8364L75.6879 44.3021C76.1593 43.9275 76.2155 43.9884 76.6544 43.6262L78.3143 41.4537C79.2699 39.8499 80.0831 37.3061 79.7281 35.4665L79.3882 33.5956C79.1282 32.5882 78.7247 31.742 78.1998 30.9462C77.5332 29.9354 76.7569 28.3959 75.5372 28.1337C75.6631 29.0476 75.9818 29.0828 76.3383 29.6928L76.5354 30.0618C76.5557 30.1008 76.5798 30.1477 76.6002 30.1863L77.0746 31.1392C78.0181 33.1717 78.1142 35.7958 77.2566 37.8722L76.1488 39.862C76.1017 39.9305 75.9453 40.1522 75.9257 40.1757L74.0194 41.8824C73.9874 41.9051 73.944 41.9369 73.9124 41.9596C73.8811 41.9816 73.8385 42.0141 73.808 42.0361C73.7779 42.0573 73.7357 42.0898 73.7051 42.1106L71.6583 43.1112C69.7659 43.77 67.2375 43.7148 65.4326 43.0075C65.3934 42.9923 65.3463 42.9712 65.3071 42.9549C65.2672 42.9386 65.2197 42.9182 65.1794 42.9011L61.5529 40.2204C61.5303 40.1897 61.4983 40.1466 61.4757 40.1155L61.2447 39.8011C61.2228 39.7696 61.1919 39.7257 61.1708 39.694C61.1497 39.6622 61.1211 39.6168 61.1004 39.5842C61.0796 39.5513 61.0529 39.5047 61.0329 39.4714C61.0126 39.4381 60.9862 39.3912 60.9666 39.3575C60.863 39.1785 60.7729 39.0181 60.6535 38.7672C59.789 36.9496 59.5347 34.7691 60.0012 32.8538C60.1108 32.4031 60.0841 32.5507 60.2137 32.1836L60.3132 31.9153C60.3298 31.8707 60.3471 31.8238 60.3637 31.7787C60.7266 30.8183 61.2654 30.1246 61.863 29.308C62.4135 28.5556 62.3947 28.3888 63.166 27.9097C63.5319 27.6826 63.4166 27.736 63.7071 27.504L64.7434 26.7494L65.5313 28.3184C62.923 29.5785 61.5277 31.6947 61.5156 34.7127C61.5107 35.9384 61.5906 36.7562 62.1223 37.7553C62.1351 37.7795 62.3785 38.1863 62.3973 38.2162C63.2968 39.6319 64.3104 40.6332 66.0453 40.9712C65.7043 40.3233 65.0109 39.8597 64.5441 39.2194L64.2516 38.7865C64.2302 38.7513 64.2042 38.7055 64.1831 38.6692L63.8047 37.9339C63.6521 37.6065 63.8063 37.9672 63.6405 37.56C63.0311 36.0637 62.8623 34.125 63.634 32.7206L63.7652 32.497C64.4065 31.4317 65.4058 30.819 66.2672 29.9861C66.2363 30.3888 66.3343 30.4258 66.3852 30.5719C66.4247 30.6847 66.4926 30.8281 66.5427 30.9439L66.6568 31.1986C68.0439 34.3744 67.337 34.9632 69.3725 34.6862C69.527 33.9362 69.5044 33.2217 69.2444 32.4936L67.6196 27.9263C67.5996 27.8726 67.5424 27.7201 67.522 27.6678C67.3306 27.1797 67.2157 26.9659 67.0224 26.3801L66.8867 25.9509C66.8667 25.8926 66.8094 25.722 66.788 25.6652C66.7703 25.6187 66.7503 25.5729 66.7318 25.5271C66.3279 24.5125 66.0151 24.5852 67.4523 24.6185L68.1226 25.7424C68.6698 25.7303 69.2188 25.7235 69.7629 25.7087C70.7268 25.6826 70.3703 25.6088 71.1869 25.8362C71.6421 25.963 71.9224 26.0603 72.3644 26.2574L72.9643 26.539C73.6561 26.8092 72.8155 26.6075 73.8687 26.8107C73.8438 26.7483 73.8159 26.592 73.8001 26.6211C73.7846 26.6495 73.7534 26.4868 73.7319 26.4376C73.4022 25.6902 72.7767 24.9163 72.0151 24.6253C72.3901 24.4917 73.4677 23.2243 73.542 22.6941C71.0603 21.9479 65.107 23.0177 61.9991 24.673C60.346 25.5532 59.1571 26.9292 58.0056 28.3479C57.8892 28.4913 57.7136 28.7536 57.5508 28.9927L54.7141 36.4198C54.4417 35.9267 54.9067 36.1999 54.5329 35.3662C52.119 34.8251 49.4941 36.066 49.0966 35.2595C50.3906 35.4877 50.4983 35.3715 51.729 35.1509C52.9179 34.9379 53.5498 35.4268 54.7134 35.0506L54.8102 33.6202L52.1759 33.6258C52.584 32.8149 54.1998 33.177 54.9553 33.1097L55.1501 32.5163C55.3521 31.8487 55.5457 31.5642 55.4233 30.8818C52.7057 30.8705 53.6327 31.0124 51.2919 30.6684C52.1714 30.6529 52.538 30.564 53.358 30.4205C54.291 30.2574 54.7153 30.4576 55.6204 30.4535L56.2696 29.3125C56.4034 28.9034 56.2896 29.4896 56.4607 28.578C55.4625 28.5072 50.7305 28.7918 50.3416 28.3748C50.6687 27.9925 51.2278 28.4009 52.3579 28.2086C53.5192 28.0115 53.237 27.9589 54.5295 28.0697C56.0737 28.2026 57.5647 28.0171 57.6502 26.2805L50.1705 26.3214C49.4904 26.3433 49.5427 26.4262 49.074 26.1503C49.0355 26.128 48.8547 25.9505 48.7876 25.9044L48.4583 25.7708C49.2997 25.7087 50.045 25.5134 50.7666 25.4495C51.6182 25.3738 52.529 25.5906 53.4469 25.5615C54.3686 25.532 55.152 25.2849 55.9851 25.2501C56.9441 25.2103 57.7803 25.4014 58.8176 25.3432C59.0079 24.9886 59.0234 24.9129 59.3097 24.5829C59.9624 23.8328 59.5656 24.7222 59.968 23.6149L48.9161 23.6361C48.4538 23.6387 47.5223 23.6996 47.1168 23.652C46.2102 23.5468 46.6801 23.1967 46.1529 23.1922C46.8824 23.1293 47.5807 22.9129 48.2032 22.8871C49.0631 22.8512 49.785 23.0745 50.7342 22.9908C51.5613 22.9182 52.0813 22.6779 52.8971 22.7093C53.8851 22.7479 54.3886 22.9072 55.4474 22.7642C57.8198 22.4436 58.6857 22.7861 60.1444 22.5159C60.9602 22.3649 61.7398 22.4327 62.2979 22.318C62.7101 22.2336 62.8763 22.0686 63.1951 21.921L64.1348 21.5854C63.6461 21.0665 63.9958 21.0503 62.3227 21.0699L48.7341 21.4185C49.3272 20.8338 52.0625 20.1239 52.6827 19.9316C52.7803 19.9013 52.9299 19.8548 53.0893 19.8026L56.9905 18.654C57.3021 18.5787 57.7283 18.494 58.0504 18.4168C60.3708 17.8605 62.6641 17.2179 65.0433 16.9401L66.2503 16.4361C64.4137 16.1882 58.5757 16.8705 57.4811 16.3093C58.4054 14.9144 61.2552 16.6866 61.8544 14.8792C61.8732 14.8228 61.9128 14.6499 61.9203 14.5924C62.0884 13.3072 59.9579 11.5748 57.5447 13.5044C57.0364 13.9108 56.4049 14.4573 56.2368 15.0817L56.2934 13.6258C54.8196 13.0253 53.098 13.2077 51.6341 12.5299C51.6001 12.5708 51.5519 12.5795 51.5353 12.6544L50.9494 13.5369C51.1619 12.7324 50.8989 12.4126 50.1927 12.2544L48.6448 12.3899C48.251 12.5863 47.6553 13.328 47.826 13.7628C47.4107 13.3749 47.5404 12.8565 47.7337 12.198L47.9827 11.2425C46.474 11.9433 47.0573 12.7831 46.3798 13.2168C45.7999 12.2627 46.2991 11.1634 46.4457 10.0383C45.6065 10.1341 45.5376 10.2677 44.92 10.6624C44.016 11.2395 42.0585 12.7339 41.5901 13.5801ZM26.6668 45.1816C30.8095 44.9852 34.7818 45.2743 38.9513 45.048C43.6437 44.7941 47.5513 45.1282 51.9969 45.0582L62.9094 44.7157C61.8758 44.7456 59.7894 42.4247 59.367 41.8238L58.5139 40.4769C58.1115 39.7117 57.706 39.0325 57.7335 38.2646L56.5353 41.6198C56.5247 41.6622 56.51 41.7295 56.4938 41.7833C50.9516 42.0232 46.4118 41.6327 40.9326 41.6353C39.9472 41.6357 39.0926 41.1838 38.1969 40.7165L32.4889 37.9085L31.438 40.4425C31.4195 40.4765 31.3943 40.5235 31.3754 40.5572L31.1825 40.8924C31.1641 40.9227 30.9952 41.1963 30.9805 41.2202L30.4669 41.9869C29.358 43.4018 28.3116 44.4205 26.6668 45.1812V45.1816Z" fill="#626262" stroke="#626262" stroke-width="0.20004" stroke-miterlimit="22.9256"/>
<path fill-rule="evenodd" clip-rule="evenodd" d="M55.6441 3.77716C55.3072 6.26496 55.0386 5.36089 57.6567 8.45417C57.9984 8.85833 57.9483 8.44206 57.977 8.84963L53.6463 5.69126C53.0848 5.34689 54.3701 5.86647 53.1025 5.42068C53.2932 6.1484 53.3433 6.13932 53.7642 6.70658L56.2048 9.53497C56.6201 9.24358 56.5511 9.89296 55.6388 9.22428L53.6033 7.61444C53.5098 7.50356 53.2702 7.18908 53.1899 7.12361C52.5784 6.6222 53.2167 6.98662 52.3854 6.68009C52.8497 8.33232 53.361 8.366 53.4469 8.99646C52.3813 8.82087 50.894 9.26704 50.0236 9.75635L49.1098 10.509C49.6464 10.9295 49.961 10.8148 50.7761 11.3579C51.622 11.9213 53.2894 11.9581 54.1832 11.804C54.525 11.7454 54.5581 11.7189 54.7134 11.636L54.6098 10.1151L55.2703 10.4621C55.8936 10.816 57.7731 11.692 58.338 11.5221C59.289 10.8648 59.6368 10.6264 60.0057 9.3957C60.236 8.62636 60.2996 6.8678 60.2495 5.78814C59.7902 5.52059 59.8109 5.3817 59.4171 5.03733C59.0795 4.7414 58.7313 4.51926 58.3632 4.27215L57.1171 3.6765C56.5775 3.57167 56.0579 3.63676 55.6437 3.7764L55.6441 3.77716Z" fill="#626262" stroke="#626262" stroke-width="0.20004" stroke-miterlimit="22.9256"/>
<path fill-rule="evenodd" clip-rule="evenodd" d="M14.8021 1.13611C16.2562 1.76392 35.2088 1.97395 39.3514 2.07461C41.503 2.12684 45.7497 1.93762 47.6101 2.26004L47.179 3.47632C39.5561 3.54595 29.1281 3.6871 21.4815 4.12116C19.2006 4.25096 15.2324 4.20441 13.23 4.67442L43.8005 5.55806C43.6833 6.15598 43.4436 5.95768 42.7111 6.29713C40.333 7.39836 40.7246 6.90981 37.1795 6.99685C34.4152 7.06459 31.6403 7.09751 28.8787 7.20271C23.4616 7.40933 18.098 7.58947 12.6889 7.89978C14.3111 8.52684 34.59 8.71227 38.0096 8.7433C37.8958 9.4695 36.5152 10.3225 36.0875 10.4069L25.4045 10.7051C22.8011 10.797 12.8634 10.872 11.1816 11.4313L34.4246 12.0845C34.1556 12.6722 33.157 13.703 32.6664 14.3804C32.8371 14.5128 32.5375 14.369 32.9991 14.5757L34.4649 14.9526C35.8693 11.2901 45.6619 5.9486 49.467 5.2432C49.6991 2.96317 50.4098 1.68256 52.3971 1.09637C54.8208 0.380763 56.2982 1.69808 57.8797 2.38871C56.3224 -0.234942 52.2946 0.00119834 48.5913 0.0083885C36.8351 0.029959 26.3676 0.699779 14.8028 1.13573L14.8021 1.13611Z" fill="#E6000A"/>
<path fill-rule="evenodd" clip-rule="evenodd" d="M40.7204 12.9246L43.2405 13.6198C43.7726 13.7534 44.0439 13.8298 44.4859 13.9812C46.2008 14.5677 47.7133 15.6667 46.7227 17.2701C46.4239 17.7541 46.1963 17.7185 46.2053 18.0546C46.145 17.0892 46.5761 16.2782 44.8522 16.7236C44.7851 16.7411 44.5993 16.8061 44.5375 16.8281C44.484 16.8466 44.4414 16.8633 44.391 16.8833L43.5416 17.4336C44.3559 16.5518 44.833 16.4046 45.1476 15.6822C44.1238 15.9199 43.247 16.3127 42.384 16.883L42.1071 17.0037C42.5272 16.2101 43.1211 15.8892 43.4112 15.0332C42.5133 15.1479 43.1584 15.0279 42.5532 15.2625C42.0359 15.4627 42.843 15.2175 42.2345 15.4169C41.1353 15.7768 43.0009 15.4979 41.9473 15.465C40.1997 15.4101 38.7855 14.6044 36.2714 15.1392L36.6154 15.3802C37.3634 15.7658 38.6088 15.627 39.3515 16.2264C38.5771 16.4126 36.9598 15.8745 35.5826 16.2192C35.1643 16.324 34.858 16.4822 34.4261 16.3607C34.2027 16.2983 34.096 16.2184 33.9502 16.1583C33.5662 16.0005 33.7671 16.0803 33.3955 15.9482C30.3354 14.8633 26.8586 13.7923 23.5901 13.5607C22.8783 13.5108 22.9051 13.6576 22.0798 13.5127C20.9102 13.3076 20.1943 13.2281 19.0009 13.4253C19.4339 14.0069 22.2852 14.7361 23.67 15.2304L28.8274 17.1751C29.0373 17.2595 29.1391 17.3004 29.3429 17.3833L33.7343 19.2966C33.3857 19.4597 33.3903 19.364 33.1318 19.3087L32.4524 19.0972C32.4057 19.082 32.3586 19.068 32.3115 19.0536L25.5292 17.1263C23.7823 16.6605 21.9969 16.0451 20.1329 15.8256C20.2485 16.4947 20.5658 17.0033 20.934 17.5747C20.9558 17.608 20.9845 17.6531 21.0059 17.6871C21.5953 18.6037 21.9657 18.9352 23.0479 19.3231L25.0736 20.1806C25.1075 20.1969 25.1539 20.2211 25.1878 20.2377C25.2225 20.2548 25.2688 20.279 25.3042 20.296L29.2084 22.2275C29.9741 22.6722 31.7707 23.8536 32.556 24.1617C31.9885 24.0917 31.2281 25.7193 30.6539 26.033L30.7556 26.3115C31.4602 26.1897 27.7283 24.1008 27.4114 23.9842C27.0933 23.8676 27.3104 23.943 27.1431 23.8896L24.0619 24.1011L26.3642 25.4256C26.7357 25.6883 26.498 25.4514 26.6845 25.6625C26.1732 25.8109 25.5541 25.5914 24.9843 25.4756C24.0189 25.2792 23.4349 25.4385 22.4325 25.4131L29.2449 30.1367C28.6289 30.5068 28.3685 30.5571 27.9555 31.1539L27.3673 32.1976C27.1518 32.6071 27.4053 32.257 27.1589 32.5783C27.1126 32.5397 27.0315 32.4092 27.0199 32.3967L25.6079 31.4495C25.5597 31.4226 25.4165 31.3447 25.3664 31.3182L19.3216 27.91C19.1241 27.8037 19.0782 27.781 18.8585 27.6497L14.709 25.4105C13.9083 26.4516 14.0432 26.9015 13.8668 28.3278L15.0798 28.7903C15.8116 29.2902 12.6022 31.605 14.3005 36.2506C14.5816 37.0192 14.7719 37.5467 15.6194 37.9142C15.4295 36.8712 14.7727 34.9189 15.3707 33.1785C15.512 32.7672 15.8127 32.2366 15.853 32.0027C15.8624 32.1015 15.3876 35.4147 16.3625 36.8678C16.8308 37.566 16.3406 37.0673 17.0377 37.4741L16.844 35.3113C16.8847 33.6985 16.8968 31.6436 18.5141 30.6839C18.9391 31.1089 19.6592 31.3424 20.1796 31.6357C20.2124 31.6542 20.2595 31.6803 20.2926 31.6989L23.3501 33.3477C23.3987 33.3745 23.5392 33.4517 23.5897 33.4782C25.522 34.497 26.934 35.42 29.237 34.8822C29.3437 35.6671 28.8636 36.6491 28.5162 37.3643C27.8703 38.6938 27.0202 39.7916 25.8898 40.6938C24.4315 41.8578 21.3918 43.1702 18.6343 42.5946L17.1206 42.1272C17.0754 42.111 17.0279 42.0932 16.9823 42.0762L15.7792 41.4786C14.4038 40.5352 13.1709 39.2466 12.5653 37.6712C12.0231 36.2605 11.7363 34.57 12.0125 33.0885L12.3532 30.8398C11.2352 31.4268 10.9077 33.1687 10.6409 34.371C10.194 36.385 10.4472 38.3244 11.1715 40.1166L11.9473 41.7231C12.528 42.7327 13.3472 43.4748 14.3107 44.083C14.6834 44.318 14.8759 44.2892 14.8914 44.8482C13.597 45.0453 12.5574 44.8232 11.2668 44.7974C9.87261 44.7691 8.6408 45.1486 7.46967 45.1104C5.60068 45.0495 5.42169 45.012 3.59226 45.2425C2.34313 45.3999 1.03144 44.8258 0.000854492 45.6693C1.09022 45.9551 1.34231 45.7893 2.39588 45.7212C3.30325 45.6625 3.67365 45.8745 4.5554 45.9698C6.23862 46.1522 7.42973 45.8105 9.27498 46.0701C11.1323 46.3316 12.4364 46.0186 14.1728 46.0587C15.755 46.0955 17.1553 46.4107 18.8762 46.3755C20.6581 46.3388 21.8059 46.1867 23.6063 46.3717C25.2692 46.5428 26.8085 46.5946 28.4793 46.5428C31.9154 46.4357 34.7329 46.7411 38.0823 46.7452C41.3851 46.7498 44.1611 46.6162 47.4966 46.8008C50.7938 46.9836 53.9925 46.9314 57.2881 46.8107C60.5167 46.6919 63.6789 46.9745 66.8912 47.0574C70.1842 47.1426 73.5774 46.9696 76.8278 47.1051C77.3825 46.1254 78.3995 45.6833 79.2744 44.6567C79.3076 44.6181 79.3408 44.5806 79.3739 44.5397L79.5823 44.2544C79.6132 44.2124 79.6592 44.1526 79.6893 44.0962C78.1188 44.3986 75.6638 44.187 73.984 44.181L74.8186 43.647C75.2896 43.272 75.3458 43.3333 75.7851 42.9711L77.445 40.7986C78.4006 39.1944 79.2138 36.6502 78.8588 34.8111L78.5189 32.9409C78.2585 31.9327 77.8554 31.0869 77.3305 30.2911C76.6635 29.2807 75.8873 27.7412 74.6679 27.479C74.7934 28.3929 75.1125 28.4281 75.469 29.0377L75.6657 29.4071C75.686 29.4461 75.7102 29.4922 75.7305 29.5316L76.2049 30.4837C77.1488 32.5166 77.2445 35.1403 76.3869 37.2167L75.2795 39.2065C75.232 39.275 75.076 39.4968 75.0564 39.5206L73.1501 41.2273C73.1181 41.25 73.0747 41.2815 73.0431 41.3042C73.0122 41.3265 72.9696 41.359 72.9387 41.3806C72.9086 41.4018 72.8663 41.4343 72.8362 41.4555L70.7894 42.4557C68.8974 43.1146 66.369 43.0597 64.564 42.352C64.5245 42.3369 64.4777 42.3157 64.4382 42.2994C64.3982 42.2835 64.3507 42.2627 64.3104 42.2457L60.6836 39.5653C60.661 39.5346 60.629 39.4911 60.6064 39.4601L60.3757 39.1464C60.3539 39.1146 60.323 39.071 60.3019 39.0393C60.2808 39.0071 60.2522 38.9621 60.2314 38.9291C60.2107 38.8962 60.1839 38.8497 60.164 38.8167C60.1436 38.7827 60.1173 38.7361 60.0977 38.7021C59.994 38.5235 59.904 38.3634 59.7845 38.1121C58.9201 36.2945 58.6658 34.1144 59.1323 32.1991C59.2419 31.7477 59.2152 31.8953 59.3452 31.5286L59.4446 31.2603C59.4612 31.216 59.4786 31.1687 59.4955 31.124C59.858 30.1636 60.3972 29.4699 60.9949 28.6529C61.5454 27.9006 61.5265 27.7337 62.2982 27.255C62.6641 27.0279 62.5488 27.0809 62.839 26.8489L63.8752 26.0947L64.6631 27.6637C62.0548 28.9235 60.6595 31.0396 60.6471 34.0576C60.6422 35.2837 60.7224 36.1011 61.2537 37.1002C61.2665 37.1244 61.51 37.5316 61.5288 37.5615C62.4279 38.9768 63.4419 39.9781 65.1763 40.3165C64.8353 39.6678 64.142 39.2046 63.6751 38.5643L63.3827 38.1318C63.3616 38.0966 63.3352 38.0504 63.3141 38.0145L62.9358 37.2788C62.7832 36.9515 62.9369 37.3121 62.7715 36.9057C62.1626 35.409 61.9938 33.4703 62.7651 32.0663L62.8963 31.8427C63.538 30.7774 64.5373 30.1643 65.3987 29.3314C65.3678 29.7341 65.4657 29.7715 65.5166 29.9176C65.5558 30.0296 65.624 30.1734 65.6741 30.2892L65.7879 30.5439C67.175 33.7197 66.4684 34.3085 68.5036 34.0319C68.6581 33.2818 68.6359 32.5674 68.3755 31.8389L66.751 27.272C66.7311 27.2183 66.6738 27.0654 66.6531 27.0131C66.4617 26.525 66.3467 26.3112 66.1534 25.7257L66.0182 25.2966C65.9982 25.2387 65.9409 25.0676 65.9194 25.0105C65.9017 24.964 65.8814 24.9185 65.8633 24.8728C65.4593 23.8578 65.1466 23.9308 66.5837 23.9638L67.2541 25.0881C67.8008 25.0756 68.3502 25.0692 68.8944 25.0544C69.8579 25.0279 69.5018 24.9541 70.3183 25.1819C70.7735 25.3087 71.0539 25.4056 71.4963 25.6027L72.0961 25.8843C72.7876 26.1549 71.9473 25.9528 73.0001 26.1564C72.9753 26.0939 72.9477 25.9377 72.9319 25.9664C72.9165 25.9948 72.8852 25.8321 72.8637 25.7833C72.5344 25.0359 71.9085 24.262 71.1469 23.971C71.5219 23.837 72.5999 22.57 72.6738 22.0391C70.1921 21.2932 64.2388 22.3634 61.1313 24.0183C59.4782 24.8985 58.2893 26.2745 57.1378 27.6932C57.0217 27.8366 56.8461 28.0992 56.6834 28.3384L53.8467 35.7651C53.5743 35.272 54.0393 35.5452 53.6655 34.7115C51.2516 34.1704 48.6267 35.4116 48.2288 34.6048C49.5228 34.833 49.6309 34.7168 50.8612 34.4966C52.0501 34.2832 52.682 34.7721 53.8456 34.3956L53.9424 32.9651L51.3081 32.9715C51.7166 32.1602 53.332 32.5227 54.0875 32.455L54.2823 31.8623C54.4843 31.1944 54.6776 30.9098 54.5555 30.2279C51.8379 30.2166 52.7649 30.3585 50.4241 30.0145C51.3036 29.999 51.6702 29.91 52.4902 29.7666C53.4232 29.6031 53.8475 29.8037 54.7526 29.7995L55.4022 28.6582C55.536 28.2491 55.4222 28.8353 55.5929 27.9236C54.5947 27.8529 49.8627 28.1375 49.4738 27.7204C49.8009 27.3382 50.3601 27.7469 51.4901 27.5547C52.6518 27.3568 52.3692 27.3042 53.6621 27.4158C55.2059 27.5486 56.6973 27.3628 56.7828 25.6262L49.3031 25.6671C48.6229 25.6894 48.6749 25.7719 48.2062 25.4964C48.1681 25.4733 47.9869 25.2962 47.9198 25.2504L47.5905 25.1165C48.4319 25.0544 49.1772 24.8595 49.8992 24.7952C50.7508 24.7195 51.6616 24.9363 52.5791 24.9072C53.5008 24.878 54.2842 24.6306 55.1173 24.5961C56.0763 24.5564 56.9125 24.7475 57.9498 24.6888C58.1401 24.3342 58.1552 24.2586 58.4419 23.9289C59.0946 23.1785 58.6978 24.0678 59.1002 22.9605L48.0483 22.9817C47.586 22.9844 46.6545 23.0453 46.249 22.998C45.3424 22.892 45.8123 22.5424 45.2851 22.5382C46.0146 22.4746 46.7129 22.2589 47.3354 22.2324C48.1953 22.1965 48.9172 22.4201 49.8664 22.3365C50.6935 22.2635 51.2135 22.0236 52.0293 22.055C53.0173 22.0932 53.5208 22.2529 54.58 22.1098C56.9524 21.7893 57.8183 22.131 59.277 21.8616C60.0928 21.7106 60.872 21.7783 61.4304 21.6637C61.8423 21.5789 62.0085 21.4143 62.3276 21.2659L63.2674 20.9303C62.7787 20.4114 63.1284 20.3959 61.4553 20.4149L47.8667 20.7634C48.4598 20.1791 51.1951 19.4688 51.8153 19.2773C51.9129 19.247 52.0621 19.2005 52.2219 19.1482L56.1234 17.9997C56.4347 17.9244 56.8608 17.8396 57.183 17.7621C59.5034 17.2058 61.7967 16.5636 64.1759 16.2858L65.3828 15.7817C63.5466 15.5335 57.7083 16.2162 56.6136 15.6542C57.538 14.2593 60.3882 16.0319 60.9869 14.2245C61.0058 14.1677 61.0453 13.9952 61.0529 13.9377C61.2213 12.6521 59.0904 10.9201 56.6777 12.8497C56.169 13.2561 55.5378 13.8026 55.3698 14.4266L55.4259 12.9711C53.9522 12.3706 52.2309 12.5522 50.7666 11.8752C50.7327 11.9161 50.6845 11.9248 50.6679 11.9997L50.0816 12.8822C50.2945 12.0777 50.0311 11.7575 49.3253 11.5993L47.7774 11.7352C47.3836 11.9316 46.7879 12.6729 46.9582 13.1078C46.5433 12.7202 46.6726 12.2014 46.8659 11.5433L47.1149 10.5878C45.6062 11.2886 46.1899 12.128 45.512 12.5621C44.9321 11.6077 45.4313 10.5083 45.5779 9.38287C44.7388 9.47862 44.6702 9.61296 44.0522 10.0069C43.1482 10.5844 41.1907 12.0788 40.7223 12.9246H40.7204ZM25.7971 44.5261C29.9398 44.3297 33.9118 44.6192 38.0812 44.3929C42.7737 44.1382 46.6816 44.4724 51.1269 44.4027L62.0394 44.0603C61.0058 44.0902 58.9197 41.7692 58.497 41.1687L57.6439 39.8215C57.2414 39.0563 56.836 38.3774 56.8635 37.6096L55.6656 40.9643C55.6547 41.0067 55.64 41.0745 55.6238 41.1282C50.0816 41.3674 45.5417 40.9768 40.0629 40.9802C39.0771 40.9806 38.2229 40.5288 37.3268 40.0614L31.6189 37.2527L30.5679 39.7867C30.5499 39.8215 30.5242 39.8676 30.5058 39.9013L30.3128 40.2366C30.2948 40.2676 30.1256 40.5412 30.1109 40.5643L29.5976 41.3314C28.4887 42.7464 27.4419 43.7647 25.7975 44.5253L25.7971 44.5261Z" fill="url(#paint0_linear)"/>
</g>
<defs>
<linearGradient id="paint0_linear" x1="51.108" y1="59.2043" x2="50.8922" y2="-17.1443" gradientUnits="userSpaceOnUse">
<stop stop-color="#232E3B"/>
<stop offset="1" stop-color="#FEFEFE"/>
</linearGradient>
<clipPath id="clip0">
<rect width="81" height="48" fill="white"/>
</clipPath>
</defs>
</svg>
