<svg width="85" height="95" viewBox="0 0 85 95" fill="none" xmlns="http://www.w3.org/2000/svg">
<g filter="url(#filter0_d)">
<rect y="10" width="75" height="75" rx="2" fill="#323031"/>
<path d="M60.528 29.1157H31.2658C30.4613 26.7263 28.2012 25 25.544 25C22.8868 25 20.6267 26.7263 19.8222 29.1157H15.2546C14.1936 29.1157 13.3334 29.9759 13.3334 31.037C13.3334 32.098 14.1936 32.9582 15.2546 32.9582H19.8224C20.6269 35.3477 22.8869 37.074 25.5441 37.074C28.2014 37.074 30.4614 35.3477 31.2659 32.9582H60.5281C61.5892 32.9582 62.4494 32.098 62.4494 31.037C62.4494 29.9759 61.5892 29.1157 60.528 29.1157ZM25.544 33.2315C24.334 33.2315 23.3495 32.247 23.3495 31.037C23.3495 29.827 24.334 28.8425 25.544 28.8425C26.754 28.8425 27.7385 29.827 27.7385 31.037C27.7385 32.247 26.754 33.2315 25.544 33.2315Z" fill="white"/>
<path d="M60.528 45.5787H55.9603C55.1558 43.1893 52.8956 41.463 50.2385 41.463C47.5814 41.463 45.3213 43.1893 44.5168 45.5787H15.2546C14.1936 45.5787 13.3334 46.439 13.3334 47.5C13.3334 48.561 14.1936 49.4213 15.2546 49.4213H44.5168C45.3213 51.8107 47.5815 53.537 50.2386 53.537C52.8957 53.537 55.1559 51.8107 55.9604 49.4213H60.5281C61.5892 49.4213 62.4494 48.561 62.4494 47.5C62.4494 46.439 61.5892 45.5787 60.528 45.5787ZM50.2386 49.6945C49.0286 49.6945 48.0442 48.71 48.0442 47.5C48.0442 46.29 49.0286 45.3055 50.2386 45.3055C51.4486 45.3055 52.4331 46.29 52.4331 47.5C52.4331 48.71 51.4486 49.6945 50.2386 49.6945Z" fill="white"/>
<path d="M60.528 62.0417H39.4974C38.6929 59.6523 36.4328 57.926 33.7756 57.926C31.1184 57.926 28.8583 59.6523 28.0538 62.0417H15.2546C14.1936 62.0417 13.3334 62.902 13.3334 63.963C13.3334 65.0241 14.1936 65.8843 15.2546 65.8843H28.0538C28.8583 68.2737 31.1184 70 33.7756 70C36.4328 70 38.6929 68.2737 39.4974 65.8843H60.5281C61.5892 65.8843 62.4494 65.0241 62.4494 63.963C62.4494 62.902 61.5892 62.0417 60.528 62.0417ZM33.7756 66.1576C32.5656 66.1576 31.5811 65.1732 31.5811 63.9631C31.5811 62.7531 32.5656 61.7687 33.7756 61.7687C34.9856 61.7687 35.9701 62.753 35.9701 63.963C35.9701 65.173 34.9856 66.1576 33.7756 66.1576Z" fill="white"/>
</g>
<defs>
<filter id="filter0_d" x="-10" y="0" width="95" height="95" filterUnits="userSpaceOnUse" color-interpolation-filters="sRGB">
<feFlood flood-opacity="0" result="BackgroundImageFix"/>
<feColorMatrix in="SourceAlpha" type="matrix" values="0 0 0 0 0 0 0 0 0 0 0 0 0 0 0 0 0 0 127 0"/>
<feOffset/>
<feGaussianBlur stdDeviation="5"/>
<feColorMatrix type="matrix" values="0 0 0 0 0.1625 0 0 0 0 0.1625 0 0 0 0 0.1625 0 0 0 0.5 0"/>
<feBlend mode="normal" in2="BackgroundImageFix" result="effect1_dropShadow"/>
<feBlend mode="normal" in="SourceGraphic" in2="effect1_dropShadow" result="shape"/>
</filter>
</defs>
</svg>
