<svg width="18" height="18" viewBox="0 0 18 18" fill="none" xmlns="http://www.w3.org/2000/svg"><g clip-path="url(#clip0)"><path d="M17.2063 9.39867C17.21 9.395 17.21 9.395 17.2136 9.39132C17.2247 9.37663 17.2357 9.3656 17.243 9.35091C17.2467 9.34723 17.2467 9.34356 17.2504 9.33988C17.2577 9.32519 17.2688 9.31049 17.2761 9.29579C17.2761 9.29212 17.2798 9.28844 17.2798 9.28844C17.2871 9.27375 17.2945 9.25905 17.3018 9.24068C17.3018 9.23701 17.3018 9.23701 17.3055 9.23333C17.3128 9.21863 17.3165 9.20026 17.3239 9.18189C17.3239 9.17822 17.3239 9.17454 17.3275 9.17454C17.3312 9.15617 17.3386 9.14148 17.3386 9.12311C17.3386 9.11576 17.3386 9.11208 17.3422 9.10473C17.3459 9.09004 17.3459 9.07534 17.3496 9.06064C17.3533 9.0386 17.3533 9.02023 17.3533 8.99818C17.3533 8.97614 17.3533 8.95777 17.3496 8.93572C17.3496 8.92102 17.3459 8.90633 17.3422 8.89163C17.3422 8.88428 17.3422 8.88061 17.3386 8.87326C17.3349 8.85489 17.3312 8.84019 17.3275 8.82182C17.3275 8.81814 17.3275 8.81447 17.3239 8.81447C17.3202 8.7961 17.3128 8.7814 17.3055 8.76303C17.3055 8.75936 17.3055 8.75936 17.3018 8.75568C17.2945 8.74099 17.2871 8.72262 17.2798 8.70792C17.2798 8.70424 17.2761 8.70057 17.2761 8.70057C17.2688 8.68587 17.2614 8.67118 17.2504 8.65648C17.2467 8.65281 17.2467 8.64913 17.243 8.64546C17.232 8.63076 17.2247 8.61606 17.2136 8.60504C17.21 8.60137 17.21 8.60137 17.2063 8.59769C17.1916 8.58299 17.1806 8.56462 17.1622 8.54993L13.5284 4.9198C13.2822 4.67363 12.8817 4.67363 12.6356 4.9198C12.3894 5.16597 12.3894 5.56646 12.6356 5.81263L15.1928 8.36989H5.02625C4.6772 8.36989 4.39429 8.6528 4.39429 8.99818C4.39429 9.34723 4.6772 9.63015 5.02625 9.63015H15.1965L12.6576 12.169C12.4114 12.4152 12.4114 12.8157 12.6576 13.0619C12.7789 13.1831 12.9405 13.2456 13.1022 13.2456C13.2639 13.2456 13.4255 13.1831 13.5468 13.0619L17.1585 9.45011C17.1769 9.42807 17.1916 9.41337 17.2063 9.39867Z" fill="#323031"/><path d="M4.0673 1.26026H8.7703C9.11935 1.26026 9.40227 0.977342 9.40227 0.631966C9.40227 0.282915 9.11935 0 8.7703 0H4.0673C2.18243 0 0.646606 1.53582 0.646606 3.4207V14.5793C0.646606 16.4642 2.18243 18 4.0673 18H8.69314C9.0422 18 9.32511 17.7171 9.32511 17.3717C9.32511 17.0227 9.0422 16.7397 8.69314 16.7397H4.0673C2.87686 16.7397 1.90686 15.7697 1.90686 14.5793V3.4207C1.91054 2.22658 2.87686 1.26026 4.0673 1.26026Z" fill="#323031"/></g><defs><clipPath id="clip0"><rect width="18" height="18" fill="white"/></clipPath></defs></svg>
