<svg width="11" height="13" viewBox="0 0 11 13" fill="none" xmlns="http://www.w3.org/2000/svg">
<g clip-path="url(#clip0_1104_6108)">
<path d="M2.00264 13C1.85347 12.9682 1.7043 12.946 1.56148 12.9048C0.634716 12.6445 0.0507305 11.9304 0.00947069 10.9592C-0.0317892 9.95311 0.0761212 8.96288 0.460155 8.02342C0.707714 7.41722 1.06318 6.89037 1.66621 6.56981C2.03755 6.37303 2.43428 6.27782 2.85005 6.28734C2.98018 6.29051 3.11983 6.35716 3.23726 6.42064C3.43086 6.52538 3.6086 6.6555 3.79586 6.76976C4.88448 7.44261 5.96993 7.43944 7.05856 6.76659C7.2109 6.67455 7.36325 6.58251 7.50607 6.47777C7.76632 6.28417 8.05197 6.25878 8.35983 6.30321C9.20407 6.42699 9.79758 6.89037 10.2007 7.6267C10.5593 8.28368 10.7212 8.99779 10.791 9.73412C10.8291 10.1118 10.8449 10.4927 10.8418 10.8735C10.8291 12.0066 10.0483 12.8508 8.9216 12.9746C8.89303 12.9778 8.86764 12.9905 8.83908 12.9968C6.55709 13 4.28145 13 2.00264 13Z" fill="#B5B5B5"/>
<path d="M8.47095 3.12624C8.48365 4.84011 7.06812 6.25881 5.34473 6.26516C3.62134 6.2715 2.20581 4.84963 2.20264 3.14211C2.20264 1.41555 3.58325 0.0127201 5.32251 2.48413e-05C7.05543 -0.0126705 8.46143 1.38381 8.47095 3.12624Z" fill="#B5B5B5"/>
</g>
<defs>
<clipPath id="clip0_1104_6108">
<rect width="10.8386" height="13" fill="white"/>
</clipPath>
</defs>
</svg>
