<svg width="142" height="13" viewBox="0 0 142 13" fill="none" xmlns="http://www.w3.org/2000/svg">
<path d="M136.712 2.74716C136.556 2.59863 136.31 2.60449 136.162 2.76062C136.013 2.91676 136.02 3.16385 136.175 3.31257L139.162 6.15251H0.561005C0.346087 6.15251 0.171661 6.32739 0.171661 6.54286C0.171661 6.75833 0.346087 6.9332 0.561005 6.9332H139.149L136.175 9.77334C136.019 9.92206 136.013 10.1692 136.162 10.3253C136.238 10.4057 136.341 10.4463 136.444 10.4463C136.54 10.4463 136.637 10.4106 136.712 10.3386L140.109 7.0948C140.256 6.94745 140.337 6.7515 140.337 6.54286C140.337 6.33422 140.256 6.13827 140.102 5.98428L136.712 2.74716Z" fill="#323031"/>
</svg>
