<svg width="13" height="11" viewBox="0 0 13 11" fill="none" xmlns="http://www.w3.org/2000/svg">
<g clip-path="url(#clip0_1143_2442)">
<path d="M10.5784 9.18959C10.5784 9.62454 10.5784 10.052 10.5784 10.4758C10.5784 10.9182 10.2535 11.119 9.85683 10.9219C8.74232 10.3755 7.6316 9.82528 6.5171 9.28253C6.43776 9.24164 6.33953 9.21933 6.24886 9.21933C5.13436 9.21562 4.01986 9.21933 2.90536 9.21562C1.48106 9.20818 0.336336 8.28997 0.0567658 6.93309C0.018986 6.75093 0.00765212 6.56506 0.00387415 6.37919C9.61733e-05 5.20075 -0.0036818 4.01859 0.00387415 2.84015C0.0114301 1.45354 0.952145 0.327143 2.32733 0.0520506C2.49734 0.0185933 2.6749 0.00372343 2.84869 0.00372343C5.2817 5.96093e-06 7.71094 -0.00742898 10.144 0.00372343C11.538 0.0111584 12.6714 0.944243 12.9434 2.28997C12.985 2.49443 12.9925 2.70633 12.9925 2.9145C12.9963 4.03718 12.9774 5.16357 13.0001 6.28625C13.0303 7.76209 11.98 8.92565 10.6653 9.16729C10.6389 9.17472 10.6162 9.18216 10.5784 9.18959ZM9.67171 9.83272C9.67171 9.47956 9.67171 9.1487 9.67171 8.82156C9.67171 8.51301 9.84171 8.33829 10.1553 8.32342C10.2384 8.31971 10.3253 8.31971 10.4084 8.30484C11.402 8.14127 12.0783 7.36803 12.0821 6.37547C12.0858 5.19703 12.0821 4.01487 12.0821 2.83644C12.0821 2.73606 12.0783 2.63198 12.0594 2.5316C11.8856 1.55019 11.1036 0.895916 10.0873 0.895916C7.68827 0.892199 5.28926 0.895916 2.89024 0.895916C2.78068 0.895916 2.67112 0.899634 2.56534 0.918221C1.57173 1.08551 0.903032 1.85874 0.903032 2.85502C0.899254 4.02603 0.903032 5.19703 0.903032 6.36803C0.903032 6.47584 0.90681 6.58365 0.921921 6.68774C1.09193 7.66543 1.87775 8.32342 2.89024 8.32714C4.05764 8.33086 5.22125 8.32714 6.38865 8.33086C6.5171 8.33086 6.65311 8.36432 6.76644 8.41636C7.20847 8.62454 7.64671 8.84387 8.08496 9.05948C8.6101 9.31227 9.13146 9.56878 9.67171 9.83272Z" fill="#828282"/>
<path d="M6.19596 4.46469C7.28779 4.46469 8.37585 4.46469 9.46769 4.46469C9.66414 4.46469 9.81904 4.52788 9.91726 4.69889C10.0608 4.94796 9.91726 5.27138 9.63392 5.33829C9.56969 5.35316 9.50169 5.35688 9.43746 5.35688C7.27646 5.35688 5.11546 5.3606 2.95068 5.35316C2.84112 5.35316 2.724 5.32714 2.62955 5.2751C2.45576 5.18588 2.38398 4.9777 2.4331 4.79554C2.48599 4.60595 2.64088 4.47584 2.84112 4.46469C2.89401 4.46097 2.94312 4.46097 2.99601 4.46097C4.0614 4.46469 5.13057 4.46469 6.19596 4.46469Z" fill="#828282"/>
<path d="M6.20363 6.24905C7.29924 6.24905 8.39486 6.24905 9.49047 6.24905C9.82293 6.24905 10.0383 6.513 9.95516 6.8104C9.90982 6.97025 9.80404 7.07806 9.64159 7.11895C9.5698 7.13754 9.49047 7.14126 9.41869 7.14126C7.2728 7.14126 5.12313 7.14126 2.97725 7.14126C2.91302 7.14126 2.84502 7.13754 2.78079 7.12639C2.55789 7.08178 2.40677 6.88103 2.42566 6.65798C2.44455 6.43865 2.6259 6.26392 2.85635 6.25277C2.90924 6.24905 2.95836 6.25277 3.01125 6.25277C4.06908 6.24905 5.13825 6.24905 6.20363 6.24905Z" fill="#828282"/>
<path d="M4.68488 2.97028C4.08418 2.97028 3.48726 2.974 2.88657 2.97028C2.53144 2.96657 2.31232 2.632 2.46721 2.33088C2.56544 2.14129 2.73167 2.07809 2.93568 2.07809C3.88395 2.07809 4.83222 2.07809 5.78426 2.07809C5.99961 2.07809 6.21873 2.07809 6.43407 2.07809C6.74387 2.07809 6.95543 2.26025 6.95165 2.52791C6.95165 2.78813 6.74764 2.96657 6.44163 2.97028C5.85605 2.974 5.27046 2.97028 4.68488 2.97028Z" fill="#828282"/>
</g>
<defs>
<clipPath id="clip0_1143_2442">
<rect width="13" height="11" fill="white"/>
</clipPath>
</defs>
</svg>
