<svg width="18" height="18" viewBox="0 0 18 18" fill="none" xmlns="http://www.w3.org/2000/svg"><g clip-path="url(#clip0)"><path d="M17.4727 8.4727C17.1815 8.4727 16.9454 8.70881 16.9454 9.00004C16.9454 13.3811 13.3811 16.9453 9.0001 16.9453C4.61906 16.9453 1.05484 13.3811 1.05484 9.00004C1.05484 4.619 4.61906 1.05478 9.0001 1.05478C10.336 1.05478 11.6355 1.38647 12.7955 2.01851L12.1362 2.67779C11.9854 2.82861 11.9403 3.0554 12.0219 3.25249C12.1035 3.44954 12.2958 3.57803 12.5091 3.57803H15.0323C15.3236 3.57803 15.5597 3.34192 15.5597 3.05069V0.527435C15.5597 0.314143 15.4312 0.121875 15.2341 0.0402422C15.037 -0.0414253 14.8102 0.0037151 14.6594 0.15457L13.569 1.245C12.1878 0.42949 10.6173 0.000129181 9.00006 0.000129181C6.5961 0.000129181 4.33598 0.9363 2.63612 2.63613C0.936257 4.33603 0.00012207 6.59611 0.00012207 9.00008C0.00012207 11.404 0.936257 13.6641 2.63612 15.364C4.33602 17.0639 6.5961 18.0001 9.00006 18.0001C11.404 18.0001 13.6641 17.0639 15.364 15.364C17.0639 13.6641 18 11.404 18 9.00008C18 8.70881 17.7639 8.4727 17.4727 8.4727Z" fill="#323031"/><path d="M12.389 8.47302H9.52734V5.61132C9.52734 5.32009 9.29123 5.08398 9 5.08398C8.70876 5.08398 8.47266 5.32009 8.47266 5.61132V9.00036C8.47266 9.29159 8.70876 9.5277 9 9.5277H12.389C12.6802 9.5277 12.9163 9.29159 12.9163 9.00036C12.9163 8.70912 12.6802 8.47302 12.389 8.47302Z" fill="#323031"/></g><defs><clipPath id="clip0"><rect width="18" height="18" fill="white"/></clipPath></defs></svg>
