<svg width="22" height="22" viewBox="0 0 22 22" fill="none" xmlns="http://www.w3.org/2000/svg"><path fill-rule="evenodd" clip-rule="evenodd" d="M18.2957 3.6731C16.3661 1.74127 13.8 0.676914 11.0661 0.675781C5.43274 0.675781 0.848004 5.26039 0.845738 10.8953C0.844982 12.6965 1.31554 14.4549 2.20996 16.0048L0.76001 21.3008L6.17798 19.8795C7.67086 20.6939 9.35155 21.123 11.062 21.1235H11.0662C16.699 21.1235 21.2842 16.5386 21.2863 10.9034C21.2875 8.17249 20.2254 5.60481 18.2957 3.6731ZM11.0661 19.3975H11.0626C9.53836 19.3969 8.04348 18.9873 6.73905 18.2135L6.429 18.0293L3.21389 18.8727L4.07205 15.7381L3.87 15.4167C3.01965 14.0642 2.57062 12.5009 2.57137 10.8959C2.57313 6.21233 6.38393 2.40192 11.0695 2.40192C13.3385 2.40267 15.4713 3.28739 17.0751 4.89306C18.6789 6.49872 19.5616 8.63297 19.5608 10.9028C19.5588 15.5867 15.7483 19.3975 11.0661 19.3975ZM15.7256 13.0354C15.4703 12.9075 14.2147 12.2899 13.9806 12.2046C13.7467 12.1194 13.5763 12.0769 13.4062 12.3325C13.2359 12.588 12.7465 13.1633 12.5975 13.3336C12.4485 13.5041 12.2997 13.5255 12.0442 13.3976C11.7888 13.2698 10.966 13.0001 9.99054 12.1301C9.23145 11.4529 8.71898 10.6167 8.56993 10.3611C8.42113 10.1053 8.56867 9.98045 8.68197 9.83996C8.95841 9.49667 9.23523 9.13677 9.32033 8.96644C9.40555 8.796 9.36288 8.64682 9.29893 8.51905C9.23523 8.39128 8.72451 7.13431 8.51177 6.62284C8.30431 6.12509 8.09396 6.19232 7.9371 6.18451C7.78831 6.17708 7.61798 6.17557 7.44766 6.17557C7.27746 6.17557 7.00077 6.2394 6.76662 6.49519C6.5326 6.75087 5.87296 7.36859 5.87296 8.62555C5.87296 9.88251 6.78802 11.0968 6.91567 11.2672C7.04332 11.4377 8.71646 14.0171 11.2781 15.1231C11.8874 15.3865 12.363 15.5434 12.734 15.6611C13.3458 15.8555 13.9023 15.8281 14.3424 15.7623C14.8331 15.689 15.8531 15.1445 16.0661 14.5481C16.2789 13.9515 16.2789 13.4403 16.2149 13.3336C16.1512 13.2271 15.9809 13.1633 15.7256 13.0354Z" fill="#323031"/></svg>
