<svg width="22" height="22" viewBox="0 0 22 22" fill="none" xmlns="http://www.w3.org/2000/svg"><g clip-path="url(#clip0)"><path d="M21.2254 12.7356C21.8818 7.21089 20.9101 3.72297 19.1574 2.14539L19.1583 2.14447C16.3295 -0.549612 6.77601 -0.948362 3.39168 2.26547C1.87185 3.83756 1.33651 6.14481 1.27785 9.00114C1.21918 11.8584 1.14951 17.2108 6.1371 18.6628H6.14168L6.1371 20.8802C6.1371 20.8802 6.10318 21.7786 6.67701 21.9592C7.33335 22.1718 7.63035 21.7547 9.67176 19.3164C13.0854 19.6125 15.7071 18.9342 16.005 18.8352C16.6943 18.6042 20.5948 18.0881 21.2254 12.7356ZM10.0082 17.7562C10.0082 17.7562 7.8476 20.4503 7.17568 21.1497C6.95568 21.3771 6.7146 21.356 6.71826 20.905C6.71826 20.6089 6.73476 17.2236 6.73476 17.2236C2.50618 16.0118 2.75551 11.4541 2.80135 9.06989C2.84718 6.68473 3.28351 4.73131 4.57051 3.41589C7.5396 0.631973 15.9152 1.25439 18.0492 3.26006C20.658 5.57281 19.7294 12.1068 19.7349 12.3296C19.1987 16.7974 16.038 17.0806 15.4568 17.2741C15.2084 17.3566 12.903 17.9496 10.0082 17.7562Z" fill="#323031"/><path d="M11.2035 3.93945C10.8506 3.93945 10.8506 4.48945 11.2035 4.49404C13.9416 4.51512 16.1966 6.42362 16.2213 9.92437C16.2213 10.2938 16.7622 10.2892 16.7576 9.91979H16.7567C16.7273 6.1477 14.2652 3.96054 11.2035 3.93945Z" fill="#323031"/><path d="M14.8051 9.34264C14.7969 9.70747 15.3368 9.72489 15.3414 9.35547C15.3863 7.27556 14.1039 5.56231 11.6939 5.38172C11.341 5.35606 11.3043 5.91064 11.6563 5.93631C13.7464 6.09489 14.8473 7.52122 14.8051 9.34264Z" fill="#323031"/><path d="M14.2276 11.7094C13.7748 11.4473 13.3137 11.6104 13.123 11.868L12.7243 12.3841C12.5217 12.6463 12.1431 12.6114 12.1431 12.6114C9.38028 11.8809 8.64145 8.98968 8.64145 8.98968C8.64145 8.98968 8.60753 8.59827 8.86053 8.38835L9.3592 7.97585C9.60853 7.77785 9.7662 7.30118 9.51228 6.83277C8.83395 5.60718 8.37837 5.1846 8.14645 4.8601C7.90262 4.55485 7.53595 4.4861 7.15462 4.69235H7.14637C6.35345 5.15618 5.48537 6.02427 5.76312 6.91802C6.23703 7.86035 7.10787 10.8643 9.88353 13.1339C11.1879 14.2073 13.2523 15.3074 14.1286 15.5613L14.1369 15.5741C15.0004 15.8619 15.84 14.9599 16.2883 14.1432V14.1368C16.4872 13.7417 16.4212 13.3677 16.1306 13.1229C15.6154 12.6206 14.8381 12.066 14.2276 11.7094Z" fill="#323031"/><path d="M12.0716 7.42822C12.9525 7.47955 13.3797 7.93972 13.4255 8.8848C13.442 9.25422 13.9783 9.22855 13.9618 8.85914C13.9031 7.6253 13.2596 6.9378 12.1009 6.87363C11.748 6.85255 11.715 7.40713 12.0716 7.42822Z" fill="#323031"/></g><defs><clipPath id="clip0"><rect width="22" height="22" fill="white"/></clipPath></defs></svg>