<svg width="18" height="18" viewBox="0 0 18 18" fill="none" xmlns="http://www.w3.org/2000/svg">
<path d="M13.4426 17.4683L9.23497 14.7337L5.02661 17.4683C4.88434 17.5608 4.72504 17.6068 4.56587 17.6068C4.38064 17.6068 4.19606 17.5448 4.03895 17.4207C3.74666 17.1911 3.60994 16.7953 3.68952 16.4125L13.4426 17.4683ZM13.4426 17.4683C13.7512 17.6687 14.1393 17.6504 14.431 17.4207C14.7233 17.1911 14.86 16.7953 14.7804 16.4125L13.4426 17.4683ZM9.5979 0.776548L11.5264 5.68304L11.638 5.96714L11.9418 5.99711L16.8222 6.47862L16.8224 6.47863C16.9585 6.49201 17.1065 6.59751 17.1658 6.79535C17.2261 6.99754 17.1654 7.20731 17.0376 7.32932C17.0375 7.32936 17.0375 7.3294 17.0375 7.32944L13.3484 10.8448L13.1474 11.0363L13.2042 11.3081L14.2918 16.514C14.3355 16.7243 14.2559 16.9237 14.1227 17.0283L14.1223 17.0286C13.9971 17.1272 13.8423 17.1328 13.7145 17.0498C13.7144 17.0498 13.7144 17.0498 13.7143 17.0497L9.50691 14.3153L9.235 14.1386L8.96307 14.3153L4.75471 17.0498L4.75457 17.0499C4.69274 17.0901 4.62784 17.1077 4.56587 17.1077C4.49369 17.1077 4.41788 17.0841 4.34821 17.0291L4.34723 17.0283C4.21409 16.9237 4.13441 16.7243 4.17811 16.514L5.26576 11.3081L5.32255 11.0363L5.12154 10.8448L1.43239 7.32936C1.43238 7.32935 1.43237 7.32933 1.43236 7.32932C1.30458 7.20751 1.24395 6.99729 1.30393 6.79614C1.36383 6.59814 1.51186 6.49233 1.64838 6.47855C1.64844 6.47855 1.6485 6.47854 1.64856 6.47854L6.52891 5.99711L6.8327 5.96714L6.94436 5.68304L8.87312 0.775769L8.87321 0.775542C8.94699 0.587563 9.09874 0.499032 9.23497 0.499032C9.37098 0.499032 9.52321 0.587435 9.5979 0.776548Z" fill="#FEE43F" stroke="#DFC93B" stroke-width="0.998064"/>
</svg>
