<svg width="19" height="20" viewBox="0 0 19 20" fill="none" xmlns="http://www.w3.org/2000/svg">
<path d="M9.12698 19.0794C14.1689 19.0794 18.254 14.9943 18.254 9.95242C18.254 4.91053 14.1689 0.825439 9.12698 0.825439C4.08509 0.825439 0 4.91053 0 9.95242C0 14.9943 4.08509 19.0794 9.12698 19.0794ZM4.17636 9.75467L12.9763 6.36172C13.3847 6.21416 13.7414 6.46135 13.6091 7.07895L13.6099 7.07818L12.1115 14.1371C12.0005 14.6376 11.7031 14.7593 11.287 14.5235L9.00529 12.8419L7.90473 13.9021C7.78304 14.0238 7.68036 14.1265 7.44458 14.1265L7.60658 11.8044L11.8354 7.98404C12.0195 7.82203 11.7943 7.73076 11.5517 7.89201L6.32576 11.1823L4.07292 10.4795C3.58386 10.3243 3.57321 9.99045 4.17636 9.75467Z" fill="#828282"/>
</svg>
