<svg width="23" height="20" viewBox="0 0 23 20" fill="none" xmlns="http://www.w3.org/2000/svg">
<path d="M11.194 19.9484C10.8753 19.9484 10.568 19.833 10.3285 19.6232C9.42411 18.8324 8.55214 18.0892 7.78282 17.4336L7.77889 17.4302C5.52339 15.5081 3.57567 13.8482 2.22049 12.2131C0.705604 10.3851 0 8.65193 0 6.75853C0 4.91894 0.63079 3.2218 1.77605 1.97952C2.93498 0.722554 4.52519 0.0302734 6.25427 0.0302734C7.5466 0.0302734 8.73012 0.438844 9.77187 1.24454C10.2976 1.65123 10.7742 2.14896 11.194 2.72954C11.614 2.14896 12.0904 1.65123 12.6163 1.24454C13.6581 0.438844 14.8416 0.0302734 16.1339 0.0302734C17.8628 0.0302734 19.4532 0.722554 20.6121 1.97952C21.7574 3.2218 22.388 4.91894 22.388 6.75853C22.388 8.65193 21.6826 10.3851 20.1677 12.2129C18.8125 13.8482 16.865 15.508 14.6098 17.4299C13.8391 18.0865 12.9658 18.8308 12.0593 19.6235C11.82 19.833 11.5126 19.9484 11.194 19.9484ZM6.25427 1.34173C4.89584 1.34173 3.64793 1.88387 2.74009 2.8684C1.81875 3.86779 1.31129 5.24928 1.31129 6.75853C1.31129 8.35097 1.90313 9.77516 3.23013 11.3763C4.51272 12.924 6.42046 14.5497 8.62934 16.4322L8.63344 16.4356C9.40566 17.0937 10.281 17.8398 11.1921 18.6365C12.1087 17.8383 12.9854 17.091 13.7592 16.4318C15.9679 14.5494 17.8755 12.924 19.1581 11.3763C20.4849 9.77516 21.0767 8.35097 21.0767 6.75853C21.0767 5.24928 20.5693 3.86779 19.6479 2.8684C18.7403 1.88387 17.4922 1.34173 16.1339 1.34173C15.1388 1.34173 14.2252 1.65806 13.4184 2.28185C12.6995 2.838 12.1987 3.54104 11.9051 4.03297C11.7541 4.28593 11.4883 4.43692 11.194 4.43692C10.8997 4.43692 10.6339 4.28593 10.4829 4.03297C10.1895 3.54104 9.68869 2.838 8.96959 2.28185C8.16287 1.65806 7.24922 1.34173 6.25427 1.34173Z" fill="#F2F2F2"/>
</svg>
