<svg width="15" height="10" viewBox="0 0 15 10" fill="none" xmlns="http://www.w3.org/2000/svg">
<g clip-path="url(#clip0_1143_5989)">
<path d="M15 4.88827C14.9268 5.00965 14.8682 5.14207 14.7803 5.24873C13.722 6.57655 12.4988 7.72046 11.023 8.57011C10.0525 9.13287 9.01615 9.50805 7.89188 9.58529C6.97269 9.64782 6.0828 9.48965 5.22586 9.1623C3.92948 8.66943 2.8162 7.88598 1.79813 6.9554C1.20121 6.41103 0.655551 5.81517 0.161166 5.17517C-0.0512361 4.89931 -0.0548982 4.69333 0.161166 4.41747C1.22684 3.06023 2.46463 1.89793 3.95877 1.03356C5.13431 0.353102 6.38675 -0.0588518 7.76004 0.00367692C8.70487 0.0441367 9.59476 0.301608 10.4407 0.71724C12.2168 1.59264 13.6341 2.89471 14.8535 4.43954C14.9158 4.51678 14.9524 4.61977 15 4.70805C15 4.77057 15 4.82942 15 4.88827ZM1.11698 4.78896C1.17191 4.85517 1.20853 4.90667 1.25247 4.9508C1.71024 5.42161 2.14603 5.9108 2.62577 6.35586C3.55594 7.20919 4.58866 7.90069 5.79349 8.31264C6.51493 8.55908 7.25101 8.66207 8.01273 8.58115C8.98685 8.47448 9.86942 8.11034 10.7007 7.61011C11.781 6.95908 12.7076 6.12046 13.5462 5.18253C13.656 5.06115 13.7622 4.93241 13.8794 4.79264C13.5901 4.48 13.3228 4.17103 13.0335 3.87678C12.0667 2.89103 10.9973 2.04873 9.7266 1.49333C9.09305 1.21747 8.43021 1.03356 7.73441 1.00414C6.66873 0.952643 5.69095 1.25057 4.75711 1.73609C3.71341 2.27678 2.81253 3.00873 1.99222 3.84C1.69559 4.14161 1.41361 4.46529 1.11698 4.78896Z" fill="#828282"/>
<path d="M10.4627 4.81103C10.4517 6.46252 9.1114 7.79402 7.4781 7.77562C5.83747 7.75723 4.52277 6.42206 4.53376 4.78528C4.54475 3.13379 5.88508 1.80229 7.51838 1.82068C9.159 1.84275 10.4737 3.17425 10.4627 4.81103ZM9.47395 4.80367C9.48127 3.71126 8.60236 2.82482 7.50739 2.81379C6.42341 2.80275 5.51887 3.70758 5.52253 4.79999C5.52619 5.89241 6.40876 6.78252 7.49641 6.78252C8.58405 6.7862 9.47028 5.89976 9.47395 4.80367Z" fill="#828282"/>
</g>
<defs>
<clipPath id="clip0_1143_5989">
<rect width="15" height="9.6" fill="white"/>
</clipPath>
</defs>
</svg>
