<svg width="23" height="17" viewBox="0 0 23 17" fill="none" xmlns="http://www.w3.org/2000/svg">
<path d="M21.7885 3.30453C21.5321 2.35145 20.7807 1.60015 19.8278 1.34352C18.0869 0.867188 11.1231 0.867188 11.1231 0.867188C11.1231 0.867188 4.15965 0.867188 2.41875 1.32546C1.48414 1.58182 0.714379 2.35159 0.458017 3.30453C-0.00012207 5.04529 -0.00012207 8.65541 -0.00012207 8.65541C-0.00012207 8.65541 -0.00012207 12.2837 0.458017 14.0063C0.71465 14.9592 1.46581 15.7105 2.41889 15.9672C4.17798 16.4436 11.1234 16.4436 11.1234 16.4436C11.1234 16.4436 18.0869 16.4436 19.8278 15.9854C20.7808 15.7289 21.5321 14.9776 21.7888 14.0246C22.2468 12.2837 22.2468 8.67374 22.2468 8.67374C22.2468 8.67374 22.2651 5.04529 21.7885 3.30453ZM8.90602 11.9906V5.32026L14.6967 8.65541L8.90602 11.9906Z" fill="#828282"/>
</svg>
