<svg width="30" height="30" viewBox="0 0 30 30" fill="none" xmlns="http://www.w3.org/2000/svg">
<path d="M23.9722 3.71637C21.5757 1.31983 18.3893 0 15.0001 0C11.6109 0 8.42445 1.31983 6.02796 3.71637C3.63141 6.11298 2.31158 9.29932 2.31158 12.6884C2.31158 19.5446 8.79429 25.2473 12.2771 28.3109C12.761 28.7367 13.179 29.1043 13.512 29.4154C13.9292 29.8051 14.4647 29.9999 15 29.9999C15.5355 29.9999 16.0709 29.8051 16.4881 29.4154C16.8211 29.1043 17.2391 28.7367 17.7231 28.3109C21.2058 25.2472 27.6885 19.5446 27.6885 12.6884C27.6885 9.29932 26.3687 6.11298 23.9722 3.71637ZM16.5623 26.9915C16.0677 27.4266 15.6406 27.8023 15.2885 28.1312C15.1267 28.2822 14.8733 28.2823 14.7115 28.1312C14.3594 27.8022 13.9323 27.4265 13.4377 26.9914C10.1635 24.1113 4.06881 18.75 4.06881 12.6885C4.06881 6.66107 8.97248 1.75741 15 1.75741C21.0274 1.75741 25.9311 6.66107 25.9311 12.6885C25.9311 18.75 19.8365 24.1113 16.5623 26.9915Z" fill="#E6000A"/>
<path d="M15.0001 6.61719C11.9168 6.61719 9.40839 9.12553 9.40839 12.2088C9.40839 15.2921 11.9168 17.8004 15.0001 17.8004C18.0833 17.8004 20.5917 15.2921 20.5917 12.2088C20.5917 9.12553 18.0833 6.61719 15.0001 6.61719ZM15.0001 16.043C12.8858 16.043 11.1657 14.3229 11.1657 12.2087C11.1657 10.0946 12.8858 8.37448 15.0001 8.37448C17.1143 8.37448 18.8343 10.0946 18.8343 12.2087C18.8343 14.3229 17.1143 16.043 15.0001 16.043Z" fill="#E6000A"/>
</svg>
