<svg width="23" height="20" viewBox="0 0 23 20" fill="none" xmlns="http://www.w3.org/2000/svg"><path d="M11.194 19.9485C10.8753 19.9485 10.568 19.833 10.3285 19.6232C9.42411 18.8324 8.55214 18.0892 7.78282 17.4337L7.77889 17.4302C5.52339 15.5082 3.57567 13.8483 2.22049 12.2131C0.705604 10.3851 0 8.65196 0 6.75856C0 4.91897 0.63079 3.22183 1.77605 1.97955C2.93498 0.722585 4.52519 0.030304 6.25427 0.030304C7.5466 0.030304 8.73012 0.438874 9.77187 1.24457C10.2976 1.65126 10.7742 2.14899 11.194 2.72957C11.614 2.14899 12.0904 1.65126 12.6163 1.24457C13.6581 0.438874 14.8416 0.030304 16.1339 0.030304C17.8628 0.030304 19.4532 0.722585 20.6121 1.97955C21.7574 3.22183 22.388 4.91897 22.388 6.75856C22.388 8.65196 21.6826 10.3851 20.1677 12.2129C18.8125 13.8483 16.865 15.508 14.6098 17.4299C13.8391 18.0865 12.9658 18.8309 12.0593 19.6236C11.82 19.833 11.5126 19.9485 11.194 19.9485ZM6.25427 1.34176C4.89584 1.34176 3.64793 1.8839 2.74009 2.86843C1.81875 3.86783 1.31129 5.24931 1.31129 6.75856C1.31129 8.351 1.90313 9.77519 3.23013 11.3763C4.51272 12.924 6.42046 14.5498 8.62934 16.4322L8.63344 16.4356C9.40566 17.0938 10.281 17.8398 11.1921 18.6365C12.1087 17.8383 12.9854 17.091 13.7592 16.4319C15.9679 14.5494 17.8755 12.924 19.1581 11.3763C20.4849 9.77519 21.0767 8.351 21.0767 6.75856C21.0767 5.24931 20.5693 3.86783 19.6479 2.86843C18.7403 1.8839 17.4922 1.34176 16.1339 1.34176C15.1388 1.34176 14.2252 1.65809 13.4184 2.28188C12.6995 2.83803 12.1987 3.54107 11.9051 4.033C11.7541 4.28596 11.4883 4.43695 11.194 4.43695C10.8997 4.43695 10.6339 4.28596 10.4829 4.033C10.1895 3.54107 9.68869 2.83803 8.96959 2.28188C8.16287 1.65809 7.24922 1.34176 6.25427 1.34176Z" fill="#323031"/></svg>