<svg width="102" height="21" viewBox="0 0 102 21" fill="none" xmlns="http://www.w3.org/2000/svg">
<g clip-path="url(#clip0)">
<path d="M15.0849 0H7.72651C2.5755 0 0 2.45005 0 7.35016V13.6504C0 18.5505 2.5755 21.0005 7.72651 21.0005H15.0849C20.2359 21.0005 22.8114 18.5505 22.8114 13.6504V7.35016C22.8114 2.45005 20.2359 0 15.0849 0V0ZM19.1322 13.6498C19.1322 16.683 17.5383 18.1998 14.3493 18.1998H8.46269C5.27427 18.1998 3.67977 16.683 3.67977 13.6498V7.34963C3.67977 4.31597 5.27427 2.79968 8.46269 2.79968H14.3493C17.5383 2.79968 19.1322 4.31597 19.1322 7.34963V13.6498Z" fill="#F2F2F2"/>
<path d="M43.4392 11.9001H44.0831C48.2531 11.9001 50.3378 9.91693 50.3378 5.95005C50.3378 1.98317 48.2531 0 44.0831 0H28.9987V21H31.2062C32.1872 21 32.678 20.5331 32.678 19.5999V11.9001H39.1167L45.8926 19.5999C46.7205 20.5331 47.6098 21 48.5908 21H51.4421L43.4398 11.9001H43.4392ZM32.6774 9.09989V2.79968H43.3469C45.5543 2.79968 46.6581 3.84963 46.6581 5.94952C46.6581 8.04941 45.5543 9.09936 43.3469 9.09936H32.6774V9.09989Z" fill="#F2F2F2"/>
<path d="M52.7141 0V1.40011C52.7141 2.33333 53.2049 2.80021 54.1859 2.80021H62.2799V21H65.9591V2.80021H74.0537C75.0347 2.80021 75.5255 2.33333 75.5255 1.40011V0H52.7141V0Z" fill="#F2F2F2"/>
<path d="M84.7739 1.32515L83.6038 0H81.7645L71.4625 21H73.6395C74.6205 21 75.3561 20.5331 75.8159 19.5999L77.5326 16.0999H90.4281L88.3062 13.2997H78.8822L80.1599 10.7029L83.6038 3.70346L84.7739 1.32461V1.32515Z" fill="#F2F2F2"/>
<path d="M99.7925 0C98.8114 0 98.3207 0.466345 98.3207 1.40011V16.654L83.6038 0L82.9149 3.55943L98.3207 21H102V0H99.7925V0Z" fill="#F2F2F2"/>
</g>
<defs>
<clipPath id="clip0">
<rect width="102" height="21" fill="white"/>
</clipPath>
</defs>
</svg>
