<svg width="182" height="285" viewBox="0 0 182 285" fill="none" xmlns="http://www.w3.org/2000/svg">
<path opacity="0.05" d="M116.386 187.779H62.4893C62.4893 177.063 65.7439 166.479 72.2532 156.025C78.7625 145.571 86.4435 136.816 95.2961 129.759C117.167 111.988 128.103 95.784 128.103 81.1485C128.103 72.0014 124.979 64.945 118.73 59.9794C112.481 55.0138 103.758 52.5309 92.5622 52.5309C70.691 52.5309 55.1989 64.1609 46.0858 87.4209L0 60.7634C7.81116 41.685 20.1788 26.7882 37.103 16.0729C54.0272 5.35763 73.1645 0 94.515 0C117.948 0 138.388 6.92573 155.833 20.7772C173.278 34.3673 182 53.1843 182 77.2283C182 87.9436 179.657 98.1362 174.97 107.806C170.544 117.215 165.076 125.316 158.567 132.111C152.318 138.645 145.938 144.917 139.429 150.928C133.18 156.678 127.712 162.689 123.026 168.961C118.599 175.234 116.386 181.506 116.386 187.779ZM122.635 251.678C122.635 260.825 119.381 268.666 112.871 275.199C106.362 281.733 98.5508 285 89.4378 285C80.3247 285 72.5136 281.733 66.0043 275.199C59.495 268.666 56.2403 260.825 56.2403 251.678C56.2403 242.531 59.495 234.691 66.0043 228.157C72.5136 221.623 80.3247 218.356 89.4378 218.356C98.5508 218.356 106.362 221.623 112.871 228.157C119.381 234.691 122.635 242.531 122.635 251.678Z" fill="#E6000A"/>
</svg>
