<svg width="141" height="29" viewBox="0 0 141 29" fill="none" xmlns="http://www.w3.org/2000/svg">
<path d="M20.8527 0H10.6808C3.56025 0 0 3.38341 0 10.1502V18.8505C0 25.6173 3.56025 29.0007 10.6808 29.0007H20.8527C27.9732 29.0007 31.5335 25.6173 31.5335 18.8505V10.1502C31.5335 3.38341 27.9732 0 20.8527 0V0ZM26.4475 18.8498C26.4475 23.0384 24.2441 25.133 19.8358 25.133H11.6984C7.2909 25.133 5.08674 23.0384 5.08674 18.8498V10.1495C5.08674 5.96015 7.2909 3.86622 11.6984 3.86622H19.8358C24.2441 3.86622 26.4475 5.96015 26.4475 10.1495V18.8498Z" fill="#BDBDBD"/>
<path d="M60.0483 16.4335H60.9383C66.7028 16.4335 69.5846 13.6948 69.5846 8.21674C69.5846 2.73867 66.7028 0 60.9383 0H40.0864V29H43.1379C44.494 29 45.1724 28.3553 45.1724 27.0665V16.4335H54.073L63.4397 27.0665C64.5842 28.3553 65.8135 29 67.1696 29H71.1111L60.0491 16.4335H60.0483ZM45.1716 12.5665V3.86622H59.9207C62.9721 3.86622 64.4978 5.31615 64.4978 8.216C64.4978 11.1159 62.9721 12.5658 59.9207 12.5658H45.1716V12.5665Z" fill="#BDBDBD"/>
<path d="M72.8694 0V1.93348C72.8694 3.22222 73.5478 3.86696 74.9039 3.86696H86.0927V29H91.1787V3.86696H102.368C103.724 3.86696 104.403 3.22222 104.403 1.93348V0H72.8694V0Z" fill="#BDBDBD"/>
<path d="M117.188 1.82997L115.57 0H113.027L98.7864 29H101.796C103.152 29 104.169 28.3553 104.804 27.0665L107.177 22.2332H125.004L122.07 18.3662H109.043L110.809 14.7802L115.57 5.1143L117.188 1.82923V1.82997Z" fill="#BDBDBD"/>
<path d="M137.948 0C136.592 0 135.914 0.644001 135.914 1.93348V22.9984L115.57 0L114.618 4.9154L135.914 29H141V0H137.948V0Z" fill="#BDBDBD"/>
</svg>
