<svg width="10" height="6" viewBox="0 0 10 6" fill="none" xmlns="http://www.w3.org/2000/svg">
<path d="M0 0.414764C0.0569736 0.321327 0.143573 0.278027 0.250684 0.27119C0.303099 0.268912 0.355515 0.264354 0.405652 0.262075C0.829535 0.259796 1.25114 0.257517 1.67502 0.255238C1.89152 0.252959 2.0351 0.350954 2.13309 0.5515C2.38605 1.07794 2.64813 1.60209 2.91705 2.12169C3.02871 2.33819 3.17457 2.53646 3.36828 2.69143C3.41386 2.72789 3.46399 2.7598 3.51869 2.78031C3.63947 2.82816 3.73063 2.78714 3.79444 2.67548C3.88788 2.50683 3.89471 2.31996 3.9175 2.13764C3.96764 1.71148 3.9608 1.2876 3.8742 0.865995C3.82179 0.613032 3.6691 0.478574 3.42525 0.428438C3.29991 0.403369 3.29307 0.371464 3.37967 0.275748C3.48222 0.16408 3.60757 0.091154 3.75798 0.0683646C4.32088 -0.0159563 4.88605 -0.027351 5.44895 0.0615278C5.72698 0.104828 5.83181 0.200543 5.85688 0.53099C5.87511 0.783953 5.8546 1.03919 5.85232 1.29216C5.84777 1.63172 5.84093 1.969 5.84321 2.30857C5.84321 2.40656 5.866 2.51139 5.90018 2.60255C5.97539 2.80082 6.12808 2.83044 6.28988 2.69599C6.55424 2.47721 6.72972 2.19234 6.90975 1.90975C7.18551 1.48131 7.40884 1.02552 7.598 0.553779C7.69827 0.303096 7.74385 0.275748 8.01048 0.273469C8.53464 0.268912 9.0588 0.259796 9.58295 0.257517C9.66272 0.257517 9.74704 0.266633 9.82224 0.289422C9.97265 0.332722 10.0182 0.417043 9.99088 0.572011C9.94986 0.806742 9.84048 1.01868 9.70602 1.20784C9.36646 1.69553 9.01094 2.17411 8.66454 2.65724C8.58706 2.76435 8.50729 2.87374 8.43892 2.98769C8.32498 3.18368 8.34321 3.35916 8.50046 3.52324C8.72835 3.75797 8.96992 3.98359 9.20009 4.21604C9.45306 4.469 9.69462 4.73336 9.87922 5.04558C9.91568 5.10939 9.94759 5.17775 9.9681 5.25068C10.0387 5.50364 9.91568 5.64038 9.67183 5.66317C9.45305 5.68596 9.22972 5.6814 9.00866 5.68596C8.72151 5.6928 8.43665 5.70419 8.1495 5.70419C7.90565 5.70419 7.68459 5.61531 7.50456 5.46034C7.30629 5.28714 7.13081 5.08888 6.94622 4.902C6.81176 4.76527 6.67958 4.62625 6.54284 4.49179C6.50638 4.45533 6.4608 4.42798 6.41522 4.40519C6.29444 4.34366 6.20556 4.35734 6.10301 4.44849C5.92525 4.60802 5.88423 4.8268 5.85688 5.04785C5.84549 5.14357 5.84549 5.24384 5.83865 5.33956C5.82498 5.53783 5.73154 5.65177 5.53327 5.66773C4.67411 5.73837 3.86053 5.63582 3.12215 5.12534C2.63218 4.78578 2.23336 4.36873 1.88013 3.89699C1.12808 2.8897 0.546946 1.78669 0.038742 0.6381C0.0250684 0.608474 0.0113947 0.581127 0 0.5515C0 0.505922 0 0.460343 0 0.414764Z" fill="white"/>
</svg>
