<svg width="8" height="10" viewBox="0 0 8 10" fill="none" xmlns="http://www.w3.org/2000/svg">
<path d="M2.22909 7.35761C1.85811 7.22094 1.51643 7.10704 1.1845 6.96711C0.93068 6.85973 0.683365 6.73281 0.442558 6.59614C0.016265 6.35858 -0.120409 5.8607 0.110635 5.44091C0.34168 5.02112 0.83631 4.87469 1.26586 5.10899C1.81255 5.40512 2.37878 5.64267 2.99056 5.75656C4.02863 5.94856 5.01138 5.77609 5.95508 5.32702C6.10152 5.25868 6.2447 5.17732 6.38789 5.10573C6.81092 4.8877 7.29905 5.02763 7.53009 5.43115C7.76439 5.84117 7.64073 6.33906 7.22746 6.58638C6.71005 6.89552 6.15359 7.12331 5.57435 7.29253C5.53204 7.30555 5.48974 7.31856 5.43117 7.33483C5.46696 7.37388 5.49625 7.40642 5.52554 7.43897C5.90302 7.81645 6.2805 8.19068 6.65473 8.57141C6.89553 8.81547 6.95411 9.17669 6.81418 9.48583C6.671 9.80799 6.35209 10.013 6.0104 9.99999C5.77285 9.99023 5.57435 9.88935 5.40839 9.72013C4.91376 9.2255 4.41913 8.73087 3.9245 8.23623C3.89195 8.20695 3.85941 8.17766 3.82362 8.14186C3.78782 8.17766 3.75528 8.20695 3.72274 8.23623C3.21509 8.74063 2.71395 9.25153 2.20305 9.75267C1.73445 10.2115 0.953459 9.99348 0.787498 9.35892C0.706144 9.04001 0.794006 8.76341 1.02505 8.53236C1.38952 8.17115 1.75398 7.80994 2.11519 7.44873C2.14773 7.41619 2.18678 7.39341 2.22909 7.35761Z" fill="white"/>
<path d="M1.30167 2.52522C1.30492 1.13244 2.43411 0 3.82363 0C5.21966 0 6.35211 1.13895 6.34885 2.53173C6.34234 3.92776 5.21641 5.05044 3.82363 5.04719C2.4276 5.04719 1.30167 3.91474 1.30167 2.52522ZM3.81062 1.24959C3.10446 1.26912 2.54801 1.84185 2.56102 2.53173C2.57729 3.23462 3.15002 3.79108 3.84641 3.77807C4.54605 3.76505 5.10902 3.1793 5.0895 2.49268C5.06672 1.78653 4.49399 1.23332 3.81062 1.24959Z" fill="white"/>
</svg>
