<svg width="10" height="10" viewBox="0 0 10 10" fill="none" xmlns="http://www.w3.org/2000/svg">
<g clip-path="url(#clip0_1101_7042)">
<path d="M0 10C0.180593 9.33424 0.358491 8.69004 0.533693 8.04583C0.58221 7.86794 0.633423 7.69273 0.67655 7.51484C0.687332 7.46901 0.681941 7.40972 0.660377 7.36928C0.19407 6.51753 -0.0188679 5.60648 0.0539084 4.64152C0.175202 3.01619 0.924528 1.73856 2.27224 0.824813C3.16981 0.215649 4.1779 -0.064674 5.26146 0.013493C7.22102 0.15635 8.67116 1.11861 9.49326 2.89759C10.2938 4.63344 10.0997 6.33424 8.98652 7.89219C8.18598 9.01079 7.07278 9.66308 5.7089 9.86794C4.65499 10.0243 3.65229 9.84368 2.70081 9.3585C2.65768 9.33694 2.59299 9.33155 2.54447 9.34502C1.73585 9.55257 0.927224 9.76551 0.118598 9.97845C0.083558 9.98114 0.0512129 9.98923 0 10ZM1.18868 8.82211C1.21833 8.81672 1.23181 8.81403 1.24528 8.81133C1.70081 8.69273 2.15903 8.57413 2.61186 8.45015C2.7062 8.42589 2.77898 8.43397 2.86523 8.48519C3.78167 9.02966 4.76819 9.21025 5.80863 8.99732C8.01348 8.54449 9.42857 6.46093 9.05121 4.2453C8.73315 2.3639 7.10782 0.924544 5.20485 0.843681C4.15364 0.800555 3.20755 1.09975 2.39353 1.7709C1.46361 2.5364 0.956873 3.53101 0.884097 4.73317C0.830189 5.61726 1.05121 6.43937 1.531 7.186C1.5876 7.27225 1.59838 7.34772 1.56873 7.44476C1.43935 7.89759 1.31806 8.35311 1.18868 8.82211Z" fill="white"/>
<path d="M3.38545 2.67657C3.61186 2.61727 3.71159 2.75474 3.78707 2.95151C3.89758 3.23992 4.01887 3.52294 4.14017 3.80596C4.1806 3.9003 4.1806 3.98655 4.1186 4.07011C4.01887 4.20488 3.92184 4.33965 3.81672 4.46903C3.75203 4.5499 3.74124 4.62267 3.79515 4.71432C4.19946 5.39895 4.7655 5.89222 5.50674 6.18602C5.60378 6.22376 5.68194 6.21028 5.74933 6.12672C5.87601 5.97039 6.00539 5.81675 6.12669 5.65502C6.19677 5.56068 6.27763 5.53373 6.38006 5.57955C6.73046 5.74397 7.08356 5.90839 7.42858 6.08359C7.4717 6.10516 7.50674 6.18332 7.50674 6.23454C7.49866 6.76015 7.34232 7.01351 6.77898 7.25071C6.45822 7.38548 6.12938 7.35044 5.80054 7.2588C4.60917 6.92726 3.73316 6.17793 3.02965 5.19141C2.80863 4.88143 2.60917 4.56068 2.52561 4.18601C2.40701 3.64962 2.53909 3.18331 2.93531 2.79787C3.05391 2.68196 3.20486 2.65232 3.38545 2.67657Z" fill="white"/>
</g>
<defs>
<clipPath id="clip0_1101_7042">
<rect width="9.97844" height="10" fill="white"/>
</clipPath>
</defs>
</svg>
