<svg width="12" height="10" viewBox="0 0 12 10" fill="none" xmlns="http://www.w3.org/2000/svg">
<g clip-path="url(#clip0_1101_7046)">
<path d="M11.5698 0.40979C11.5095 0.693009 11.4462 0.973214 11.392 1.25643C11.0184 3.14254 10.6448 5.02564 10.2682 6.91176C10.0994 7.76443 9.9277 8.61709 9.76198 9.46976C9.67159 9.93978 9.10817 10.1627 8.72854 9.8735C7.35161 8.82197 5.97771 7.77045 4.6038 6.71592C4.58572 6.70386 4.57065 6.68579 4.52546 6.64963C4.55257 6.63457 4.57969 6.62854 4.59777 6.61046C6.28503 5.09193 7.97228 3.5734 9.65954 2.05185C9.7198 1.99762 9.78006 1.93736 9.82525 1.86806C9.85237 1.82588 9.87346 1.74152 9.85237 1.71741C9.81923 1.68427 9.74089 1.66318 9.6957 1.67825C9.60229 1.70536 9.51191 1.74754 9.43056 1.79876C8.45737 2.41341 7.4872 3.03107 6.51401 3.64872C5.36005 4.38087 4.2091 5.11302 3.05513 5.84818C2.98282 5.89338 2.92558 5.8994 2.84724 5.87229C2.06086 5.60413 1.27447 5.34201 0.485079 5.07687C0.325392 5.02263 0.18077 4.94429 0.0783291 4.80269C-0.0452022 4.63396 -0.0361633 4.46523 0.123524 4.32965C0.213912 4.25433 0.319366 4.18804 0.430845 4.14586C3.35944 2.99491 6.28804 1.84697 9.21664 0.699035C9.70775 0.506205 10.1928 0.310363 10.687 0.123559C10.8406 0.066313 11.0033 0.0211187 11.166 0.00304089C11.395 -0.0210628 11.4703 0.0391964 11.5667 0.247091C11.5698 0.304337 11.5698 0.355557 11.5698 0.40979Z" fill="white"/>
</g>
<defs>
<clipPath id="clip0_1101_7046">
<rect width="11.5697" height="10" fill="white"/>
</clipPath>
</defs>
</svg>
