<svg width="11" height="11" viewBox="0 0 11 11" fill="none" xmlns="http://www.w3.org/2000/svg">
<g clip-path="url(#clip0_1101_7036)">
<path d="M5.43255 4.44213e-05C5.57869 0.0143711 5.72195 0.0344284 5.86809 0.0458897C6.52138 0.100331 7.16322 0.217809 7.78499 0.435575C8.39531 0.650474 8.93399 0.965661 9.30362 1.5158C9.63027 2.00291 9.80792 2.54732 9.9168 3.11466C10.0687 3.90835 10.0801 4.70778 10.0285 5.51007C9.99703 6.01437 9.95978 6.5158 9.83657 7.00578C9.52425 8.24073 8.7678 9.03156 7.52425 9.36394C6.59875 9.61322 5.66178 9.69918 4.71049 9.67913C4.56436 9.67626 4.41823 9.66767 4.2721 9.65047C4.20619 9.64188 4.16608 9.66194 4.12596 9.71065C3.87668 10.0058 3.6274 10.3038 3.37238 10.5932C3.27496 10.7049 3.16608 10.8138 3.04573 10.9026C2.81651 11.0774 2.55576 10.9886 2.4698 10.7106C2.44401 10.6276 2.42969 10.5359 2.42969 10.447C2.42396 10.1003 2.42682 9.75363 2.42969 9.40406C2.42969 9.34675 2.41823 9.31237 2.35805 9.29231C1.16034 8.92268 0.489857 8.07454 0.188997 6.8883C0.0657877 6.40406 0.00848104 5.91122 0.00275038 5.41265C-0.00298029 4.92268 -0.00298029 4.42984 0.025673 3.94274C0.0715183 3.18629 0.214785 2.4499 0.578682 1.76795C0.911061 1.14618 1.43542 0.753626 2.07439 0.492881C2.65318 0.257924 3.25777 0.123254 3.87954 0.0544857C4.10304 0.031563 4.32654 0.00864041 4.55003 -0.0142822C4.84516 4.44213e-05 5.13743 4.44213e-05 5.43255 4.44213e-05ZM2.70476 9.58171C2.70189 9.58171 2.70189 9.58171 2.69903 9.58171C2.69903 9.8797 2.6933 10.1748 2.70189 10.4728C2.70476 10.533 2.73914 10.6218 2.78212 10.639C2.82224 10.6562 2.89674 10.6018 2.95404 10.5702C2.9827 10.5531 3.00562 10.5187 3.02854 10.4929C3.44974 9.98572 3.87095 9.48142 4.29215 8.97426C4.338 8.91982 4.38098 8.89403 4.45261 8.89689C5.40963 8.93701 6.34946 8.84818 7.27783 8.60463C8.1231 8.38113 8.70763 7.88543 9.01995 7.06881C9.20333 6.58744 9.24918 6.08314 9.2807 5.57598C9.31795 5.00864 9.32368 4.43844 9.2635 3.8711C9.21479 3.40119 9.12883 2.93701 8.95691 2.49575C8.73055 1.91122 8.34373 1.48142 7.75347 1.24073C7.17754 1.00864 6.57869 0.882566 5.96551 0.816663C5.40104 0.753626 4.83657 0.747895 4.2721 0.790875C3.67897 0.836721 3.09731 0.945603 2.53857 1.15764C1.9082 1.39546 1.42396 1.79088 1.14029 2.41265C0.936849 2.85678 0.825101 3.32383 0.784986 3.80807C0.753467 4.20348 0.742006 4.60176 0.73341 4.99718C0.719083 5.53586 0.744871 6.06881 0.868081 6.59603C1.09731 7.57598 1.63885 8.28085 2.62453 8.5989C2.69903 8.62182 2.70476 8.6648 2.70476 8.72497C2.70476 9.00864 2.70476 9.29517 2.70476 9.58171Z" fill="white"/>
<path d="M6.58743 7.81659C6.50147 7.79367 6.41551 7.77934 6.33814 7.74783C5.17195 7.26072 4.12896 6.60456 3.35818 5.57304C2.94844 5.02576 2.64471 4.41831 2.38683 3.78794C2.35531 3.70771 2.3238 3.62748 2.28368 3.55298C2.18339 3.36101 2.19772 3.17189 2.29228 2.98851C2.44414 2.69338 2.68196 2.48708 2.97423 2.34095C3.14328 2.25499 3.30661 2.29224 3.41549 2.44124C3.64185 2.75356 3.86822 3.06588 4.07739 3.39252C4.23498 3.63608 4.192 3.85957 3.96277 4.03436C3.58741 4.32376 3.60747 4.43264 3.78226 4.81946C4.09458 5.52146 4.57882 6.05442 5.33527 6.29224C5.51865 6.34955 5.639 6.30943 5.75934 6.15757C5.80805 6.09453 5.8539 6.03149 5.90261 5.97132C6.03728 5.7994 6.23499 5.74783 6.42983 5.85098C6.80519 6.05728 7.14903 6.30943 7.45276 6.61029C7.55878 6.71631 7.5731 6.85384 7.52153 6.97992C7.38399 7.3123 7.16623 7.5845 6.83958 7.74783C6.75935 7.78507 6.67052 7.79367 6.58743 7.81659Z" fill="white"/>
<path d="M5.04584 1.98279C6.22635 2.02863 7.25499 2.71918 7.5931 4.0143C7.6676 4.30656 7.68479 4.61315 7.71917 4.91401C7.72491 4.96272 7.69339 5.03722 7.65614 5.06874C7.58164 5.13178 7.48995 5.06587 7.47562 4.95699C7.43837 4.659 7.42405 4.35527 7.34955 4.06874C7.08021 3.04296 6.3209 2.39253 5.27506 2.25786C5.18051 2.2464 5.08309 2.24067 4.98567 2.2378C4.89971 2.23494 4.83667 2.20915 4.83667 2.10886C4.83667 2.02004 4.88251 1.98279 4.99713 1.98279C5.01432 1.98279 5.03724 1.98279 5.04584 1.98279Z" fill="white"/>
<path d="M7.01434 4.58166C7.01434 4.61318 7.01721 4.64756 7.01434 4.67908C7.00574 4.75645 6.9599 4.80802 6.88253 4.80229C6.8109 4.79656 6.77652 4.75071 6.76792 4.67049C6.74786 4.47851 6.745 4.2808 6.69342 4.10029C6.50431 3.44126 6.0344 3.09742 5.37824 2.98281C5.31806 2.97135 5.25789 2.96561 5.19772 2.95988C5.11176 2.95129 5.06878 2.90258 5.07451 2.81662C5.08024 2.73066 5.13755 2.702 5.21491 2.70773C5.90546 2.74785 6.70775 3.11748 6.9513 4.09455C6.99142 4.25215 7.00288 4.41834 7.02867 4.58166C7.02294 4.58166 7.01721 4.58166 7.01434 4.58166Z" fill="white"/>
<path d="M5.3812 3.44409C5.92848 3.47275 6.26373 3.79939 6.30958 4.30656C6.31244 4.34667 6.3239 4.38392 6.3239 4.42404C6.3239 4.5014 6.28379 4.55871 6.20642 4.56444C6.13479 4.57017 6.08608 4.52719 6.07748 4.44983C6.06889 4.37533 6.06029 4.30083 6.0431 4.22633C5.9686 3.90541 5.77089 3.73922 5.44424 3.71057C5.40412 3.7077 5.34681 3.70197 5.32389 3.67618C5.29524 3.6418 5.27231 3.5759 5.28378 3.53865C5.30383 3.4928 5.36114 3.46128 5.3812 3.44409Z" fill="white"/>
</g>
<defs>
<clipPath id="clip0_1101_7036">
<rect width="10.0573" height="11" fill="white"/>
</clipPath>
</defs>
</svg>
