<svg width="6" height="10" viewBox="0 0 6 10" fill="none" xmlns="http://www.w3.org/2000/svg">
<path d="M1.53908 9.99998C1.53908 9.95969 1.53102 9.9194 1.53102 9.87105C1.53102 8.43672 1.53102 7.01046 1.53102 5.57613C1.53102 5.53584 1.53102 5.49555 1.53102 5.43914C1.01531 5.43914 0.507655 5.43914 0 5.43914C0 4.84285 0 4.25461 0 3.65832C0.507655 3.65832 1.01531 3.65832 1.53102 3.65832C1.53102 3.60997 1.53102 3.56968 1.53102 3.52939C1.53102 3.06203 1.52297 2.59466 1.53908 2.13535C1.56326 1.57129 1.72442 1.06364 2.12732 0.644622C2.42546 0.330359 2.80419 0.145025 3.22321 0.0563864C3.5697 -0.0161357 3.9162 -0.0080777 4.26269 0.00803834C4.54472 0.0160964 4.82675 0.0402704 5.10878 0.0644445C5.13296 0.0644445 5.14907 0.0725025 5.18131 0.0805605C5.18131 0.604332 5.18131 1.1281 5.18131 1.66799C5.14907 1.66799 5.11684 1.66799 5.07655 1.66799C4.73006 1.67605 4.38356 1.66799 4.02901 1.68411C3.61805 1.70828 3.38437 1.9339 3.36825 2.34486C3.35214 2.77194 3.36019 3.20707 3.36019 3.63415C3.36019 3.6422 3.36825 3.6422 3.36825 3.66638C3.94037 3.66638 4.52055 3.66638 5.10878 3.66638C5.0282 4.26267 4.95568 4.85091 4.88316 5.4472C4.3755 5.4472 3.87591 5.4472 3.36019 5.4472C3.36019 5.48749 3.35214 5.51166 3.35214 5.5439C3.35214 7.01046 3.35214 8.47701 3.35214 9.94357C3.35214 9.96775 3.35214 9.99192 3.36019 10.008C2.7639 9.99998 2.15149 9.99998 1.53908 9.99998Z" fill="white"/>
</svg>
