<svg width="10" height="8" viewBox="0 0 10 8" fill="none" xmlns="http://www.w3.org/2000/svg">
<g clip-path="url(#clip0_1101_7027)">
<path d="M0 7.11964C1.07243 7.19006 2.04562 6.93396 2.92597 6.2681C2.0008 6.18486 1.38936 5.71747 1.04682 4.85633C1.35094 4.85633 1.63265 4.85633 1.91757 4.85633C1.92077 4.84352 1.92077 4.83072 1.92397 4.81791C1.32853 4.66105 0.883553 4.31851 0.592237 3.7807C0.42577 3.47338 0.332933 3.06681 0.37455 2.83312C0.643457 2.96437 0.921969 3.05721 1.2517 3.06361C0.832333 2.72428 0.544218 2.32732 0.422569 1.82792C0.297719 1.32211 0.393757 0.845123 0.64986 0.374535C1.7383 1.64544 3.09884 2.36573 4.78271 2.47137C4.76991 2.36573 4.7603 2.2761 4.7539 2.18646C4.68027 1.35413 5.13485 0.560209 5.88715 0.198464C6.63946 -0.163281 7.54542 -0.0224243 8.14726 0.553807C8.21128 0.614631 8.26571 0.63704 8.35534 0.61143C8.71709 0.518592 9.06603 0.390541 9.39256 0.214471C9.42137 0.198464 9.45018 0.185659 9.5078 0.156848C9.34774 0.630637 9.07243 0.976376 8.68828 1.25809C8.80352 1.23568 8.92197 1.21647 9.03721 1.18766C9.15886 1.15885 9.27731 1.12684 9.39576 1.08842C9.511 1.05321 9.62625 1.00839 9.7415 0.966772C9.7511 0.976376 9.7575 0.982778 9.76711 0.992382C9.61665 1.17165 9.47579 1.35733 9.31573 1.527C9.17167 1.67746 9.0116 1.81191 8.85154 1.94316C8.78751 1.99438 8.76831 2.0424 8.76831 2.12243C8.7491 4.29931 7.86555 6.0216 6.02161 7.19967C5.01321 7.84313 3.87995 8.05761 2.69228 7.98718C1.7479 7.93276 0.87395 7.65425 0.0672269 7.16125C0.0448179 7.14845 0.022409 7.13244 0 7.11964Z" fill="white"/>
</g>
<defs>
<clipPath id="clip0_1101_7027">
<rect width="9.77031" height="8" fill="white"/>
</clipPath>
</defs>
</svg>
