<svg width="85" height="81" viewBox="0 0 85 81" fill="none" xmlns="http://www.w3.org/2000/svg">
<g clip-path="url(#clip0)">
<path fill-rule="evenodd" clip-rule="evenodd" d="M75.6584 45.8929L61.7697 49.4913C60.4191 49.8011 58.7238 49.7105 58.0249 49.9774C55.1159 51.0832 49.704 57.8415 45.0902 50.2539C42.5542 46.0883 29.8415 26.6283 29.3645 23.7496C29.407 21.4189 30.3468 20.1225 33.0716 19.5983C31.1118 15.9045 29.8131 11.9439 35.2439 11.2862C35.1542 8.96986 35.6075 7.09201 38.0963 6.41046C40.7644 5.68124 41.5342 7.35415 43.0784 8.83164C43.8718 7.26836 45.9402 5.99581 48.1786 7.12061C49.5576 7.81169 50.5021 9.67524 51.4513 11.229C51.1679 9.17003 50.0109 3.29342 55.999 4.42776C56.0415 4.3372 56.0792 4.0989 56.1217 4.15609C56.3295 4.42299 56.4948 0.748322 60.2775 0.691129C62.5442 0.657766 63.399 2.0733 64.3151 4.51355C65.7082 3.2267 67.8758 2.91213 69.4484 4.10843C71.4271 5.61452 74.9547 22.5819 75.8095 25.6369C75.8142 25.6322 77.4387 18.2542 82.2178 21.233C85.5471 23.3063 83.5259 27.4576 82.7467 30.1218C81.9014 33.0006 81.1175 35.6648 80.2722 38.4911C79.2521 41.8989 79.2994 44.015 75.6678 45.8929H75.6584ZM71.9466 39.0202L61.9775 41.5557C61.7272 40.7693 61.4581 39.9686 61.3022 39.2823L61.1417 37.2233L70.544 34.5877C71.4365 35.8888 71.6538 37.4092 71.9466 39.0202ZM62.5253 5.11884L66.4119 20.6516C66.8983 22.5676 66.5961 22.8392 68.1403 23.1395C69.1651 22.0528 68.9242 22.906 67.7011 18.2209C65.3871 9.36068 62.7284 4.99492 68.23 5.13314C71.2571 9.09854 72.8391 26.7856 75.4648 30.0408C78.9924 29.6881 75.4789 21.7478 81.6559 22.6057C82.8459 25.0173 81.9959 26.776 81.3347 28.9684C80.7066 31.0512 80.1352 33.0578 79.5213 35.1167C78.9169 37.1423 78.4729 38.7962 77.7882 40.9695C76.5745 44.8253 72.3433 44.8777 65.9396 46.5363C64.1121 47.0082 62.3175 47.5706 60.8017 47.318L59.8997 44.5345C65.2124 40.9028 74.8461 42.9999 73.4058 37.3854C72.7919 34.988 72.8438 34.4113 71.5924 32.8099C69.1839 32.8766 60.6411 34.5781 59.2763 36.5227C58.823 38.1146 59.7533 40.4023 60.2538 42.142C58.1193 43.4908 57.6565 44.9254 58.9599 47.928C55.4086 46.8652 55.5078 43.3764 54.2989 38.6436L48.5281 16.2525C48.0653 13.8122 49.9259 12.7208 51.6921 13.8551C52.986 14.6892 54.9128 23.9736 55.6495 26.3661C57.9493 25.4701 56.8962 24.6408 55.1442 17.7776C54.3555 14.6892 52.6555 9.76103 52.7216 6.98239C54.3508 6.04823 54.3083 5.95768 56.1359 6.19122C57.7887 9.04611 59.7202 18.5164 60.7403 22.5151C61.3069 24.6932 61 24.7886 62.8465 24.4597C62.1428 18.5926 58.601 9.40357 58.0532 4.99016C57.7085 2.18769 61.3967 0.743556 62.5206 5.11884H62.5253ZM49.482 11.2767L48.6839 12.1679C48.0558 12.7351 46.9036 13.5406 46.5966 14.8751C45.756 13.1879 44.4337 12.0297 44.3818 9.89925C47.2625 6.6154 47.7394 9.54656 49.482 11.2814V11.2767ZM52.0557 37.2186C45.8835 40.3976 47.6025 41.3079 50.1148 45.931C49.3214 47.4705 47.9992 49.4818 50.8137 51.8219C47.7442 52.2413 46.5211 49.1529 44.9674 46.6126C43.3098 43.9102 41.7609 41.4461 40.1269 38.7485C38.5024 36.0699 30.9229 25.0793 31.2346 23.0966C31.8674 21.6048 33.081 21.0996 34.3467 21.824C36.977 23.3349 38.9982 32.2189 42.1528 31.8662C42.3323 30.0361 38.5591 24.9601 37.3265 22.9107C35.0125 19.0645 31.4754 14.9132 33.9122 13.5263C36.467 12.0726 38.356 16.2954 40.7833 20.3275C42.4362 23.068 45.2507 28.6777 47.0594 28.6872C47.645 27.1192 45.8552 25.127 44.2779 22.6962L37.2509 11.2195C36.1317 8.32643 39.1305 7.04435 40.873 9.04135C41.5767 9.84682 47.3994 19.6221 47.7442 20.5658C49.4537 25.2652 50.6296 32.1379 52.0652 37.2138L52.0557 37.2186Z" fill="#626262" stroke="#CDCDCD" stroke-width="0.199839" stroke-miterlimit="22.9256"/>
<path fill-rule="evenodd" clip-rule="evenodd" d="M75.3137 45.197L61.425 48.7954C60.0744 49.1052 58.3791 49.0146 57.6801 49.2815C54.7711 50.3873 49.364 57.1456 44.7454 49.558C42.2095 45.3924 29.4967 25.9324 29.0198 23.0536C29.0576 20.723 30.002 19.4266 32.7269 18.9024C30.7671 15.2086 29.4684 11.248 34.8992 10.5903C34.8142 8.27393 35.2628 6.39609 37.7515 5.71453C40.4197 4.98532 41.1894 6.65822 42.7337 8.13572C43.527 6.56767 45.5955 5.29988 47.8339 6.42468C49.2128 7.11577 50.1573 8.97932 51.1065 10.5331C50.8232 8.47411 49.6662 2.5975 55.6542 3.73183C55.6967 3.64128 55.7345 3.40297 55.777 3.46017C55.9848 3.72707 56.1501 0.052399 59.9375 -0.00479428C62.2042 -0.038157 63.059 1.37738 63.9751 3.81762C65.3682 2.53078 67.5358 2.21621 69.1084 3.4125C71.0871 4.91859 74.61 21.8859 75.4695 24.941C75.4742 24.9362 77.0987 17.5583 81.8778 20.5371C85.2071 22.6104 83.1859 26.7617 82.4067 29.4259C81.5661 32.3046 80.7775 34.9689 79.9322 37.7952C78.9121 41.203 78.9594 43.3191 75.3278 45.197H75.3137ZM71.6018 38.3242L61.6328 40.8598C61.3825 40.0734 61.1133 39.2727 60.9575 38.5864L60.7969 36.5274L70.1993 33.8918C71.0918 35.1929 71.309 36.7133 71.6018 38.3242ZM62.1853 4.42292L66.0719 19.9557C66.5583 21.8716 66.2561 22.1433 67.8003 22.4436C68.8251 21.3569 68.5842 22.21 67.3611 17.525C65.0471 8.66476 62.3884 4.299 67.89 4.43722C70.9171 8.40262 72.4991 26.0896 75.1248 29.3449C78.6524 28.9922 75.1389 21.0519 81.3158 21.9098C82.5059 24.3214 81.6559 26.0801 80.9947 28.2725C80.3666 30.3553 79.7952 32.3618 79.1813 34.4208C78.5768 36.4464 78.1329 38.1002 77.4482 40.2736C76.2345 44.1294 72.0032 44.1818 65.5996 45.8404C63.7721 46.3122 61.9775 46.8746 60.4616 46.6268L59.5597 43.8434C64.8724 40.2116 74.5061 42.3087 73.0658 36.699C72.4519 34.3016 72.5038 33.7249 71.2524 32.1235C68.8439 32.1903 60.3011 33.8918 58.9363 35.8363C58.483 37.4282 59.4133 39.7159 59.9138 41.4556C57.7793 42.8044 57.3165 44.239 58.6199 47.2416C55.0686 46.1788 55.1678 42.69 53.9589 37.9572L48.1881 15.5661C47.7253 13.1258 49.5859 12.0344 51.3521 13.1687C52.646 14.0028 54.5728 23.2872 55.3095 25.6798C57.6093 24.7837 56.5562 23.9544 54.7995 17.0912C54.0108 14.0028 52.3107 9.07464 52.3769 6.296C54.0061 5.36184 53.9636 5.27129 55.7912 5.50483C57.444 8.35972 59.3755 17.83 60.3955 21.8287C60.9622 24.0069 60.6553 24.1022 62.5017 23.7733C61.7981 17.9062 58.2563 8.71718 57.7085 4.30377C57.3637 1.5013 61.0519 0.0571652 62.1759 4.43245L62.1853 4.42292ZM49.142 10.5807L48.3439 11.472C47.7158 12.0392 46.5636 12.8446 46.2566 14.1791C45.416 12.4919 44.0937 11.3338 44.0418 9.20333C46.9225 5.91948 47.3994 8.85063 49.142 10.5855V10.5807ZM51.7157 36.5179C45.5435 39.6969 47.2625 40.6072 49.7748 45.2351C48.9814 46.7746 47.6592 48.7858 50.4737 51.126C47.4042 51.5454 46.181 48.457 44.6226 45.9166C42.9651 43.2143 41.4161 40.7502 39.7822 38.0573C38.1577 35.3788 30.5782 24.3881 30.8899 22.4054C31.5227 20.9137 32.7363 20.4084 34.0019 21.1329C36.6323 22.6437 38.6535 31.5278 41.8081 31.1751C41.9875 29.3449 38.2143 24.269 36.9818 22.2196C34.6678 18.3733 31.1307 14.222 33.5675 12.8351C36.1223 11.3814 38.0113 15.6042 40.4386 19.6363C42.0914 22.3768 44.906 27.9866 46.7147 27.9961C47.3003 26.428 45.5105 24.4358 43.9332 22.0051L36.9062 10.5283C35.787 7.63528 38.7857 6.35319 40.5283 8.35019C41.232 9.15566 47.0547 18.931 47.3994 19.8746C49.1089 24.574 50.2848 31.4467 51.7204 36.5227L51.7157 36.5179Z" fill="#E6000A"/>
<path fill-rule="evenodd" clip-rule="evenodd" d="M56.4571 60.5629V56.1066C56.4571 51.4072 56.4665 45.8118 55.8054 41.1934C55.5645 39.5158 54.8325 39.0916 54.4217 37.3043C54.2281 34.926 52.835 31.4181 51.9046 29.5641C50.5682 26.8999 49.0523 25.8609 46.6769 24.2642C35.8579 16.9864 27.6786 14.3078 14.9187 19.4743C13.653 19.989 12.548 20.4466 11.3107 20.8279C9.69566 21.3283 8.83145 21.2949 7.42889 22.1957C5.11963 23.6827 4.38766 26.123 3.77374 29.1781C3.38178 29.8549 3.28261 30.9225 1.83283 33.5867C0.70417 35.6552 0.316931 38.0097 0.283875 40.469V41.1744C0.321654 44.3486 0.883622 47.6753 1.15752 50.7781C1.1953 52.6607 2.30035 57.4077 3.30622 58.9281C4.24126 60.3341 4.61433 60.3484 5.22825 60.4104C5.85633 61.5638 5.90828 61.2349 7.02749 61.926C7.8303 62.4217 8.29782 62.7505 9.17619 63.2843C10.3474 63.9945 12.4913 65.4958 13.6672 65.8342C15.542 67.3308 17.7238 68.1791 19.9008 69.4946C21.0484 70.1904 21.9881 70.5384 23.1734 71.1818C24.3399 71.8157 25.1002 72.5258 26.4697 72.8499C27.6739 73.9032 37.4163 78.1832 39.2816 79.0125C40.9392 79.7512 44.5329 81.2097 46.6061 80.5472C48.4951 79.9419 50.9507 77.6399 51.5316 75.7858C52.3202 75.1615 52.6508 74.0653 53.1514 73.0406C53.7369 71.8395 54.4784 70.9816 54.705 69.7567C55.4701 68.7415 55.7676 67.4547 55.862 65.7865C55.9895 63.4607 56.4523 63.046 56.4523 60.5629H56.4571Z" fill="white" stroke="white" stroke-width="0.199839" stroke-miterlimit="22.9256"/>
<path fill-rule="evenodd" clip-rule="evenodd" d="M29.9265 16.8482C34.7953 17.1008 37.6854 18.4496 41.2508 20.4371C42.8801 21.3426 44.3818 22.2196 45.9402 23.168L49.3167 25.4653C52.9199 28.2297 54.2611 33.1149 55.2859 38.1717C55.6873 40.1497 56.084 37.4425 56.5704 42.5613C56.9907 46.9652 57.4204 57.932 56.9434 62.4455C56.8395 63.4035 56.7357 63.2558 56.509 63.923C55.9942 65.4291 57.189 66.3299 55.2009 70.057C53.6614 72.95 51.933 77.3206 49.2884 79.1651C47.338 80.5282 46.3227 80.8237 43.7018 79.9991C35.7823 77.5207 16.5809 67.3737 9.077 62.4122C7.85389 61.6019 5.51157 60.2579 4.60959 59.319C2.07365 56.6738 1.24723 44.7251 1.17639 40.245C1.06777 33.3723 3.7265 33.663 4.65209 28.8206C5.52101 24.2785 6.93302 21.7001 11.6885 20.8612C14.9564 20.2845 19.3199 16.3048 29.9265 16.8482ZM9.10061 41.3031C8.26946 40.2164 6.6969 36.1891 6.21521 34.6258C5.51629 32.3428 5.1385 28.5251 5.83742 26.1612C6.10187 29.4116 5.81381 31.2752 6.85746 34.3779C7.39109 35.9698 8.99199 39.8447 9.10061 41.3078V41.3031ZM14.7061 40.5929C15.065 41.1124 15.0981 41.5033 15.9528 41.427C16.732 40.326 15.7639 39.9876 15.4003 39.5396C16.7084 39.573 17.2846 40.531 16.5715 41.6605C15.9953 42.5661 14.2244 41.9036 14.7061 40.5929ZM15.4239 37.2614C14.7061 38.086 13.7994 37.5379 13.6483 39.5635C13.3886 43.119 16.4345 43.648 17.3932 41.5414C18.281 39.5921 16.1701 37.9096 17.4829 38.3147C17.6387 38.3624 17.8513 38.5864 17.9315 38.677C19.0224 39.9257 19.9338 45.4925 14.1017 44.4821C14.4653 45.8404 17.6671 49.5246 18.7249 50.7781L20.4108 52.8943C18.4793 52.146 14.8478 48.0138 13.5869 45.9214C10.4701 40.7502 12.9305 35.7935 15.4192 37.2662L15.4239 37.2614ZM17.3223 45.7928C18.111 45.0159 18.791 44.5965 19.386 43.4097C20.3022 41.5795 19.8158 41.5891 19.9386 39.7827C21.4308 41.4175 19.7922 45.4782 17.3223 45.7928ZM21.5678 48.1186C21.5678 51.6408 22.3281 53.4138 22.3848 54.7244C21.7331 53.4853 21.5159 53.1421 21.2797 51.4835C20.8689 48.5428 20.7319 41.856 23.929 41.0934C23.5559 41.6319 22.7531 41.9227 22.125 43.872C21.7047 45.1636 21.5678 46.6697 21.5678 48.1186ZM35.787 60.3818C34.7197 60.5153 30.172 59.2761 28.9678 58.8996C26.6963 58.1894 24.8829 57.0503 23.9526 55.2773C22.824 53.1326 23.0081 50.23 23.1781 47.6515C23.3482 45.0778 23.4143 42.0514 26.2194 42.0418C25.2277 42.4946 24.354 42.7234 23.9951 43.8625C23.6646 44.911 23.7118 46.5363 23.6598 47.7135C23.4001 53.6521 23.7779 56.7214 29.492 58.5087C30.2523 58.747 35.6453 60.3961 35.787 60.3818ZM54.9506 40.6549C54.4783 41.0171 52.561 40.6215 51.8716 40.5739C50.7051 40.4928 49.567 40.4404 48.4006 40.3928C43.2154 40.183 36.2781 40.1926 31.0882 40.5739C30.0823 40.6501 28.7978 40.8884 27.8628 40.8646C34.0822 39.654 41.945 39.6635 48.4714 39.7875L53.7369 40.0496C54.3886 40.1163 54.9081 40.021 54.9553 40.6549H54.9506ZM52.646 41.5509L50.6437 41.732C50.5871 44.1627 50.0676 61.5876 50.3509 62.4265C51.5079 62.5647 53.0569 62.8888 54.1761 62.8125C55.437 60.8918 55.7723 56.4736 54.9506 54.2621C54.5586 53.1993 54.1053 52.9133 53.5905 52.0983C52.5516 50.4588 52.7358 48.376 52.698 46.2169C52.6319 42.5804 52.3627 41.8274 55.4087 42.2658C56.2162 46.4457 56.4429 58.2466 56.2634 62.7315C53.0758 64.2233 42.0348 61.5495 38.6205 60.6916C35.9617 60.0244 33.1236 59.4953 30.7293 58.4754C28.3917 57.4793 26.413 55.8635 25.681 53.2517C25.0577 51.0402 25.1663 46.3027 26.0021 44.2485C26.4838 43.0713 27.5133 42.2801 28.6514 41.7606C29.917 41.1839 31.4046 40.9933 32.9252 40.9456C36.5709 40.8265 49.4584 40.9838 52.646 41.5462V41.5509ZM50.0109 34.9117C50.6248 33.6582 49.9637 30.1552 49.7087 28.7206C50.2848 28.9684 51.4182 29.812 51.8857 30.2076C52.9341 31.0941 54.3319 37.5236 54.4264 38.8581C49.5765 38.8628 44.6793 38.6865 39.7869 38.7056C31.9713 38.7341 26.7294 38.9057 19.1971 36.985C17.6104 36.5799 14.4417 35.4741 13.1052 36.5274C11.6979 37.6332 11.0179 39.4252 11.0321 41.875C11.051 44.749 11.7971 45.6593 12.9683 47.4847C14.8572 50.4254 17.5112 52.9133 20.1558 55.1629C26.0872 60.2102 40.278 63.5989 48.2589 64.3996C51.0074 64.6761 52.7027 64.4664 55.3425 64.2996L55.3284 65.1956C50.8468 66.1345 44.4007 64.6618 43.6876 64.9382C47.0075 66.6254 51.6968 66.3442 55.3 65.329C55.3378 67.5214 53.6094 69.9855 52.816 71.7061C49.1703 71.8443 45.2366 69.9045 43.2815 66.9829C43.0217 66.592 42.7856 66.0678 42.5023 65.677C42.5637 68.3317 47.8197 72.359 52.3863 72.34C52.2777 73.2312 51.966 73.3599 51.0404 73.4362C48.6839 73.6316 46.9461 73.0644 45.1516 71.7394C43.7868 70.729 41.3642 67.8694 41.0619 65.5483C41.0667 67.2355 42.9604 70.5146 44.3865 71.6965C46.573 73.5172 47.8717 74.2417 51.6118 73.9843C51.1254 75.7001 49.0003 77.8782 47.4986 78.841C46.3841 79.5559 45.4113 78.9077 44.1787 78.4215C39.003 76.3816 33.6997 73.8413 28.9631 71.2438C26.5547 69.9188 13.4925 62.9412 12.2505 61.0967C11.3579 59.7718 10.3993 55.7873 10.2765 53.8665C12.156 55.3107 15.2917 59.0759 16.869 61.0491C17.1854 61.4447 17.549 61.683 17.7946 62.0404C15.4334 57.8796 13.5208 56.5832 10.8526 53.4138C10.6165 53.1326 10.5315 53.0849 10.3237 52.8323L10.0073 53.5901C9.97426 53.5377 5.85631 48.5047 4.85043 46.9843C4.05707 45.7832 3.35815 44.7013 2.73006 43.1523C2.34755 42.1943 1.45501 39.5968 1.53529 38.5578C1.48335 38.9772 2.64034 41.9894 2.90007 42.5756C4.24124 45.5926 5.49268 46.9271 7.40526 49.2958C8.2553 50.3492 9.10533 51.4215 9.90342 52.4605C10.0026 52.289 9.95537 52.4748 9.99787 52.1793C10.0168 52.0364 10.0168 52.0125 10.0073 51.8648L9.7523 49.2291C10.5409 49.9536 12.7605 52.3795 14.1819 52.451C13.7144 51.4597 12.9683 50.7257 12.3496 49.7391C11.7452 48.7763 11.0699 47.8612 10.4512 46.9033C9.53507 45.483 9.40757 45.4734 9.45007 43.362C9.78536 26.2517 28.0045 21.3522 30.6679 23.1061C32.3585 24.2166 34.3183 25.9229 35.5225 27.5672C37.0384 29.6404 38.5732 32.8194 39.1116 33.501C38.8424 31.2228 36.9534 27.7054 35.6359 25.9657C35.3006 25.5177 34.9747 25.2175 34.6347 24.8028C33.8508 23.8544 33.27 23.4969 32.4435 22.6533C36.9015 22.2958 43.0973 24.779 46.743 26.8379C47.8575 27.4671 48.1692 27.4861 48.632 28.7301C49.6662 31.5135 49.6992 34.2397 50.0015 34.907L50.0109 34.9117Z" fill="#626262" stroke="#626262" stroke-width="0.199839" stroke-miterlimit="22.9256"/>
<path fill-rule="evenodd" clip-rule="evenodd" d="M29.5818 16.5002C34.4506 16.7528 37.3407 18.1016 40.9061 20.0891C42.5354 20.9947 44.0371 21.8716 45.5955 22.8201L48.972 25.1174C52.5752 27.8817 53.9164 32.767 54.9412 37.819C55.3426 39.797 55.7392 37.0946 56.2257 42.2086C56.6459 46.6125 57.0757 57.5793 56.5987 62.0928C56.4948 63.0556 56.3909 62.9031 56.1643 63.5703C55.6495 65.0764 56.8443 65.9772 54.8562 69.7043C53.3166 72.5973 51.5882 76.9678 48.9437 78.8123C46.9933 80.1754 45.978 80.4709 43.3571 79.6464C35.4376 77.168 16.2362 67.021 8.73227 62.0595C7.50916 61.2492 5.16684 59.9099 4.26486 58.9663C1.72892 56.3211 0.902499 44.3724 0.831662 39.8923C0.723047 33.0196 3.38177 33.3103 4.30736 28.4679C5.17629 23.9258 6.58829 21.3474 11.3438 20.5085C14.6117 19.9318 18.9752 15.9521 29.5818 16.4955V16.5002ZM8.75588 40.9551C7.92474 39.8685 6.35217 35.8411 5.87048 34.2778C5.17157 31.9948 4.79377 28.1772 5.49269 25.8132C5.75715 29.0637 5.46908 30.9272 6.51273 34.03C7.04637 35.6219 8.64727 39.4967 8.75588 40.9599V40.9551ZM14.3614 40.245C14.7203 40.7645 14.7534 41.1553 15.6081 41.079C16.3873 39.9781 15.4192 39.6397 15.0556 39.1917C16.3637 39.225 16.9398 40.183 16.2268 41.3126C15.6506 42.2181 13.8797 41.5557 14.3614 40.245ZM15.0792 36.9135C14.3614 37.738 13.4547 37.1899 13.3036 39.2155C13.0438 42.771 16.0898 43.3001 17.0485 41.1934C17.9363 39.2393 15.8253 37.5617 17.1382 37.9668C17.294 38.0144 17.5065 38.2384 17.5868 38.329C18.6777 39.5777 19.5891 45.1398 13.7569 44.1294C14.1206 45.4877 17.3224 49.1719 18.3802 50.4254L20.0661 52.5463C18.1346 51.798 14.5031 47.6658 13.2422 45.5735C10.1254 40.4023 12.5858 35.4455 15.0745 36.9182L15.0792 36.9135ZM16.9776 45.4448C17.7663 44.6679 18.4463 44.2485 19.0413 43.0617C19.9527 41.2316 19.4663 41.2459 19.5938 39.4347C21.0861 41.0695 19.4474 45.1302 16.9776 45.4448ZM21.2231 47.7707C21.2231 51.2928 21.9834 53.0658 22.0401 54.3765C21.3884 53.1373 21.1711 52.7941 20.935 51.1355C20.5242 48.1948 20.3872 41.508 23.5843 40.7454C23.2112 41.284 22.4084 41.5747 21.7803 43.5241C21.36 44.8157 21.2231 46.3218 21.2231 47.7707ZM35.4423 60.0339C34.375 60.1673 29.8273 58.9281 28.6231 58.5516C26.3516 57.8414 24.5382 56.7024 23.6079 54.9294C22.4792 52.7846 22.6634 49.882 22.8334 47.3036C23.0034 44.7299 23.0695 41.7034 25.8747 41.6939C24.8829 42.1514 24.0093 42.3754 23.6504 43.5145C23.3198 44.5631 23.3671 46.1883 23.3151 47.3655C23.0554 53.3041 23.4332 56.3735 29.1473 58.1608C29.9076 58.3991 35.3006 60.0482 35.4423 60.0339ZM54.6059 40.3069C54.1336 40.6692 52.2163 40.2736 51.5268 40.2259C50.3604 40.1449 49.2223 40.0925 48.0559 40.0448C42.8706 39.8351 35.9334 39.8399 30.7435 40.2259C29.7376 40.3022 28.4531 40.5405 27.5181 40.5214C33.7375 39.3108 41.6003 39.3156 48.1267 39.4443L53.3922 39.7064C54.0439 39.7731 54.5634 39.6778 54.6106 40.3117L54.6059 40.3069ZM52.3013 41.203L50.299 41.3841C50.2423 43.8148 49.7229 61.2397 50.0062 62.0785C51.1632 62.2167 52.7122 62.5408 53.8314 62.4646C55.0923 60.5438 55.4276 56.1257 54.6059 53.9142C54.2139 52.8513 53.7605 52.5654 53.2458 51.7504C52.2069 50.1108 52.391 48.028 52.3533 45.869C52.2872 42.2324 52.018 41.4794 55.0639 41.9179C55.8715 46.0978 56.0981 57.8986 55.9187 62.3835C52.7311 63.8753 41.69 61.2016 38.2757 60.3437C35.617 59.6764 32.7741 59.1474 30.3846 58.1274C28.047 57.1313 26.0683 55.5156 25.3363 52.9038C24.7129 50.6923 24.8216 45.9548 25.6574 43.9053C26.1391 42.7281 27.1686 41.9369 28.3067 41.4174C29.5723 40.8407 31.0599 40.6501 32.5805 40.6024C36.2262 40.4833 49.1137 40.6406 52.3013 41.1982V41.203ZM49.6662 34.5638C50.2801 33.3103 49.619 29.8072 49.364 28.3726C49.9401 28.6204 51.0735 29.464 51.541 29.8596C52.5894 30.7461 53.9872 37.1708 54.0817 38.5101C49.2317 38.5101 44.3346 38.3385 39.4422 38.3576C31.6266 38.3862 26.3847 38.5578 18.8524 36.637C17.2657 36.2319 14.0969 35.1262 12.7605 36.1795C11.3532 37.2852 10.6732 39.0773 10.6874 41.5271C10.7062 44.401 11.4524 45.3114 12.6235 47.1368C14.5125 50.0775 17.1665 52.5654 19.8111 54.815C25.7424 59.8623 39.9333 63.251 47.9142 64.0517C50.6626 64.3281 52.358 64.1184 54.9978 63.9516L54.9837 64.8476C50.5021 65.7913 44.056 64.3138 43.3429 64.5903C46.6628 66.2775 51.3521 65.9963 54.9553 64.9811C54.9931 67.1687 53.2647 69.6376 52.4713 71.3581C48.8256 71.4963 44.8918 69.5565 42.9368 66.6349C42.677 66.2441 42.4409 65.7198 42.1623 65.329C42.2237 67.9837 47.4797 72.0063 52.0463 71.992C51.9377 72.8833 51.626 73.012 50.7004 73.0882C48.3439 73.2836 46.6061 72.7165 44.8116 71.3915C43.4468 70.3811 41.0242 67.5214 40.7219 65.2003C40.7267 66.8875 42.6204 70.1666 44.0465 71.3486C46.233 73.1693 47.5317 73.8937 51.2718 73.6363C50.7854 75.3521 48.6603 77.5302 47.1586 78.493C46.0441 79.2079 45.0713 78.5597 43.8387 78.0736C38.663 76.0337 33.3597 73.4933 28.6231 70.8958C26.2147 69.5708 13.1525 62.5933 11.9105 60.7488C11.0179 59.4238 10.0593 55.4393 9.93649 53.5186C11.816 54.9627 14.9517 58.7279 16.529 60.7011C16.8454 61.0967 17.209 61.335 17.4546 61.6925C15.0934 57.5317 13.1808 56.2353 10.5126 53.0658C10.2765 52.7846 10.1915 52.7417 9.98371 52.4843L9.66731 53.2422C9.63425 53.1897 5.5163 48.1567 4.51043 46.6363C3.71706 45.4353 3.01814 44.3534 2.39006 42.7996C2.00754 41.8416 1.11501 39.2441 1.19529 38.2051C1.14334 38.6245 2.30034 41.6367 2.56007 42.2229C3.90124 45.2399 5.15268 46.5744 7.06526 48.9431C7.91529 49.9964 8.76533 51.0688 9.56342 52.1078C9.66259 51.9362 9.61537 52.1269 9.65787 51.8266C9.67676 51.6836 9.67676 51.6598 9.66731 51.5121L9.4123 48.8764C10.2009 49.6008 12.4205 52.0268 13.8419 52.0983C13.3744 51.1069 12.6283 50.373 12.0096 49.3864C11.4052 48.4189 10.7299 47.5085 10.1112 46.5505C9.19507 45.1302 9.06756 45.1207 9.11007 43.0093C9.44536 25.899 27.6645 21.0042 30.3279 22.7534C32.0185 23.8639 33.9783 25.5701 35.1825 27.2144C36.6984 29.2877 38.2332 32.4667 38.7716 33.1482C38.5024 30.87 36.6134 27.3527 35.2959 25.613C34.9606 25.1698 34.6347 24.8647 34.2947 24.4549C33.5108 23.5064 32.93 23.1489 32.1035 22.3053C36.5615 21.9479 42.7573 24.431 46.403 26.49C47.5175 27.1191 47.8292 27.1382 48.292 28.3821C49.3262 31.1655 49.3593 33.8965 49.6615 34.559L49.6662 34.5638Z" fill="url(#paint0_linear)"/>
</g>
<defs>
<linearGradient id="paint0_linear" x1="31.7021" y1="76.2672" x2="39.4546" y2="2.14505" gradientUnits="userSpaceOnUse">
<stop stop-color="#222222"/>
<stop offset="0.329412" stop-color="#777777"/>
<stop offset="1" stop-color="#CDCDCD"/>
</linearGradient>
<clipPath id="clip0">
<rect width="85" height="81" fill="white"/>
</clipPath>
</defs>
</svg>
