<svg width="78" height="48" viewBox="0 0 78 48" fill="none" xmlns="http://www.w3.org/2000/svg">
<path d="M36.2969 8H61.0938L58.2812 11.5H35L36.2969 8Z" fill="url(#paint0_linear)"/>
<path d="M35 17H55.129L56.6774 19.08H59.2581L61.8387 17H67L65.9677 30H35V17Z" fill="url(#paint1_linear)"/>
<path fill-rule="evenodd" clip-rule="evenodd" d="M61.9971 30.7206C64.2155 30.7229 65.7254 30.7245 66.9146 29.1151C67.8238 27.885 67.7699 25.865 67.7199 23.9908C67.7066 23.4947 67.6936 23.0087 67.6989 22.5504C68.4824 22.0289 69.3565 21.6304 70.2592 21.2187C72.3979 20.2435 74.6974 19.1949 76.3347 16.2655C78.5458 12.3092 78.0207 7.94892 75.5896 4.6432C73.7575 2.151 69.7639 -0.336286 65.0129 0.73918C63.3336 1.1195 59.5372 3.05269 56.8028 4.44508C55.9916 4.85815 55.2739 5.22363 54.7326 5.48685C54.3566 5.66972 54.0269 5.83229 53.7341 5.97674C52.5618 6.55497 51.9786 6.84261 51.362 6.97854C50.7517 7.11309 50.1086 7.09901 48.8289 7.07097C48.3363 7.06019 47.7495 7.04733 47.0339 7.04009C46.6314 7.03595 45.9909 6.81484 45.0682 6.49633C42.427 5.58463 37.474 3.87491 29.1754 4.17157C24.7453 4.3296 20.484 5.23535 16.6878 6.66377C13.572 7.83639 9.4555 10.0076 7.18758 12.204C6.95095 12.4333 6.73072 12.6312 6.5181 12.8223C6.10675 13.1921 5.72391 13.5362 5.306 14.0315C3.50572 16.1665 2.02454 18.1194 1.10454 21.0802C-2.63967 33.1317 7.76709 42.8668 19.6978 46.191C28.2212 48.5645 37.6468 48.1734 45.5857 45.1936C52.0398 42.7709 57.9658 38.4438 60.6641 32.0777C60.757 31.8588 60.8339 31.6353 60.9085 31.4186C60.9932 31.1721 61.075 30.9345 61.1739 30.7225C61.4588 30.72 61.733 30.7203 61.9971 30.7206ZM59.6126 30.7249L45.3449 30.7188L45.189 31.2454C43.9606 35.397 43.4902 36.9867 40.5523 40.7675C40.5111 40.8206 40.469 40.8751 40.426 40.9307L40.4254 40.9315C39.7425 41.8155 38.8415 42.9817 37.8406 43.0187C36.3099 43.0771 35.2267 41.1752 36.934 39.681C37.2202 39.4299 37.2834 39.3469 37.4467 39.1323C37.4668 39.1059 37.4884 39.0776 37.5121 39.0467C37.5208 39.0353 37.5299 39.0235 37.5392 39.0114C37.7005 38.8018 37.8511 38.6179 38.0022 38.4334C38.2119 38.1774 38.4225 37.9203 38.6634 37.5922C39.5657 36.3654 41.6368 32.6729 41.7688 30.7194L37.6896 30.7022C37.3094 33.3905 33.5065 40.4865 31.2887 40.4988C30.1492 40.505 29.242 39.4307 29.6651 38.2114C29.7663 37.9189 30.0726 37.5742 30.4933 37.1005C31.4899 35.9785 33.1288 34.1334 34.2076 30.5478C34.3702 30.0079 34.4815 29.4933 34.586 28.9202C34.7114 28.2342 34.6842 28.0461 34.6366 27.7171C34.6142 27.5619 34.5872 27.3753 34.5695 27.0902C34.521 26.313 34.5319 25.4829 34.5428 24.6592C34.55 24.1131 34.5571 23.5698 34.5469 23.0466C34.4931 20.2605 32.3377 16.9333 30.571 14.8389C30.5216 14.7803 30.4607 14.7144 30.3932 14.6415C29.8914 14.099 29.0317 13.1697 29.9273 12.0042C31.1683 10.3895 32.7038 11.9815 33.5982 13.0698C33.6925 13.1846 33.789 13.3096 33.8871 13.4366C34.0923 13.7025 34.3045 13.9774 34.5188 14.1871C34.6029 13.4221 34.5947 12.7191 34.587 12.0669C34.5692 10.539 34.5546 9.2899 35.7383 8.17459C36.9434 7.03922 38.2169 7.04648 39.814 7.05558C40.4157 7.05901 41.0634 7.0627 41.7706 7.00566C40.7504 6.30774 35.1808 5.71743 33.5126 5.60675C25.1341 5.04965 16.8382 7.19874 10.271 11.5824C9.52751 12.0789 8.85137 12.659 8.20829 13.2107C8.01117 13.3799 7.81716 13.5463 7.62527 13.7069C6.78045 14.4134 6.02122 15.3327 5.29255 16.2501C1.88945 20.5311 0.717585 26.0246 2.79723 31.2974C3.57786 33.2762 5.15012 35.7905 6.65942 37.1906C6.91073 37.4237 7.1411 37.6395 7.35702 37.8418C8.88531 39.2733 9.68933 40.0265 12.067 41.4273C14.1509 42.6553 16.3021 43.6041 18.8023 44.428C29.8222 48.0627 44.4121 46.5039 53.4342 39.1614C55.3959 37.5651 56.649 36.1945 58.0624 34.0313C58.4622 33.4194 59.4898 31.5354 59.6126 30.7249ZM54.9716 6.99828L61.625 7.03702C61.82 6.9829 63.3581 5.00415 63.6209 4.64381C64.4064 3.56712 65.3002 4.48394 64.9548 5.22428L57.8301 14.2345C57.7587 14.3239 57.6755 14.4223 57.5857 14.5285C56.8594 15.3873 55.7006 16.7576 56.8544 18.0665C57.2775 18.5462 58.0043 18.9385 58.8889 18.7023C59.56 18.5235 59.9367 18.0228 60.2894 17.5539C60.3502 17.4732 60.4102 17.3934 60.4709 17.3163L65.6419 10.8242C66.0244 10.8859 66.387 10.9849 66.7614 11.0871C67.8678 11.3892 69.0765 11.7192 71.2023 11.1968C71.3273 11.166 71.5337 11.099 71.7628 11.0247C72.2104 10.8794 72.7446 10.706 72.9286 10.7191C73.5643 10.7646 73.7459 11.5332 73.3039 11.9353C72.8112 12.3836 70.668 12.7839 69.8733 12.8386C69.556 12.8605 69.1957 12.8475 68.8424 12.8347C68.421 12.8194 68.0096 12.8045 67.6934 12.8497L67.6952 20.8742C68.1366 20.8035 71.5782 19.0313 72.0996 18.6999C76.8549 15.677 77.7407 9.27465 73.958 4.9033C72.0471 2.69519 68.0596 0.955011 64.0433 2.51932C63.2077 2.84522 55.3647 6.67484 54.9716 6.99828ZM39.8816 8.46147C38.4482 8.44611 35.9058 8.41887 35.9749 11.1015L35.9566 17.2942C35.9484 18.4253 35.9519 19.5508 35.9554 20.673C35.9589 21.8221 35.9625 22.9678 35.9535 24.1129C35.9518 24.339 35.9478 24.5622 35.9439 24.7818C35.9077 26.8112 35.8772 28.5189 37.6865 29.1575C38.4204 29.4169 49.0171 29.3559 54.752 29.3229C56.1156 29.3151 57.2044 29.3088 57.8203 29.3088C58.8139 29.3088 59.6915 29.3229 60.4668 29.3354C65.801 29.4213 66.2838 29.429 66.2838 24.2186C66.2838 23.477 66.2882 22.7312 66.2926 21.9841C66.3018 20.4206 66.3111 18.8515 66.2801 17.3028L66.2926 11.9353L62.2467 17.2954C62.0713 17.6595 61.169 18.7423 60.8633 19.0922C59.2385 20.9492 55.6117 20.5015 54.9985 17.2936C54.9985 17.2936 54.8339 16.6805 55 16C55.2964 14.7854 57 13 57 13L58.4823 11.123C58.7446 10.8869 60.2612 8.91063 60.532 8.51032C59.7397 8.36453 49.0823 8.42 43.3819 8.44967C41.8696 8.45754 40.7062 8.46359 40.1684 8.46359C40.0793 8.46359 39.9832 8.46256 39.8816 8.46147Z" fill="#626262"/>
<path fill-rule="evenodd" clip-rule="evenodd" d="M27.2896 26.8775C27.0695 29.3789 26.2253 31.6196 25.0528 33.2583C24.7288 33.7109 24.4629 34.0374 24.1188 34.4445C23.8626 34.747 23.3088 35.2525 23.1621 35.7112C22.7666 36.9508 23.7557 38.1278 25.0498 37.9531C26.3268 37.781 28.3563 34.6191 29.0446 33.2331C30.0655 31.1794 30.6725 28.9042 30.7434 26.2411C30.8357 22.7656 29.6144 18.8979 27.6356 16.3061C27.1747 15.7023 26.1177 14.347 25.5297 14.0586C24.0754 13.3466 21.9841 15.0609 23.7544 17.0181C24.8774 18.259 25.6281 19.2859 26.3604 20.9966C26.5517 21.4436 26.7504 22.0548 26.8886 22.5855C26.9833 22.947 27.2003 24.2346 27.259 24.3619L27.2884 26.8781L27.2896 26.8775Z" fill="#626262" stroke="#626262" stroke-width="0.200064" stroke-miterlimit="22.9256"/>
<path fill-rule="evenodd" clip-rule="evenodd" d="M22.7776 22.8929C22.8485 21.3409 20.4363 17.4332 19.155 16.6498C18.7412 16.3965 18.2845 16.3485 17.7961 16.493C17.3688 16.619 17.0913 16.838 16.8425 17.2383C15.3955 19.5626 20.4443 20.4456 19.7309 26.9562C19.2455 31.3859 16.6181 32.1785 16.5808 33.6838C16.5582 34.6117 17.9306 36.9078 20.2401 34.1579C20.6552 33.6635 21.2102 32.8888 21.5837 32.2093C22.5538 30.4439 22.7036 29.4859 23.167 27.3024C23.1884 26.3234 23.3247 23.4758 22.7776 22.8923V22.8929Z" fill="#626262" stroke="#626262" stroke-width="0.200064" stroke-miterlimit="22.9256"/>
<path fill-rule="evenodd" clip-rule="evenodd" d="M22.448 22.4102C22.5189 20.8582 20.1068 16.9505 18.8255 16.1677C18.4116 15.915 17.9556 15.8658 17.4666 16.0103C17.0393 16.137 16.7623 16.3559 16.5129 16.7556C15.0666 19.0799 20.1153 19.9629 19.4013 26.4741C18.9159 30.9039 16.2886 31.6965 16.2519 33.2018C16.2293 34.1297 17.6017 36.4257 19.9105 33.6759C20.3262 33.1809 20.8813 32.4067 21.2548 31.7272C22.2249 29.9625 22.3741 29.0038 22.838 26.8209C22.8594 25.842 22.9958 22.9944 22.4486 22.4102H22.448Z" fill="url(#paint2_linear)"/>
<path fill-rule="evenodd" clip-rule="evenodd" d="M27.2896 26.8775C27.0695 29.3789 26.2253 31.6196 25.0528 33.2583C24.7288 33.7109 24.4629 34.0374 24.1188 34.4445C23.8626 34.747 23.3088 35.2525 23.1621 35.7112C22.7666 36.9508 23.7557 38.1278 25.0498 37.9531C26.3268 37.781 28.3563 34.6191 29.0446 33.2331C30.0655 31.1794 30.6725 28.9042 30.7434 26.2411C30.8357 22.7656 29.6144 18.8979 27.6356 16.3061C27.1747 15.7023 26.1177 14.347 25.5297 14.0586C24.0754 13.3466 21.9841 15.0609 23.7544 17.0181C24.8774 18.259 25.6281 19.2859 26.3604 20.9966C26.5517 21.4436 26.7504 22.0548 26.8886 22.5855C26.9833 22.947 27.2003 24.2346 27.259 24.3619L27.2884 26.8781L27.2896 26.8775Z" fill="#E6000A" stroke="#E6000A" stroke-width="0.200064" stroke-miterlimit="22.9256"/>
<path fill-rule="evenodd" clip-rule="evenodd" d="M22.7776 22.8929C22.8485 21.3409 20.4363 17.4332 19.155 16.6498C18.7412 16.3965 18.2845 16.3485 17.7961 16.493C17.3688 16.619 17.0913 16.838 16.8425 17.2383C15.3955 19.5626 20.4443 20.4456 19.7309 26.9562C19.2455 31.3859 16.6181 32.1785 16.5808 33.6838C16.5582 34.6117 17.9306 36.9078 20.2401 34.1579C20.6552 33.6635 21.2102 32.8888 21.5837 32.2093C22.5538 30.4439 22.7036 29.4859 23.167 27.3024C23.1884 26.3234 23.3247 23.4758 22.7776 22.8923V22.8929Z" fill="#E6000A" stroke="#E6000A" stroke-width="0.200064" stroke-miterlimit="22.9256"/>
<path fill-rule="evenodd" clip-rule="evenodd" d="M45.2188 30.7207C43.869 35.2716 43.6112 36.8316 40.5523 40.7688C39.856 41.6647 38.9048 42.9806 37.8405 43.02C36.3098 43.0784 35.2266 41.1765 36.934 39.6823C37.2684 39.389 37.2983 39.325 37.5392 39.0126C37.9243 38.5121 38.2489 38.1579 38.6633 37.5934C39.5656 36.3667 41.6367 32.6742 41.7687 30.7207L37.6895 30.7035C37.3093 33.3918 33.5064 40.4878 31.2886 40.5001C30.1492 40.5062 29.242 39.432 29.665 38.2127C30.0061 37.2276 32.6732 35.6485 34.2076 30.5491C34.3702 30.0092 34.4814 29.4946 34.586 28.9215C34.7706 27.9118 34.6245 27.9807 34.5695 27.0915C34.4888 25.799 34.5725 24.3601 34.5468 23.0479C34.4931 20.2618 32.3376 16.9345 30.571 14.8402C30.1541 14.3458 28.9113 13.3275 29.9273 12.0055C31.1682 10.3908 32.7038 11.9827 33.5981 13.0711C33.8897 13.4259 34.2021 13.8785 34.5187 14.1884L34.9435 28.765C34.975 29.8451 35.8587 30.7049 36.9393 30.7067L45.2188 30.7207Z" fill="#E6000A" stroke="#E6000A" stroke-width="0.200064" stroke-miterlimit="22.9256"/>
<defs>
<linearGradient id="paint0_linear" x1="50.5779" y1="8" x2="50.5" y2="11" gradientUnits="userSpaceOnUse">
<stop stop-color="#828282" stop-opacity="0.21"/>
<stop offset="1" stop-color="#828282"/>
</linearGradient>
<linearGradient id="paint1_linear" x1="51" y1="17" x2="51" y2="30" gradientUnits="userSpaceOnUse">
<stop stop-color="#6A6969"/>
<stop offset="1" stop-color="#C4C4C4" stop-opacity="0.62"/>
</linearGradient>
<linearGradient id="paint2_linear" x1="14.1093" y1="59.6715" x2="25.6792" y2="-21.1871" gradientUnits="userSpaceOnUse">
<stop stop-color="#010101"/>
<stop offset="0.690196" stop-color="#7F7F7F"/>
<stop offset="1" stop-color="#FEFEFE"/>
</linearGradient>
</defs>
</svg>
