<svg width="68" height="48" viewBox="0 0 68 48" fill="none" xmlns="http://www.w3.org/2000/svg">
<g clip-path="url(#clip0)">
<path fill-rule="evenodd" clip-rule="evenodd" d="M28.8146 28.8664C29.3959 28.2356 30.1498 27.3663 31.3652 27.6845C28.4805 27.9043 28.5021 31.576 31.1801 30.8052C31.7063 30.6536 32.3097 30.2461 32.5856 29.7015L39.6144 31.1444C40.0417 30.7138 40.7806 29.551 42.183 29.9003C39.2276 30.2365 39.4107 33.7351 41.9924 33.027C42.5542 32.8729 43.103 32.4945 43.4034 31.9304L44.7442 32.1959L46.2379 29.1861C45.4068 29.0104 44.6128 28.8408 43.8167 28.6807C42.969 28.5106 42.331 28.2732 42.4037 27.4205C42.4228 27.1982 42.8296 25.7914 43.5012 25.7929C44.1428 25.7954 45.2021 26.1799 45.9264 26.2431C45.7057 25.1571 44.3524 24.9508 43.3186 24.7746C42.7343 24.6758 42.9063 24.8855 42.478 25.1294L43.3829 23.2489L30.4262 20.5779C30.1403 20.8811 28.6325 24.0625 28.3034 24.7179C27.541 26.2366 27.1909 28.3043 28.8141 28.8659L28.8146 28.8664ZM31.4479 24.9382C31.9746 25.0376 32.2936 25.27 32.4291 24.6838C32.2134 24.4961 32.0218 24.5152 31.7068 24.4419L32.0192 23.7583C32.4586 23.8421 32.9933 24.0042 33.364 23.9601L33.5366 23.4808C33.1468 23.3573 31.9014 23.015 31.635 23.1661C31.4474 23.2725 30.6805 24.9563 30.4563 25.3909C30.2943 25.7036 30.0716 25.951 30.4217 26.085C30.9905 26.3033 31.2092 25.3588 31.4479 24.9382ZM37.298 27.4617L38.7567 27.8165C39.1855 27.8883 39.4343 27.822 39.3651 27.3909C39.1002 27.1982 38.5395 27.1786 38.1618 27.0451L38.4793 26.4057C39.0069 26.4308 39.4433 26.7646 39.4769 26.0971L38.7672 25.8868C39.2036 24.6085 39.4313 25.5776 40.4596 25.4085L40.6321 24.9402C40.2203 24.7997 39.6344 24.6938 39.2251 24.616C38.565 24.4911 38.5926 24.6652 38.3318 25.2017C38.084 25.7111 37.3326 26.9723 37.2985 27.4622L37.298 27.4617ZM34.9761 26.9904L36.8431 27.4135C37.4746 26.6476 36.5817 26.8037 35.8404 26.5754L36.1644 25.9204C36.5597 25.9656 36.9454 26.1708 37.126 25.8511C37.3371 25.4788 36.7658 25.5008 36.4358 25.3949L36.7413 24.7636C37.4134 24.7169 38.2415 25.3929 38.2791 24.4584C37.8794 24.3124 37.3407 24.2266 36.9133 24.1418C36.2387 24.0078 36.2823 24.1759 36.0139 24.7134C35.7797 25.1821 35.0062 26.5457 34.9761 26.9899V26.9904ZM33.7227 25.4798C34.0326 25.6504 33.9263 26.0489 33.9449 26.8178C35.0148 27.0993 34.628 26.1974 34.6526 25.539C35.2184 25.4115 35.6628 25.0527 35.6899 24.2155C35.5555 23.8 34.7835 23.7112 34.3612 23.6248C33.5682 23.4627 33.6891 23.8376 32.7731 25.6524C32.6222 25.952 32.097 26.7841 32.9322 26.5563C33.3389 26.4449 33.3164 25.6494 33.7232 25.4803L33.7227 25.4798ZM31.2032 28.5281C29.9993 28.5372 29.6768 30.0222 30.7678 30.0654C31.8026 30.106 32.4165 28.5196 31.2032 28.5281ZM41.9669 30.7625C40.6958 30.8744 40.606 32.3133 41.6448 32.2867C42.6947 32.2596 43.1978 30.6541 41.9669 30.7625Z" fill="#626262"/>
<path fill-rule="evenodd" clip-rule="evenodd" d="M21.9346 20.1127L28.6851 21.5235L29.285 20.3541L22.512 18.9554L21.9346 20.1127Z" fill="#626262"/>
<path fill-rule="evenodd" clip-rule="evenodd" d="M43.5999 26.206C43.3461 26.2366 43.2764 26.0866 42.8787 27.0226C42.6825 27.4838 42.7101 27.8763 43.0512 28.0951C43.2674 28.2331 45.4879 28.7139 45.7794 28.7029C46.5047 28.6773 46.6195 27.0888 46.1862 26.745C45.9534 26.5608 43.8939 26.1709 43.5999 26.206Z" fill="#626262"/>
<path fill-rule="evenodd" clip-rule="evenodd" d="M17.4169 19.2028L21.3453 20.0174L21.9086 18.8515L17.9972 18.0315L17.4169 19.2028Z" fill="#626262"/>
<path fill-rule="evenodd" clip-rule="evenodd" d="M24.0228 22.5644L27.7456 23.3468C27.9262 23.0111 28.2341 22.4916 28.2793 22.1509L24.6237 21.4021L24.0228 22.5644Z" fill="#626262"/>
<path fill-rule="evenodd" clip-rule="evenodd" d="M24.2967 24.6472L26.8197 25.1691L27.4467 23.9998L24.8635 23.4693L24.2967 24.6472Z" fill="#626262"/>
<path fill-rule="evenodd" clip-rule="evenodd" d="M22.1122 22.1775L23.3998 22.457L24.0033 21.2901L22.7227 21.0116L22.1122 22.1775Z" fill="#626262"/>
<path fill-rule="evenodd" clip-rule="evenodd" d="M33.8761 24.9629C34.3998 25.0793 35.0177 25.0933 34.8853 24.4223L34.2503 24.2025L33.8761 24.9629Z" fill="#626262"/>
<path fill-rule="evenodd" clip-rule="evenodd" d="M28.7448 28.7304C29.3262 28.0996 30.0801 27.2303 31.2954 27.5485C28.4103 27.7678 28.4323 31.44 31.1103 30.6687C31.6365 30.5171 32.2399 30.1096 32.5158 29.5655L39.5446 31.0079C39.972 30.5773 40.7108 29.4145 42.1133 29.7643C39.1574 30.1005 39.341 33.5986 41.9227 32.891C42.4845 32.7369 43.0332 32.358 43.3337 31.7944L44.6744 32.0599L46.1682 29.0506C45.337 28.8745 44.5425 28.7053 43.747 28.5452C42.8993 28.3751 42.2613 28.1372 42.334 27.285C42.3531 27.0627 42.7598 25.6564 43.4315 25.6579C44.0725 25.6599 45.1319 26.0454 45.8567 26.1076C45.6355 25.0221 44.2827 24.8158 43.2489 24.6396C42.6645 24.5408 42.8366 24.7505 42.4077 24.9945L43.3131 23.1139L30.3559 20.4435C30.07 20.7461 28.5627 23.928 28.2332 24.5829C27.4708 26.1016 27.1207 28.1693 28.7438 28.7309L28.7448 28.7304ZM31.3782 24.8022C31.9049 24.9016 32.2239 25.134 32.3588 24.5478C32.1431 24.3601 31.9515 24.3792 31.6365 24.3054L31.9495 23.6223C32.3889 23.7061 32.9236 23.8682 33.2943 23.8241L33.4668 23.3448C33.0771 23.2213 31.8316 22.8791 31.5658 23.0306C31.3782 23.1365 30.6113 24.8203 30.3865 25.2549C30.2245 25.5676 30.0018 25.8145 30.3524 25.9495C30.9207 26.1673 31.1394 25.2228 31.3787 24.8022H31.3782ZM37.2283 27.3257L38.6869 27.68C39.1158 27.7523 39.3646 27.6855 39.2953 27.2544C39.03 27.0617 38.4697 27.0421 38.0915 26.9086L38.409 26.2692C38.9367 26.2943 39.3731 26.6286 39.4067 25.9606L38.6969 25.7498C39.1333 24.4715 39.361 25.4411 40.3893 25.2715L40.5619 24.8032C40.1501 24.6632 39.5642 24.5573 39.1549 24.4795C38.4948 24.3541 38.5224 24.5282 38.2616 25.0647C38.0138 25.5746 37.2624 26.8353 37.2283 27.3252V27.3257ZM34.9064 26.8544L36.7733 27.2775C37.4048 26.5111 36.5115 26.6672 35.7706 26.4394L36.0947 25.7844C36.4904 25.8291 36.8757 26.0343 37.0562 25.7151C37.2669 25.3423 36.6961 25.3648 36.3655 25.2584L36.671 24.6271C37.3436 24.5804 38.1713 25.2559 38.2089 24.3219C37.8091 24.1759 37.2704 24.0901 36.8436 24.0053C36.1689 23.8713 36.2125 24.0394 35.9442 24.5774C35.7099 25.0461 34.9365 26.4092 34.9064 26.8539V26.8544ZM33.6524 25.3438C33.9624 25.5139 33.8566 25.9129 33.8746 26.6818C34.9445 26.9633 34.5578 26.0614 34.5824 25.403C35.1482 25.2755 35.5921 24.9167 35.6197 24.0795C35.4852 23.664 34.7133 23.5747 34.2909 23.4888C33.4979 23.3267 33.6188 23.7016 32.7029 25.5164C32.5514 25.8165 32.0267 26.6486 32.8619 26.4203C33.2687 26.3089 33.2461 25.5134 33.6529 25.3443L33.6524 25.3438ZM31.1329 28.3922C29.9291 28.4012 29.6066 29.8862 30.698 29.9294C31.7328 29.9705 32.3468 28.3836 31.1329 28.3922ZM41.8966 30.6265C40.6256 30.7384 40.5358 32.1773 41.5751 32.1502C42.6249 32.1231 43.128 30.5176 41.8966 30.6265Z" fill="#E6000A"/>
<path fill-rule="evenodd" clip-rule="evenodd" d="M21.865 19.9762L28.6154 21.3865L29.2158 20.2181L22.4423 18.8189L21.865 19.9762Z" fill="#E6000A"/>
<path fill-rule="evenodd" clip-rule="evenodd" d="M43.5303 26.0695C43.277 26.1001 43.2068 25.95 42.809 26.886C42.6124 27.3472 42.6405 27.7397 42.9816 27.958C43.1978 28.0965 45.4183 28.5768 45.7098 28.5663C46.4351 28.5407 46.5499 26.9523 46.116 26.6085C45.8833 26.4238 43.8238 26.0343 43.5298 26.069L43.5303 26.0695Z" fill="#E6000A"/>
<path fill-rule="evenodd" clip-rule="evenodd" d="M17.3476 19.0668L21.2756 19.8814L21.8389 18.7155L17.9279 17.8954L17.3476 19.0668Z" fill="#E6000A"/>
<path fill-rule="evenodd" clip-rule="evenodd" d="M23.9531 22.4284L27.6754 23.2113C27.856 22.8751 28.1645 22.3561 28.2096 22.0149L24.554 21.2666L23.9531 22.4284Z" fill="#E6000A"/>
<path fill-rule="evenodd" clip-rule="evenodd" d="M24.2275 24.5112L26.7505 25.0331L27.377 23.8632L24.7943 23.3333L24.2275 24.5112Z" fill="#E6000A"/>
<path fill-rule="evenodd" clip-rule="evenodd" d="M22.0425 22.0414L23.3301 22.321L23.9335 21.1546L22.6529 20.8751L22.0425 22.0414Z" fill="#E6000A"/>
<path fill-rule="evenodd" clip-rule="evenodd" d="M33.8069 24.8263C34.3306 24.9428 34.9485 24.9568 34.8156 24.2858L34.1806 24.066L33.8064 24.8263H33.8069Z" fill="#E6000A"/>
<path fill-rule="evenodd" clip-rule="evenodd" d="M50.3334 12.6378C51.4811 12.6985 52.871 12.8541 54.1415 12.9489C54.9968 13.0132 57.3201 13.3349 58.0474 13.2215C58.1352 13.3018 58.071 13.243 58.1723 13.3289L55.7135 16.2784C55.5861 16.432 55.6609 16.3241 55.5926 16.4571L57.5067 17.5998C58.1483 18.057 58.703 18.4174 59.3265 18.8886C60.3217 19.6404 61.7758 20.8876 62.617 21.8397C62.8913 22.1503 63.1175 22.338 63.3854 22.6728C65.3185 25.0948 67.6504 28.2531 67.8917 32.1161C67.8496 31.8375 67.8882 32.0684 67.9755 31.9725C67.9439 32.8533 68.0557 33.6769 67.9619 34.5868C67.6805 37.3065 66.6458 39.849 64.7126 41.741C63.3172 43.1071 62.0818 44.2233 60.1446 45.086C55.2084 47.2842 49.9507 47.9402 44.4768 47.1457C43.7305 47.0373 42.9084 46.8612 42.1861 46.7799C40.8217 46.5124 39.8868 46.2539 38.5952 45.879C38.382 45.8173 38.238 45.7711 38.0138 45.7008C37.8087 45.6366 37.6251 45.6004 37.4791 45.4464C38.8038 45.6757 39.7889 46.0787 41.5907 46.3081C45.7624 46.8396 50.4578 46.6172 54.0618 44.5626C58.7632 41.8815 60.3623 37.18 57.8217 32.1276C57.7169 31.9198 57.5514 31.4461 57.3467 31.3693C57.3191 31.0496 57.3156 31.0421 57.0733 30.8815C56.952 30.1783 54.6381 27.7011 54.1024 27.2403C53.7011 26.8966 50.9143 24.5096 50.2356 24.4183C50.1132 24.192 49.4662 23.8718 49.1923 23.7533C48.7835 24.1824 48.4811 24.5608 48.1154 24.9849L47.0605 26.1578C46.7365 25.7478 45.6641 24.1553 45.4243 24.0233C45.3832 23.7955 45.2292 23.6419 45.0632 23.4095L42.1881 19.4322C42.0797 19.1687 39.8592 16.0867 39.6746 15.9226C39.5251 15.5753 39.1268 15.1191 38.9026 14.7913C38.4352 14.1093 36.807 11.9567 36.5642 11.4774L50.3349 12.6378H50.3334ZM65.2508 27.4797C64.995 28.093 64.5275 28.9206 64.2792 29.4496C64.0666 29.5414 63.8549 30.0097 63.565 30.1944L63.6693 24.8615C63.9728 25.0185 65.2313 27.1124 65.2513 27.4792L65.2508 27.4797Z" fill="#E6000A"/>
<path fill-rule="evenodd" clip-rule="evenodd" d="M30.7211 2.09589C30.8721 2.26402 31.0506 2.26804 31.2964 2.36189L31.4158 2.40405L31.2292 2.44319C30.2867 2.29815 29.1812 1.90167 28.1334 1.72601C27.5224 1.62413 25.2266 1.27031 24.8841 1.39227C24.5505 1.13882 21.4988 1.36115 21.1291 1.4018C17.6466 1.78323 14.9816 2.75937 12.4942 4.8808C10.0374 6.97663 9.16664 10.5159 10.1242 13.7158C10.3464 14.4581 10.9001 16.035 11.3792 16.5424C11.5964 17.1893 12.8182 18.7707 13.3695 19.3865L15.5514 21.4633C15.6999 21.5792 15.7706 21.6213 15.9261 21.7664C16.221 21.9405 16.4879 22.188 16.7663 22.3852C17.1074 22.6271 17.2719 22.7154 17.6165 22.9814L19.4934 24.1026C19.8606 23.9536 19.9644 23.68 20.3582 23.2645C20.5107 23.1034 20.4841 23.0843 20.621 22.9192L21.1572 22.3129C21.2605 22.189 21.3002 22.1749 21.4241 22.0454C21.5881 21.8728 21.5359 21.8663 21.7015 21.7147H21.7947C21.9392 22.0876 22.6961 23.0833 22.9895 23.4682C23.2428 23.8005 23.3296 23.9867 23.5674 24.3455C23.757 24.6316 24.0063 24.9212 24.2149 25.1425C24.3514 25.5159 25.9249 27.5364 26.2514 28.0609L27.5064 29.7146C27.6674 30.1291 29.7686 32.9818 29.9261 33.1424C30.0119 33.4039 30.7903 34.4001 31.0145 34.7233C31.1951 34.9838 31.3952 35.2819 31.5879 35.5168C31.7875 35.7612 31.9952 36.0412 32.1441 36.3449L10.4933 34.5497C10.6855 34.1386 13.0033 31.8189 13.1739 31.3898C11.4078 30.5989 8.85866 28.4007 8.33901 28.1302C8.04256 27.7778 6.5744 26.6145 5.75229 25.6389C4.03233 23.5992 2.76179 21.9541 1.75208 19.3544C0.972106 17.3464 0.818618 15.3198 0.766453 15.1948C0.636038 13.5663 0.870784 11.749 1.36535 10.434C1.84939 9.14724 2.50949 7.81677 3.26489 6.96659C3.91445 6.30161 3.44195 6.63285 4.46871 5.68982C4.60615 5.56335 4.62019 5.49108 4.74509 5.35959C4.94623 5.1483 5.661 4.67553 5.74527 4.48582C6.11946 4.31619 6.53578 3.96086 6.97668 3.70491C8.37362 2.89488 9.26344 2.39953 10.8234 1.84094C15.8935 0.0256593 22.4478 0.0653073 27.6774 1.33856L30.7221 2.09589H30.7211ZM5.04705 22.9829C4.58207 22.6447 3.49111 20.5022 3.44396 20.4475C3.70077 20.1238 4.01828 19.5074 4.27058 19.1351C4.52238 18.7642 4.85695 18.3677 5.14887 18.0124L5.04705 22.9834V22.9829Z" fill="#626262"/>
<path fill-rule="evenodd" clip-rule="evenodd" d="M43.2513 2.13355L44.5459 2.20933L45.6876 2.27157C46.0377 2.29616 46.4936 2.35237 46.8192 2.26203L47.0599 2.35187C47.1352 2.36743 47.2114 2.3604 47.2871 2.3614L48.506 2.42414L59.4347 3.01334L59.3946 3.42839C59.3575 4.13403 59.2351 4.86024 59.1599 5.55835C59.1207 5.9197 59.0796 6.29962 59.036 6.65143C58.9622 7.24063 58.9637 7.16585 59.3786 7.4188L60.6421 8.42907C60.8261 8.57512 60.8778 8.58666 61.0609 8.77336C61.3343 9.0524 61.6096 9.20899 61.8644 9.49255C62.1674 9.82931 62.3314 10.017 62.6585 10.294C63.2824 10.823 65.0792 13.1959 65.3515 13.8217C65.8245 14.3878 66.6908 16.3562 66.9697 17.2796C67.7135 19.7087 67.6799 21.6043 67.7592 24.3044C67.8329 26.8198 67.8038 29.5048 67.9749 31.972C67.8876 32.0674 67.849 31.837 67.8911 32.1156C67.6498 28.2526 65.3179 25.0943 63.3848 22.6723C63.1174 22.3375 62.8907 22.1498 62.6163 21.8392C61.7752 20.8871 60.321 19.64 59.3259 18.8882C58.7024 18.4169 58.1471 18.0565 57.5061 17.5993L55.592 16.4566C55.6602 16.3236 55.5855 16.4315 55.7129 16.2779L58.1717 13.3284C58.0704 13.2426 58.1346 13.3013 58.0468 13.221C57.3195 13.3344 54.9961 13.0127 54.1409 12.9485C52.8704 12.8536 51.4805 12.698 50.3328 12.6373L36.5621 11.477C36.6895 11.1894 37.0511 10.6363 37.0456 10.2649C37.333 10.0516 37.5106 9.48502 37.6159 9.12919C37.7599 8.93898 38.5489 7.19597 38.6201 6.9651C38.8769 6.50639 39.5034 5.23062 39.6725 4.6344C39.842 4.41206 40.7082 2.50594 40.7143 2.29666L40.9656 2.02966L43.2508 2.13405L43.2513 2.13355Z" fill="url(#paint0_linear)"/>
<path fill-rule="evenodd" clip-rule="evenodd" d="M37.478 45.4464L37.332 45.4529C37.652 45.343 37.5332 45.3129 37.7739 44.5014L38.6969 41.2512L40.0547 36.6475C40.1399 36.2917 40.2282 36.0006 40.3326 35.6322L40.6616 34.635L43.3261 35.176C44.1883 35.2091 44.9833 35.3592 45.9168 35.3803C46.8668 35.4014 47.6764 35.3216 48.5823 35.2764C48.7082 35.2679 48.6741 35.2754 48.7949 35.2413C48.809 35.2372 48.8391 35.2352 48.8491 35.2116C48.8591 35.1881 48.8812 35.1881 48.8978 35.1765C49.7535 35.3316 53.3895 34.222 53.7748 33.8074C54.2588 33.7412 55.3347 32.9878 55.7631 32.7103C56.066 32.5141 56.363 32.2571 56.6293 32.0483C56.8866 31.8466 57.0446 31.4872 57.3461 31.3693C57.5502 31.4456 57.7163 31.9194 57.8211 32.1276C60.3617 37.18 58.7626 41.8816 54.0612 44.5626C50.4572 46.6178 45.7618 46.8401 41.5901 46.3081C39.7883 46.0787 38.8032 45.6757 37.4785 45.4464H37.478Z" fill="url(#paint1_linear)"/>
<path fill-rule="evenodd" clip-rule="evenodd" d="M13.4452 25.3443C13.706 25.4682 14.1324 25.8687 14.3792 26.0635L17.2693 28.1974C18.6648 29.1465 19.8686 29.8878 21.3232 30.7721C23.0387 31.8145 25.9238 33.3487 27.8043 34.1928C28.1825 34.3625 29.9155 35.1032 30.062 35.2593C28.8301 35.0646 27.1793 34.9873 25.8932 34.8864L17.9033 34.1908C17.2703 34.1331 16.4472 34.0759 15.8639 34.0127C15.6477 33.9896 15.1978 33.9645 14.8973 33.9284C14.6937 33.9043 14.5938 33.9063 14.3887 33.9043C14.2417 33.9028 14.007 33.9093 13.8745 33.8069L14.3922 33.837C14.645 33.0691 14.7338 32.0278 14.8582 31.3136C14.6942 31.0581 13.4663 30.4358 13.1192 30.23C12.4596 29.8391 11.9454 29.4973 11.352 29.1028C10.6759 28.6536 8.45634 27.012 8.14736 26.4921C7.60865 26.1116 5.36101 23.6866 5.04651 22.982L5.14833 18.0109L5.16288 16.7552C5.17542 16.2784 5.19949 16.0927 5.19899 15.8292C5.19799 15.3148 5.25367 14.2292 5.25367 13.2998L5.40615 13.637C5.44578 16.8736 8.78488 20.9298 10.875 23.0221C11.3099 23.4577 11.6811 23.7684 12.132 24.2055C12.4982 24.5603 13.0274 25.0291 13.4447 25.3433L13.4452 25.3443Z" fill="url(#paint2_linear)"/>
<path fill-rule="evenodd" clip-rule="evenodd" d="M54.4219 14.0546C54.2669 14.172 53.8992 16.3025 53.9609 16.4867C53.8781 16.7366 53.9027 16.6553 54.1023 16.7968C54.2042 16.8686 54.3948 16.9489 54.5041 17.0081C55.718 17.6651 56.9348 18.4375 58.0529 19.2485C58.5515 19.6104 58.9543 19.9637 59.4649 20.2768C59.4779 20.4926 59.5231 20.3958 59.9464 20.7822C60.1661 20.9825 60.3276 21.0849 60.5553 21.3182C61.2666 22.0465 63.3708 24.0715 63.6682 24.863C63.5624 29.9354 63.6612 28.0639 63.5443 33.045C63.5408 33.1921 63.5378 33.167 63.5328 33.3527L63.5082 33.8255C63.4932 34.229 63.5579 34.51 63.453 34.8428C63.449 34.8553 63.4405 34.8794 63.43 34.896C63.3783 29.2253 56.5426 23.0969 51.9726 19.9978C51.7002 19.8131 51.1495 19.4603 50.9363 19.26L48.0371 17.4623C45.7789 16.0681 41.0303 13.5477 38.7059 12.683C39.1539 12.5956 41.9633 12.9339 42.6339 12.9851L53.9142 13.9602C53.9875 13.9643 54.146 13.9688 54.2097 13.9798L54.3747 14.032C54.3847 14.036 54.4073 14.0446 54.4214 14.0556L54.4219 14.0546Z" fill="url(#paint3_linear)"/>
<path fill-rule="evenodd" clip-rule="evenodd" d="M62.4037 39.4214C62.655 38.6886 62.945 38.112 63.128 37.3275C63.3307 36.4598 63.4305 35.8084 63.4305 34.8955C63.441 34.8789 63.4496 34.8548 63.4536 34.8423C63.5584 34.509 63.4937 34.2285 63.5087 33.825L63.5333 33.3522C63.5383 33.1665 63.5413 33.1916 63.5449 33.0445L63.5649 30.1954C64.1137 29.4672 64.9032 28.3144 65.2508 27.4803L65.3682 27.6193C65.8136 28.2797 66.4922 30.5713 66.6136 31.2433C67.1699 34.3293 66.7831 36.9532 65.2016 39.5609C64.7261 40.3448 63.421 42.0176 62.7644 42.3282C62.5031 42.7744 60.7465 43.8745 60.0713 44.2594C57.2614 45.8614 52.0784 47.207 48.9229 46.8938C52.717 46.7939 57.6913 45.0293 60.2584 42.4642C60.8854 41.8374 62.0085 40.4803 62.4042 39.4219L62.4037 39.4214Z" fill="url(#paint4_linear)"/>
<path fill-rule="evenodd" clip-rule="evenodd" d="M30.8395 1.14333V2.05775C30.7577 2.11496 30.8711 2.08836 30.7211 2.09589L27.6764 1.33856C22.4468 0.0653048 15.8925 0.0256568 10.8224 1.84094C9.26242 2.39953 8.3726 2.89488 6.97566 3.7049C6.53476 3.96036 6.11844 4.31619 5.74425 4.48582C5.56217 4.50389 5.63289 4.26751 5.62637 4.04769C5.61985 3.8379 5.6349 3.62661 5.67302 3.42887L5.71114 2.2856L6.85327 2.32374H7.9954L9.13753 2.28209L9.09991 1.14333L9.06179 6.10352e-05H29.6968V1.14333H30.839H30.8395Z" fill="white"/>
<path fill-rule="evenodd" clip-rule="evenodd" d="M3.26437 6.96659C2.50897 7.81676 1.84887 9.14723 1.36484 10.434C0.869763 11.7495 0.635017 13.5662 0.765933 15.1948L1.05335 25.6765C0.850702 25.8326 0.938481 25.9455 0.903871 25.6117C0.895846 25.533 0.913903 25.2474 0.913903 25.1425H0V10.286H1.14213V9.14272H0V8.00045H1.14213V6.85718L2.28426 6.89532C2.60176 6.95705 3.0532 6.93999 3.26437 6.96659Z" fill="white"/>
<path fill-rule="evenodd" clip-rule="evenodd" d="M37.478 45.4464C37.624 45.6005 37.8076 45.6366 38.0127 45.7008C38.237 45.7711 38.3814 45.8173 38.5941 45.879C39.8857 46.2539 40.8207 46.5119 42.185 46.7799C42.3154 47.0539 42.2612 47.6039 42.2612 47.9999H41.1191V46.8567H39.977V47.9999H38.8349V46.8567H37.6927V45.7139H36.5506V44.5706H37.6927V43.4283H36.5506V42.2851H37.6927V41.1423C37.8663 41.1423 38.0619 41.1308 38.2304 41.1343C38.3323 41.1358 38.421 41.1388 38.5183 41.1639C38.739 41.2201 38.5339 41.1187 38.6969 41.2507L37.774 44.5008C37.5337 45.3119 37.6526 45.3425 37.3321 45.4524L37.478 45.4459V45.4464Z" fill="white"/>
<path fill-rule="evenodd" clip-rule="evenodd" d="M57.0723 30.881C56.9293 30.9186 56.2863 30.8569 55.9678 30.8569V29.7136H54.8256V28.5713H53.6835V27.428H52.5414V26.2853H51.3992C51.3992 24.9152 51.6265 25.142 50.2571 25.142C50.2571 24.9172 50.2175 24.478 50.2345 24.4173C50.9132 24.5086 53.7001 26.8956 54.1013 27.2393C54.6375 27.7001 56.9514 30.1768 57.0723 30.8804V30.881Z" fill="white"/>
<path fill-rule="evenodd" clip-rule="evenodd" d="M26.271 26.2858V27.4286H27.4131V28.5718H28.5552V29.7141L27.5059 29.7146L26.2509 28.0609C25.9243 27.5365 24.3508 25.5159 24.2144 25.1425H25.1283V26.2858H26.2704H26.271Z" fill="white"/>
<path fill-rule="evenodd" clip-rule="evenodd" d="M45.4227 24.0228C45.334 24.0479 44.8053 24.0002 44.546 24.0002V22.857H43.4038V21.7142H42.2617V20.5709H41.1196V19.4282L42.187 19.4317L45.0621 23.409C45.2276 23.6414 45.3821 23.795 45.4232 24.0228H45.4227Z" fill="white"/>
<path fill-rule="evenodd" clip-rule="evenodd" d="M53.9614 16.4867C53.8992 16.302 54.2669 14.172 54.4224 14.0546C54.761 14.0019 55.6563 14.0751 56.0004 14.1399C55.7345 14.4867 55.3393 14.972 55.0333 15.2967C54.7233 15.6254 54.3055 16.2437 53.9614 16.4872V16.4867Z" fill="#626262"/>
</g>
<defs>
<linearGradient id="paint0_linear" x1="70.2937" y1="24.6888" x2="55.0256" y2="11.0689" gradientUnits="userSpaceOnUse">
<stop stop-color="#626262"/>
<stop offset="0.258824" stop-color="#9F0007"/>
<stop offset="1" stop-color="#E6000A"/>
</linearGradient>
<linearGradient id="paint1_linear" x1="33.4362" y1="40.5165" x2="57.2959" y2="33.7828" gradientUnits="userSpaceOnUse">
<stop stop-color="#E6000A"/>
<stop offset="1" stop-color="white"/>
</linearGradient>
<linearGradient id="paint2_linear" x1="24.8805" y1="36.7996" x2="-6.29403" y2="12.0376" gradientUnits="userSpaceOnUse">
<stop stop-color="#626262"/>
<stop offset="1" stop-color="#FEFEFE"/>
</linearGradient>
<linearGradient id="paint3_linear" x1="63.7334" y1="29.1711" x2="44.5609" y2="13.496" gradientUnits="userSpaceOnUse">
<stop stop-color="#626262"/>
<stop offset="0.631373" stop-color="#8B0006"/>
<stop offset="1" stop-color="#E6000A"/>
</linearGradient>
<linearGradient id="paint4_linear" x1="53.4282" y1="44.6208" x2="67.5306" y2="29.1619" gradientUnits="userSpaceOnUse">
<stop stop-color="#626262"/>
<stop offset="0.839216" stop-color="#880006"/>
<stop offset="1" stop-color="#E6000A"/>
</linearGradient>
<clipPath id="clip0">
<rect width="68" height="48" fill="white"/>
</clipPath>
</defs>
</svg>
