<svg width="69" height="66" viewBox="0 0 69 66" fill="none" xmlns="http://www.w3.org/2000/svg">
<path fill-rule="evenodd" clip-rule="evenodd" d="M65.8656 43.0231C64.9323 43.1947 62.6395 43.1035 61.5821 43.0874C59.2839 43.0499 57.2824 41.8917 56.1441 40.0256C53.6733 35.9772 56.2412 30.4864 61.5821 30.3362C62.4345 30.3094 65.2128 30.481 65.7577 30.2344L65.8224 30.0842C65.9465 29.5963 65.871 22.3466 65.871 21.8426C65.871 20.5074 66.1245 18.9578 65.3315 18.1266C64.5007 17.2526 63.0171 17.4724 61.5929 17.4724L27.3843 17.5046C26.683 17.5046 21.6065 17.5797 21.1533 17.333C20.7109 17.0917 20.6947 16.2552 21.2234 16.0086C21.6226 15.8209 24.7301 15.9228 25.4044 15.9281C26.2082 15.9335 27.6163 14.8825 28.118 14.3302L21.6172 14.3034C19.0008 14.3838 18.2455 14.963 18.0189 17.5207C17.8463 19.4779 17.9703 28.2182 17.9703 30.8725V50.9752C17.9596 53.7957 19.6859 53.5383 22.1891 53.5383H62.7312C65.7955 53.5383 65.9573 52.7608 65.8872 49.8491C65.8332 47.597 65.8764 45.2966 65.8764 43.0392L65.8656 43.0231Z" fill="url(#paint0_linear)" stroke="#626262" stroke-width="0.200018" stroke-miterlimit="22.9256"/>
<path fill-rule="evenodd" clip-rule="evenodd" d="M27.5084 16.7004L33.707 16.7164C36.8252 16.7111 36.3397 16.577 39.4903 15.3866L49.7351 11.4776C50.4795 11.1934 54.5634 9.71883 54.8655 9.44536C54.4609 8.67857 49.8052 2.84455 48.8233 1.38605L32.8115 12.786C31.8998 13.4402 31.1175 14.03 30.1842 14.6842L27.6648 16.518C27.6487 16.5341 27.6271 16.5556 27.6109 16.5717L27.503 16.695L27.5084 16.7004Z" fill="white" stroke="black" stroke-width="0.7" stroke-miterlimit="22.9256"/>
<path fill-rule="evenodd" clip-rule="evenodd" d="M61.7764 41.5111H65.3693C65.898 41.5111 65.7793 41.3716 66.2918 40.9802C66.5454 40.7872 66.8313 40.5405 67.0633 40.3368C67.4032 40.0418 68.3742 39.1785 68.6817 39.0498V29.4784C67.9912 29.843 66.0059 31.7037 65.693 31.8324C64.3928 32.3579 60.5895 30.8457 58.1294 33.3338C55.4752 36.0149 56.9264 41.5057 61.7764 41.5057V41.5111ZM61.0481 34.4116C57.9029 35.2695 59.1976 39.7898 62.305 39.0016C63.3408 38.7388 64.3011 37.4894 63.9666 36.1167C63.6915 35.0014 62.4939 34.0201 61.0481 34.4116Z" fill="#626262" stroke="#626262" stroke-width="0.200018" stroke-miterlimit="22.9256"/>
<path fill-rule="evenodd" clip-rule="evenodd" d="M40.0729 16.6521L60.6541 16.695L58.2642 10.1639C57.196 10.314 54.8655 11.3328 53.7002 11.7404C52.1735 12.2766 50.6467 12.861 49.1146 13.3812L42.3117 15.8263C41.7075 16.0408 40.5908 16.3679 40.0783 16.6467L40.0729 16.6521Z" fill="white" stroke="black" stroke-width="0.7" stroke-miterlimit="22.9256"/>
<path fill-rule="evenodd" clip-rule="evenodd" d="M61.9489 15.9122C66.9931 15.9122 67.1387 15.4081 67.0956 19.7783C67.0686 22.7435 67.0956 25.7303 67.0956 28.6955C67.2628 28.6634 68.6115 28.1432 68.6708 27.8537C68.6762 24.4112 68.6816 20.9633 68.6762 17.5208C68.6762 16.6039 68.5845 16.1266 68.126 15.5261C67.84 15.1561 67.2142 14.5019 66.6586 14.3571C65.8655 14.1534 62.3805 14.2928 61.3285 14.2981C61.4634 14.8183 61.7223 15.5261 61.9489 15.9175V15.9122Z" fill="#626262" stroke="#626262" stroke-width="0.200018" stroke-miterlimit="22.9256"/>
<path fill-rule="evenodd" clip-rule="evenodd" d="M67.1009 41.5807V50.6803C68.1205 50.7125 68.7248 49.6829 68.7248 48.6159V41.1947L68.7194 40.8622C68.3471 40.8139 67.403 41.3823 67.0955 41.5807H67.1009Z" fill="#626262" stroke="#626262" stroke-width="0.200018" stroke-miterlimit="22.9256"/>
<path fill-rule="evenodd" clip-rule="evenodd" d="M66.7772 41.2054V50.3049C67.7969 50.3371 68.4011 49.3076 68.4011 48.2405V40.8193L68.3957 40.4868C68.0235 40.4386 67.0794 41.007 66.7719 41.2054H66.7772Z" fill="url(#paint1_linear)"/>
<path fill-rule="evenodd" clip-rule="evenodd" d="M15.1002 27.2798C-3.61981 29.4461 -3.17204 60.4822 11.7123 64.8685C24.1042 68.5201 33.8526 60.3375 32.806 43.822C32.1587 33.5964 26.1488 26.0036 15.1056 27.2798H15.1002ZM15.1002 37.0604C10.8383 38.8674 10.7898 44.8301 11.3131 49.0716C11.7932 52.9913 14.1022 58.1711 19.1787 55.7153C24.8325 52.9806 24.1959 33.2157 15.1056 37.0604H15.1002Z" fill="#626262" stroke="#626262" stroke-width="0.200018" stroke-miterlimit="22.9256"/>
<path fill-rule="evenodd" clip-rule="evenodd" d="M38.2171 62.9596C42.2686 62.9006 41.3299 62.2357 43.4878 58.8844C44.5776 57.1899 45.7537 55.2649 47.0808 53.4793L54.2289 42.2993C49.9401 42.4655 49.3682 45.5863 45.3167 51.7581C43.1857 55.0076 39.9866 59.3509 38.2171 62.965V62.9596Z" fill="#626262" stroke="#626262" stroke-width="0.200018" stroke-miterlimit="22.9256"/>
<path fill-rule="evenodd" clip-rule="evenodd" d="M41.0116 42.9373C43.1102 42.9373 44.8095 44.6854 44.8095 46.8463C44.8095 49.0019 43.1102 50.7553 41.0116 50.7553C38.913 50.7553 37.2136 49.0073 37.2136 46.8463C37.2136 44.6907 38.913 42.9373 41.0116 42.9373ZM41.0116 44.4655C42.2901 44.4655 43.326 45.5326 43.326 46.8463C43.326 48.1601 42.2901 49.2271 41.0116 49.2271C39.733 49.2271 38.6972 48.1601 38.6972 46.8463C38.6972 45.5326 39.733 44.4655 41.0116 44.4655Z" fill="#626262" stroke="#626262" stroke-width="0.200018" stroke-miterlimit="22.9256"/>
<path fill-rule="evenodd" clip-rule="evenodd" d="M51.812 53.3989C53.9106 53.3989 55.61 55.147 55.61 57.3079C55.61 59.4635 53.9106 61.2169 51.812 61.2169C49.7134 61.2169 48.014 59.4689 48.014 57.3079C48.014 55.1523 49.7134 53.3989 51.812 53.3989ZM51.812 54.9271C53.0906 54.9271 54.1264 55.9942 54.1264 57.3079C54.1264 58.6217 53.0906 59.6887 51.812 59.6887C50.5334 59.6887 49.4976 58.6217 49.4976 57.3079C49.4976 55.9942 50.5334 54.9271 51.812 54.9271Z" fill="#626262" stroke="#626262" stroke-width="0.200018" stroke-miterlimit="22.9256"/>
<path fill-rule="evenodd" clip-rule="evenodd" d="M14.5877 26.4327C-4.13232 28.599 -3.68455 59.6352 11.1998 64.0214C23.5917 67.673 33.3401 59.4957 32.2935 42.9749C31.6462 32.744 25.6363 25.1565 14.5931 26.4327H14.5877ZM14.5877 36.2133C10.3258 38.015 10.2773 43.983 10.8006 48.2245C11.2807 52.1442 13.5897 57.3241 18.6662 54.8682C24.32 52.1335 23.6834 32.3686 14.5931 36.2133H14.5877Z" fill="#E6000A" stroke="#E6000A" stroke-width="0.200018" stroke-miterlimit="22.9256"/>
<path fill-rule="evenodd" clip-rule="evenodd" d="M37.7046 62.1125C41.7561 62.0535 40.8174 61.3886 42.9753 58.0372C44.0651 56.3428 45.2412 54.4178 46.5683 52.6322L53.7164 41.4521C49.4275 41.6183 48.8611 44.7391 44.8042 50.9109C42.6732 54.1604 39.4741 58.5037 37.7046 62.1178V62.1125Z" fill="#E6000A" stroke="#E6000A" stroke-width="0.200018" stroke-miterlimit="22.9256"/>
<path fill-rule="evenodd" clip-rule="evenodd" d="M40.5045 42.0848C42.6031 42.0848 44.3025 43.8328 44.3025 45.9938C44.3025 48.1494 42.6031 49.9028 40.5045 49.9028C38.4059 49.9028 36.7065 48.1547 36.7065 45.9938C36.7065 43.8382 38.4059 42.0848 40.5045 42.0848ZM40.5045 43.613C41.7831 43.613 42.8189 44.6801 42.8189 45.9938C42.8189 47.3075 41.7831 48.3746 40.5045 48.3746C39.2259 48.3746 38.1901 47.3075 38.1901 45.9938C38.1901 44.6801 39.2259 43.613 40.5045 43.613Z" fill="#E6000A" stroke="#E6000A" stroke-width="0.200018" stroke-miterlimit="22.9256"/>
<path fill-rule="evenodd" clip-rule="evenodd" d="M51.2995 52.5516C53.3981 52.5516 55.0975 54.2997 55.0975 56.4606C55.0975 58.6162 53.3981 60.3697 51.2995 60.3697C49.201 60.3697 47.5016 58.6216 47.5016 56.4606C47.5016 54.3051 49.201 52.5516 51.2995 52.5516ZM51.2995 54.0798C52.5781 54.0798 53.6139 55.1469 53.6139 56.4606C53.6139 57.7744 52.5781 58.8414 51.2995 58.8414C50.021 58.8414 48.9852 57.7744 48.9852 56.4606C48.9852 55.1469 50.021 54.0798 51.2995 54.0798Z" fill="#E6000A" stroke="#E6000A" stroke-width="0.200018" stroke-miterlimit="22.9256"/>
<defs>
<linearGradient id="paint0_linear" x1="41.9184" y1="14.3034" x2="41.9184" y2="53.5444" gradientUnits="userSpaceOnUse">
<stop stop-color="#626262" stop-opacity="0.17"/>
<stop offset="1" stop-color="#626262"/>
</linearGradient>
<linearGradient id="paint1_linear" x1="52.0979" y1="74.751" x2="46.9385" y2="-2.88643" gradientUnits="userSpaceOnUse">
<stop stop-color="#FEFEFE"/>
<stop offset="0.439216" stop-color="#B0B0B0"/>
<stop offset="1" stop-color="#626262"/>
</linearGradient>
</defs>
</svg>
