<svg width="85" height="60" viewBox="0 0 85 60" fill="none" xmlns="http://www.w3.org/2000/svg">
<g clip-path="url(#clip0)">
<path d="M43.8789 59.6196L10.6821 22.6157L8.8824 24.2486L1.41895 8.64557L16.0813 17.7171L14.2816 19.35L47.4783 56.3538L43.8789 59.6196Z" fill="#626262" stroke="#626262" stroke-width="0.200567" stroke-miterlimit="22.9256"/>
<path fill-rule="evenodd" clip-rule="evenodd" d="M30.5352 0.848058C25.2082 0.848058 26.0098 1.35203 23.3844 1.49718C23.0797 1.5133 22.5066 1.6141 22.2821 1.6141C21.8091 1.61007 20.29 0.485196 20.1537 2.30757C20.0054 4.28718 20.4864 3.3518 20.6307 4.31137C20.6668 4.56537 20.9032 9.54464 20.4062 10.2462C19.6967 11.2541 20.3501 12.6169 21.7931 12.0282C23.188 13.5482 23.2481 13.653 25.3965 14.6771C26.8516 15.3706 28.3306 15.935 29.8698 16.5559L30.439 15.9955C30.1704 16.7454 29.8377 16.4713 31.9461 17.4147C32.6395 17.7252 33.6857 18.2493 34.5074 18.2332C35.2049 18.217 36.4314 17.7292 37.0246 17.5074C37.4856 17.3341 38.6279 16.9793 38.7883 16.6003L38.8644 16.2697C39.0729 16.939 39.117 16.8019 39.8545 16.4955C40.3034 16.31 40.6481 16.1729 41.085 15.9996C43.013 15.2416 46.4481 13.8909 47.2418 12.1895C47.9432 12.4395 48.2799 12.3669 48.8331 12.0766C49.0335 11.359 48.9172 10.9437 48.9814 10.4558C49.0575 9.87928 49.2339 10.2341 49.2339 9.50836C49.2339 8.8794 49.3822 4.37588 49.1136 4.01302C48.793 3.58565 49.3902 4.18235 48.7729 3.77917C49.0014 3.55339 48.9854 4.28315 48.9854 2.71075C48.9854 1.44476 48.2559 1.23914 47.5264 1.54556C46.8329 1.83585 47.6626 1.81972 46.7087 1.76328C45.2056 1.67458 44.464 1.43267 43.1774 1.20286C41.4017 0.884344 39.153 1.04562 37.5417 0.916599C36.4955 0.831931 37.193 0.884344 36.744 0.58196C36.1548 0.190875 33.9703 0.38037 33.1807 0.38037C31.5292 0.38037 33.9703 0.839995 30.5312 0.839995L30.5352 0.848058ZM31.9341 13.8304C31.9702 13.8103 32.0183 13.7377 32.0343 13.7619C32.1064 13.8829 32.7317 12.8144 33.5935 12.3709C33.6296 13.4111 33.5615 14.4392 33.6416 15.4794C33.7218 16.4834 33.7779 17.3704 34.78 17.3462C35.766 16.4148 35.281 13.9877 35.4173 12.4395C35.4413 12.4274 35.4814 12.3951 35.4935 12.4193L35.8823 12.2822C35.0004 11.8791 34.5876 11.4154 33.5294 12.121C32.8319 12.5886 32.363 13.0644 31.9341 13.8264V13.8304ZM24.3905 2.48497L32.2988 2.59383L32.2547 1.60604L24.3865 2.48497H24.3905ZM36.7881 2.56157L45.3098 2.489L36.8964 1.61007L36.7881 2.56157ZM45.4901 3.79127L45.3499 3.66225C45.2216 3.56952 45.3218 3.6179 45.1134 3.50501C44.5763 3.21875 43.975 3.17844 43.3898 3.17037C42.4158 3.15828 41.4418 3.14618 40.4718 3.13409C38.4836 3.1099 25.4527 2.81961 24.1259 3.45663L23.6249 3.82756C24.3865 3.51308 24.5588 3.31149 25.5288 3.32358C25.3965 3.49292 25.4607 3.40825 25.3044 3.56549C25.1761 3.69047 25.14 3.71063 25.0198 3.83562C24.4426 4.42829 24.5388 5.07741 24.4987 6.06117C24.4506 7.32716 24.3784 8.63749 24.4786 9.89944C24.5628 10.9638 24.8033 10.8429 26.6391 11.4235C27.2885 11.6291 29.1443 12.0927 29.465 12.3951C28.1302 12.629 24.643 11.5525 23.7732 10.855C23.0316 10.2542 23.3122 8.56088 23.3523 7.51262C23.3964 6.3434 23.3683 4.99678 23.5728 3.884C23.3042 4.19042 23.3323 4.04527 23.2842 5.10967L23.1439 9.64544C23.1319 11.8387 23.4645 11.742 26.1621 12.7096C26.9037 12.9757 27.7053 13.2902 28.5631 13.3184C30.0181 13.3668 30.8158 12.2339 32.1305 10.8469C33.1245 9.79865 36.0185 9.81477 37.0206 10.8509L38.5357 12.3871C39.121 12.9434 39.4216 13.3587 40.588 13.3184C41.5179 13.2862 42.2675 12.9757 43.0852 12.6814C46.3599 11.496 46.0593 12.0282 45.919 6.5853C45.907 6.05311 45.879 5.52897 45.8469 4.99678C45.7787 3.81546 45.8228 3.92432 45.4821 3.7953L45.4901 3.79127Z" fill="#626262"/>
<path fill-rule="evenodd" clip-rule="evenodd" d="M49.3942 10.1938C52.0718 10.6171 52.9616 10.2422 53.1019 7.2506C53.2903 3.33572 51.5667 3.75906 49.3942 3.79938V10.1938Z" fill="#626262"/>
<path fill-rule="evenodd" clip-rule="evenodd" d="M19.9493 10.2865L19.9052 3.85981C17.0713 3.7308 16.2015 3.9727 16.2055 6.98042C16.2135 10.9316 17.7247 10.3349 19.9493 10.2865Z" fill="#626262"/>
<path fill-rule="evenodd" clip-rule="evenodd" d="M45.4902 3.79127C44.7366 3.57355 44.6805 3.31149 43.6383 3.32761C43.7546 3.48082 43.7105 3.42438 43.8508 3.56549C44.6444 4.37991 44.5482 3.9848 44.6484 6.04101C44.7086 7.26265 44.7607 8.56089 44.6765 9.78252C44.6043 10.8308 44.5763 10.8106 42.6202 11.3993C41.8627 11.6291 40.4076 11.9798 39.7102 12.3064C40.5319 12.9152 44.8609 11.3307 45.4461 10.7905C46.1796 10.1131 45.7788 4.42829 45.4902 3.79127Z" fill="#626262"/>
<path fill-rule="evenodd" clip-rule="evenodd" d="M41.8106 11.7581C35.5857 11.7581 36.5276 12.3468 33.4573 12.5161C33.1005 12.5363 32.4351 12.6532 32.1706 12.6532C31.6174 12.6491 29.8418 11.3348 29.6854 13.4636C29.5131 15.7778 30.0743 14.6852 30.2426 15.806C30.2867 16.1044 30.5633 21.9182 29.9821 22.7407C29.1523 23.918 29.9179 25.5106 31.6014 24.8211C33.2288 26.5951 33.3009 26.7201 35.8101 27.9176C37.5096 28.7279 39.2372 29.3851 41.037 30.1149L41.7023 29.4617C41.3857 30.3407 41.0009 30.0141 43.462 31.1188C44.2676 31.4817 45.4942 32.0945 46.4522 32.0743C47.2699 32.0582 48.6968 31.4857 49.3943 31.2277C49.9314 31.0261 51.2661 30.6108 51.4545 30.1713L51.5467 29.7883C51.7912 30.5664 51.8393 30.4092 52.7011 30.0544C53.2222 29.8407 53.627 29.6794 54.1401 29.4779C56.3927 28.5909 60.401 27.0185 61.331 25.0268C62.1527 25.3211 62.5455 25.2364 63.1868 24.8937C63.4193 24.0551 63.287 23.5713 63.3632 22.9988C63.4514 22.3255 63.6598 22.7367 63.6598 21.89C63.6598 21.1562 63.8321 15.8947 63.5195 15.4714C63.1427 14.9715 63.8442 15.669 63.1187 15.2013C63.3832 14.9392 63.3632 15.7899 63.3632 13.9554C63.3632 12.4758 62.5134 12.2379 61.6556 12.5967C60.846 12.9354 61.816 12.9152 60.7017 12.8507C58.946 12.7499 58.0802 12.4637 56.5771 12.1935C54.5008 11.8226 51.8754 12.0081 49.9955 11.8589C48.777 11.7621 49.5907 11.8186 49.0616 11.4678C48.3761 11.0082 45.8188 11.2299 44.9009 11.234C42.973 11.234 45.8229 11.7702 41.8065 11.7702L41.8106 11.7581ZM43.4459 26.9217C43.486 26.8975 43.5421 26.8128 43.5622 26.8451C43.6464 26.9862 44.3799 25.7404 45.386 25.2203C45.426 26.4339 45.3499 27.6353 45.4421 28.8529C45.5343 30.0262 45.6024 31.0624 46.7728 31.0341C47.9232 29.9455 47.358 27.1112 47.5184 25.3049C47.5464 25.2929 47.5945 25.2525 47.6066 25.2808L48.0635 25.1195C47.0334 24.6518 46.5484 24.1075 45.3138 24.93C44.5001 25.4743 43.951 26.0307 43.4499 26.9217H43.4459ZM34.6357 13.6732L43.8748 13.8022L43.8267 12.6491L34.6357 13.6732ZM49.1137 13.7619L59.0663 13.6772L49.2379 12.6491L49.1137 13.7579V13.7619ZM59.2747 15.1972L59.1144 15.0481C58.9661 14.9392 59.0823 14.9956 58.8378 14.8626C58.2125 14.528 57.507 14.4836 56.8216 14.4715C55.6833 14.4554 54.5489 14.4433 53.4106 14.4272C51.0858 14.3989 35.8662 14.0603 34.315 14.8062L33.7298 15.2416C34.6197 14.8747 34.8201 14.6368 35.9544 14.6529C35.8021 14.8505 35.8743 14.7537 35.6939 14.9392C35.5456 15.0884 35.5015 15.1085 35.3612 15.2537C34.6838 15.9431 34.8 16.7051 34.7519 17.8542C34.6918 19.3339 34.6116 20.8619 34.7279 22.3375C34.8281 23.5793 35.1087 23.4423 37.2491 24.1196C38.0107 24.3615 40.1752 24.9018 40.5519 25.2525C38.9927 25.5267 34.9203 24.2688 33.9022 23.4503C33.0324 22.7488 33.3651 20.7692 33.4092 19.5435C33.4613 18.1808 33.4292 16.6043 33.6657 15.3061C33.353 15.6609 33.3851 15.4956 33.329 16.7374L33.1647 22.0352C33.1486 24.5994 33.5374 24.4865 36.692 25.6154C37.5577 25.9258 38.4957 26.2927 39.4978 26.325C41.1973 26.3814 42.1272 25.055 43.6624 23.4342C44.8248 22.2085 48.2038 22.2287 49.3742 23.4382L51.1459 25.2324C51.8313 25.8815 52.18 26.3653 53.5428 26.321C54.6251 26.2847 55.5069 25.9218 56.4609 25.5751C60.2848 24.1922 59.9361 24.809 59.7717 18.4549C59.7557 17.834 59.7236 17.2172 59.6876 16.6003C59.6074 15.2174 59.6595 15.3504 59.2627 15.1972H59.2747Z" fill="#626262"/>
<path fill-rule="evenodd" clip-rule="evenodd" d="M63.8402 22.6762C66.9667 23.1721 68.0048 22.7286 68.1732 19.2371C68.3896 14.665 66.3815 15.1569 63.8442 15.2053V22.6722L63.8402 22.6762Z" fill="#626262"/>
<path fill-rule="evenodd" clip-rule="evenodd" d="M29.4489 22.7851L29.3968 15.2779C26.0859 15.1247 25.0678 15.4109 25.0759 18.9226C25.0839 23.539 26.8515 22.8415 29.4489 22.7851Z" fill="#626262"/>
<path fill-rule="evenodd" clip-rule="evenodd" d="M59.2788 15.1973C58.397 14.9433 58.3328 14.6369 57.1143 14.6571C57.2506 14.8345 57.1985 14.77 57.3588 14.9353C58.2847 15.8868 58.1725 15.4231 58.2887 17.8301C58.3569 19.2574 58.421 20.7733 58.3248 22.2006C58.2406 23.4222 58.2086 23.402 55.9238 24.0915C55.042 24.3576 53.3425 24.7688 52.5288 25.1478C53.4868 25.8614 58.5453 24.0068 59.2267 23.3778C60.0845 22.5836 59.6155 15.9472 59.2788 15.2014V15.1973Z" fill="#626262"/>
<path fill-rule="evenodd" clip-rule="evenodd" d="M53.114 24.7083C45.5905 24.7083 46.7248 25.4219 43.0171 25.6275C42.5882 25.6517 41.7786 25.7928 41.4619 25.7928C40.7925 25.7888 38.6481 24.2003 38.4557 26.7726C38.2473 29.5706 38.9287 28.2482 39.1291 29.6029C39.1812 29.9617 39.5179 36.9891 38.8124 37.9809C37.8063 39.4001 38.7323 41.3273 40.7685 40.4968C42.7365 42.6417 42.8207 42.7909 45.855 44.2383C47.9113 45.218 49.9956 46.0123 52.1721 46.8912L52.9778 46.101C52.597 47.1613 52.128 46.7703 55.1022 48.1008C56.0802 48.5362 57.5552 49.278 58.7136 49.2538C59.6997 49.2337 61.4273 48.5443 62.269 48.2298C62.9224 47.9879 64.5337 47.4839 64.7622 46.9517L64.8704 46.488C65.167 47.4315 65.2271 47.2379 66.2653 46.8106C66.8946 46.5485 67.3836 46.355 68.0049 46.1131C70.7265 45.0447 75.5725 43.1376 76.6989 40.7347C77.6929 41.0895 78.1659 40.9887 78.9435 40.5734C79.2241 39.5574 79.0638 38.9768 79.156 38.2833C79.2642 37.4689 79.5167 37.9688 79.5127 36.9448C79.5127 36.0578 79.7251 29.6996 79.3404 29.1876C78.8874 28.5828 79.7332 29.4255 78.8553 28.861C79.176 28.5465 79.152 29.5706 79.152 27.3531C79.152 25.563 78.1258 25.2768 77.0917 25.7082C76.1097 26.1194 77.2841 26.0912 75.9373 26.0146C73.8169 25.8896 72.7707 25.5469 70.951 25.2203C68.4418 24.7728 65.2672 24.9986 62.9985 24.8171C61.5235 24.7002 62.5095 24.7687 61.8682 24.3454C61.0385 23.7931 57.9521 24.0592 56.8378 24.0632C54.5049 24.0672 57.9521 24.7083 53.098 24.7083H53.114ZM55.0901 43.0368C55.1382 43.0086 55.2064 42.9038 55.2304 42.9441C55.3306 43.1134 56.2165 41.6055 57.435 40.9806C57.4831 42.4482 57.3909 43.9037 57.5031 45.3712C57.6114 46.7904 57.6995 48.0443 59.1105 48.008C60.5013 46.6937 59.8159 43.2666 60.0083 41.0814C60.0404 41.0653 60.1005 41.0209 60.1165 41.0532L60.6657 40.8596C59.4191 40.2912 58.8379 39.634 57.3428 40.6339C56.3568 41.291 55.6954 41.9644 55.0861 43.0408L55.0901 43.0368ZM44.4401 27.0225L55.6072 27.1798L55.5471 25.7848L44.4401 27.0225ZM61.9403 27.1314L73.9692 27.0306L62.0886 25.7888L61.9363 27.1314H61.9403ZM74.2217 28.8691L74.0253 28.6877C73.845 28.5586 73.9893 28.6231 73.6886 28.4659C72.9311 28.0627 72.0813 28.0063 71.2516 27.9942C69.8767 27.974 68.5019 27.9619 67.1311 27.9418C64.3212 27.9095 45.9272 27.4983 44.0513 28.3974L43.3458 28.9215C44.42 28.478 44.6645 28.1917 46.0354 28.2079C45.851 28.4457 45.9392 28.3288 45.7187 28.5506C45.5384 28.728 45.4862 28.7562 45.3179 28.9296C44.5002 29.7641 44.6365 30.6834 44.5844 32.0744C44.5122 33.8604 44.416 35.711 44.5563 37.4931C44.6766 38.9929 45.0173 38.8276 47.6066 39.6461C48.5245 39.9364 51.142 40.5895 51.5989 41.0169C49.715 41.3475 44.7888 39.8315 43.5623 38.8397C42.5121 37.993 42.9129 35.5982 42.969 34.1185C43.0292 32.4695 42.9931 30.5665 43.2777 28.9941C42.8969 29.4255 42.937 29.2239 42.8728 30.7237L42.6764 37.1262C42.6604 40.2226 43.1294 40.0855 46.9413 41.4523C47.9874 41.8273 49.1218 42.2708 50.3323 42.3111C52.3885 42.3796 53.5109 40.779 55.3667 38.8196C56.7696 37.3399 60.8581 37.3641 62.273 38.8236L64.4134 40.9927C65.2432 41.7789 65.664 42.3635 67.3114 42.3071C68.6222 42.2627 69.6844 41.8232 70.8387 41.408C75.4603 39.7348 75.0394 40.4807 74.839 32.8001C74.819 32.0502 74.7829 31.3083 74.7388 30.5584C74.6426 28.8892 74.7067 29.0465 74.2258 28.861L74.2217 28.8691Z" fill="#626262"/>
<path fill-rule="evenodd" clip-rule="evenodd" d="M79.7412 37.9043C83.521 38.5051 84.7756 37.9688 84.976 33.7516C85.2406 28.224 82.8075 28.8207 79.7412 28.8812L79.7372 37.9084L79.7412 37.9043Z" fill="#626262"/>
<path fill-rule="evenodd" clip-rule="evenodd" d="M38.1711 38.0334L38.111 28.9619C34.1067 28.7804 32.8801 29.1231 32.8882 33.3686C32.9002 38.9446 35.0366 38.1019 38.1711 38.0334Z" fill="#626262"/>
<path fill-rule="evenodd" clip-rule="evenodd" d="M74.2257 28.865C73.1595 28.5546 73.0833 28.1877 71.6123 28.2119C71.7766 28.4256 71.7125 28.349 71.9089 28.5506C73.0312 29.6996 72.8949 29.1392 73.0352 32.0461C73.1194 33.7717 73.1956 35.6022 73.0753 37.3278C72.9751 38.8075 72.935 38.7792 70.1733 39.6138C69.1071 39.9364 67.0508 40.4323 66.0688 40.8919C67.2272 41.7507 73.3399 39.513 74.1656 38.751C75.1997 37.7914 74.6385 29.7682 74.2297 28.8691L74.2257 28.865Z" fill="#626262"/>
<path fill-rule="evenodd" clip-rule="evenodd" d="M52.6369 24.2245C45.1133 24.2245 46.2477 24.9381 42.54 25.1438C42.1111 25.1679 41.3014 25.3091 40.9848 25.3091C40.3154 25.305 38.1709 23.7165 37.9785 26.2888C37.7701 29.0869 38.4515 27.7644 38.6519 29.1191C38.704 29.4779 39.0407 36.5054 38.3353 37.4972C37.3332 38.9164 38.2551 40.8436 40.2913 40.013C42.2594 42.1579 42.3436 42.3071 45.3779 43.7545C47.4341 44.7343 49.5184 45.5285 51.6949 46.4074L52.5006 45.6172C52.1198 46.6776 51.6509 46.2865 54.625 47.617C55.603 48.0524 57.0781 48.7943 58.2365 48.7701C59.2225 48.7499 60.9501 48.0605 61.7919 47.746C62.4452 47.5041 64.0565 47.0001 64.285 46.4679L64.3932 46.0043C64.6899 46.9477 64.75 46.7542 65.7881 46.3268C66.4214 46.0647 66.9064 45.8712 67.5277 45.6293C70.2534 44.5609 75.0954 42.6538 76.2217 40.2509C77.2158 40.6057 77.6888 40.5009 78.4664 40.0896C78.747 39.0736 78.5866 38.493 78.6788 37.7996C78.787 36.9851 79.0396 37.4851 79.0356 36.461C79.0356 35.574 79.248 29.2159 78.8632 28.7038C78.4103 28.0991 79.256 28.9417 78.3782 28.3773C78.6989 28.0587 78.6748 29.0869 78.6748 26.8694C78.6748 25.0833 77.6487 24.793 76.6145 25.2244C75.6325 25.6356 76.8069 25.6074 75.4602 25.5308C73.3398 25.4058 72.2936 25.0631 70.4738 24.7365C67.9646 24.289 64.7901 24.5148 62.5214 24.3334C61.0463 24.2164 62.0324 24.285 61.391 23.8616C60.5613 23.3093 57.4749 23.5754 56.3606 23.5794C54.0278 23.5834 57.4749 24.2245 52.6209 24.2245H52.6369ZM54.613 42.5531C54.6611 42.5248 54.7292 42.42 54.7533 42.4603C54.8535 42.6297 55.7393 41.1258 56.9578 40.4968C57.0059 41.9644 56.9138 43.4199 57.026 44.8875C57.1382 46.3067 57.2224 47.5605 58.6333 47.5243C60.0242 46.2059 59.3388 42.7829 59.5312 40.5976C59.5632 40.5815 59.6234 40.5372 59.6394 40.5694L60.1885 40.3759C58.942 39.8074 58.3607 39.1502 56.8657 40.1501C55.8796 40.8073 55.2182 41.4806 54.609 42.5571L54.613 42.5531ZM43.9629 26.5388L55.1301 26.696L55.0699 25.301L43.9629 26.5428V26.5388ZM61.4632 26.6476L73.4921 26.5468L61.6115 25.305L61.4592 26.6476H61.4632ZM73.7446 28.3853L73.5482 28.2039C73.3678 28.0749 73.5081 28.1394 73.2115 27.9821C72.4539 27.579 71.6042 27.5225 70.7745 27.5104C69.3996 27.4903 68.0248 27.4741 66.6539 27.458C63.8441 27.4217 45.45 27.0145 43.5741 27.9136L42.8687 28.4377C43.9429 27.9942 44.1874 27.708 45.5582 27.7241C45.3739 27.962 45.462 27.8451 45.2416 28.0668C45.0612 28.2442 45.0091 28.2724 44.8408 28.4458C44.0231 29.2804 44.1593 30.1996 44.1072 31.5906C44.0351 33.3767 43.9389 35.2273 44.0792 37.0093C44.1994 38.5092 44.5401 38.3439 47.1295 39.1623C48.0474 39.4526 50.6648 40.1058 51.1218 40.5331C49.2379 40.8637 44.3117 39.3478 43.0851 38.356C42.0349 37.5093 42.4358 35.1144 42.4919 33.6347C42.552 31.9857 42.5159 30.0827 42.8005 28.5103C42.4197 28.9417 42.4598 28.7401 42.3957 30.2399L42.1993 36.6424C42.1792 39.7389 42.6522 39.6058 46.4601 40.9686C47.5063 41.3435 48.6406 41.787 49.8511 41.8273C51.9074 41.8959 53.0297 40.2952 54.8855 38.3358C56.2885 36.8561 60.3769 36.8803 61.7919 38.3398L63.9323 40.5089C64.762 41.2951 65.1829 41.8797 66.8303 41.8233C68.141 41.7789 69.2032 41.3395 70.3576 40.9242C74.9792 39.255 74.5583 40.0009 74.3579 32.3163C74.3378 31.5664 74.3018 30.8246 74.2577 30.0746C74.1615 28.4055 74.2256 28.5627 73.7446 28.3773V28.3853Z" fill="url(#paint0_linear)"/>
<path d="M43.0852 59.6278L9.88846 22.6239L8.08874 24.2568L0.621277 8.65375L15.2876 17.7253L13.4879 19.3582L46.6847 56.362L43.0852 59.6278Z" fill="#E6000A" stroke="#E6000A" stroke-width="0.200567" stroke-miterlimit="22.9256"/>
</g>
<defs>
<linearGradient id="paint0_linear" x1="57.9719" y1="52.3826" x2="55.5834" y2="14.4774" gradientUnits="userSpaceOnUse">
<stop stop-color="#231F20"/>
<stop offset="0.631373" stop-color="#908E8F"/>
<stop offset="1" stop-color="#FEFEFE"/>
</linearGradient>
<clipPath id="clip0">
<rect width="85" height="60" fill="white"/>
</clipPath>
</defs>
</svg>
