<svg width="18" height="20" viewBox="0 0 18 20" fill="none" xmlns="http://www.w3.org/2000/svg">
<path fill-rule="evenodd" clip-rule="evenodd" d="M1.06667 10.9334V18.9334H3.46667V10.9334H1.06667ZM0.8 9.8667C0.358172 9.8667 0 10.2249 0 10.6667V19.2C0 19.6419 0.358172 20 0.8 20H3.73333C4.17516 20 4.53333 19.6419 4.53333 19.2V10.6667C4.53333 10.2249 4.17516 9.8667 3.73333 9.8667H0.8Z" fill="#F2F2F2"/>
<path fill-rule="evenodd" clip-rule="evenodd" d="M7.46669 1.06667V18.9333H9.86669V1.06667H7.46669ZM7.20002 0C6.7582 0 6.40002 0.358173 6.40002 0.8V19.2C6.40002 19.6418 6.7582 20 7.20002 20H10.1334C10.5752 20 10.9334 19.6418 10.9334 19.2V0.8C10.9334 0.358172 10.5752 0 10.1334 0H7.20002Z" fill="#F2F2F2"/>
<path fill-rule="evenodd" clip-rule="evenodd" d="M13.6 5.33327V18.9333H16V5.33327H13.6ZM13.3333 4.2666C12.8915 4.2666 12.5333 4.62477 12.5333 5.0666V19.1999C12.5333 19.6418 12.8915 19.9999 13.3333 19.9999H16.2667C16.7085 19.9999 17.0667 19.6418 17.0667 19.1999V5.0666C17.0667 4.62477 16.7085 4.2666 16.2667 4.2666H13.3333Z" fill="#F2F2F2"/>
</svg>
