<svg width="17" height="17" viewBox="0 0 17 17" fill="none" xmlns="http://www.w3.org/2000/svg">
<g clip-path="url(#clip0)">
<path d="M12.292 0.650879H5.17619C2.86028 0.650879 0.976196 2.53496 0.976196 4.85088V11.9668C0.976196 14.2826 2.86028 16.1667 5.17619 16.1667H12.2922C14.608 16.1667 16.492 14.2826 16.492 11.9668V4.85088C16.492 2.53496 14.608 0.650879 12.292 0.650879V0.650879ZM8.73412 12.6513C6.39476 12.6513 4.49162 10.7482 4.49162 8.4088C4.49162 6.06944 6.39476 4.16631 8.73412 4.16631C11.0735 4.16631 12.9766 6.06944 12.9766 8.4088C12.9766 10.7482 11.0735 12.6513 8.73412 12.6513ZM13.0781 5.16682C12.3867 5.16682 11.8245 4.60454 11.8245 3.91322C11.8245 3.2219 12.3867 2.65949 13.0781 2.65949C13.7694 2.65949 14.3318 3.2219 14.3318 3.91322C14.3318 4.60454 13.7694 5.16682 13.0781 5.16682Z" fill="#828282"/>
<path d="M8.73414 5.07593C6.89646 5.07593 5.40125 6.57102 5.40125 8.40882C5.40125 10.2465 6.89646 11.7417 8.73414 11.7417C10.5719 11.7417 12.067 10.2465 12.067 8.40882C12.067 6.57102 10.5719 5.07593 8.73414 5.07593Z" fill="#828282"/>
<path d="M13.078 3.56909C12.8884 3.56909 12.734 3.72345 12.734 3.91309C12.734 4.10273 12.8884 4.2571 13.078 4.2571C13.2678 4.2571 13.4221 4.10285 13.4221 3.91309C13.4221 3.72334 13.2678 3.56909 13.078 3.56909Z" fill="#828282"/>
</g>
<defs>
<clipPath id="clip0">
<rect width="15.5159" height="15.5159" fill="white" transform="translate(0.976196 0.650879)"/>
</clipPath>
</defs>
</svg>
