<svg width="18" height="14" viewBox="0 0 18 14" fill="none" xmlns="http://www.w3.org/2000/svg">
<path d="M17.1021 13.5361H5.06562C4.56953 13.5361 4.16746 13.134 4.16746 12.6379C4.16746 12.1418 4.56953 11.7397 5.06562 11.7397H17.1018C17.5979 11.7397 18 12.1418 18 12.6379C18 13.134 17.5982 13.5361 17.1021 13.5361Z" fill="#323031"/>
<path d="M17.1021 7.89831H5.06562C4.56953 7.89831 4.16746 7.49623 4.16746 7.00015C4.16746 6.50407 4.56953 6.10199 5.06562 6.10199H17.1018C17.5979 6.10199 18 6.50407 18 7.00015C18.0003 7.49623 17.5982 7.89831 17.1021 7.89831Z" fill="#323031"/>
<path d="M17.1021 2.26058H5.06562C4.56953 2.26058 4.16746 1.85851 4.16746 1.36242C4.16746 0.86634 4.56953 0.464264 5.06562 0.464264H17.1018C17.5979 0.464264 18 0.86634 18 1.36242C18 1.85851 17.5982 2.26058 17.1021 2.26058Z" fill="#323031"/>
<path d="M1.20623 2.6381C1.87241 2.6381 2.41245 2.09806 2.41245 1.43187C2.41245 0.765693 1.87241 0.225647 1.20623 0.225647C0.540046 0.225647 0 0.765693 0 1.43187C0 2.09806 0.540046 2.6381 1.20623 2.6381Z" fill="#323031"/>
<path d="M1.20623 8.2064C1.87241 8.2064 2.41245 7.66635 2.41245 7.00017C2.41245 6.33399 1.87241 5.79395 1.20623 5.79395C0.540046 5.79395 0 6.33399 0 7.00017C0 7.66635 0.540046 8.2064 1.20623 8.2064Z" fill="#323031"/>
<path d="M1.20623 13.7747C1.87241 13.7747 2.41245 13.2346 2.41245 12.5684C2.41245 11.9023 1.87241 11.3622 1.20623 11.3622C0.540046 11.3622 0 11.9023 0 12.5684C0 13.2346 0.540046 13.7747 1.20623 13.7747Z" fill="#323031"/>
</svg>
