<svg width="14" height="13" viewBox="0 0 14 13" fill="none" xmlns="http://www.w3.org/2000/svg">
<g clip-path="url(#clip0_1104_6105)">
<path d="M0 3.77728C4.64395 3.77728 9.2649 3.77728 13.9012 3.77728C13.9012 3.85014 13.9012 3.91534 13.9012 3.98053C13.9012 6.49999 13.9012 9.0233 13.9012 11.5428C13.9012 12.2829 13.4065 12.8581 12.6702 12.9693C12.5628 12.9847 12.4516 12.9962 12.3404 12.9962C8.64366 12.9962 4.95074 12.9962 1.25398 12.9962C0.51003 13 0.0383481 12.5436 0.00383481 11.792C0 11.7345 0 11.677 0 11.6195C0 9.06165 0 6.49999 0 3.94218C0 3.89233 0 3.83864 0 3.77728ZM11.1286 6.28141C11.1286 6.10118 11.1324 5.9171 11.1286 5.73687C11.1248 5.51445 10.9906 5.38023 10.7681 5.38023C10.4192 5.3764 10.0702 5.3764 9.72124 5.38023C9.49882 5.38023 9.36077 5.51061 9.35693 5.73303C9.34926 6.08584 9.34926 6.44247 9.35693 6.79527C9.36077 7.01002 9.48348 7.14424 9.6944 7.14808C10.0664 7.15958 10.4422 7.15958 10.8142 7.14424C11.0289 7.13657 11.1286 7.01386 11.1324 6.79527C11.1324 6.62654 11.1286 6.45398 11.1286 6.28141ZM6.77227 11.0481C6.94867 11.0481 7.12507 11.0519 7.30147 11.0481C7.53923 11.0442 7.65811 10.9369 7.66578 10.6991C7.67345 10.3463 7.67345 9.98967 7.66578 9.63687C7.66195 9.41061 7.53156 9.28023 7.30531 9.27256C6.95251 9.26489 6.59587 9.26489 6.24307 9.27256C6.01681 9.27639 5.8941 9.41445 5.89027 9.6407C5.88643 9.98583 5.88643 10.331 5.89027 10.6723C5.89027 10.91 6.02448 11.0404 6.26608 11.0442C6.43864 11.0519 6.60354 11.0481 6.77227 11.0481ZM11.1286 10.1699C11.1286 10.0012 11.1286 9.83628 11.1286 9.66754C11.1286 9.65987 11.1286 9.64837 11.1286 9.6407C11.1209 9.42212 11.0021 9.28406 10.7835 9.28023C10.4192 9.27256 10.0549 9.27256 9.6944 9.28023C9.49499 9.28406 9.3646 9.40678 9.35693 9.60235C9.34543 9.97816 9.34543 10.3578 9.35693 10.7336C9.3646 10.9254 9.50649 11.0442 9.70206 11.0481C10.0664 11.0519 10.4307 11.0519 10.7912 11.0481C11.0021 11.0442 11.1171 10.9254 11.1248 10.7144C11.1324 10.5342 11.1286 10.3501 11.1286 10.1699ZM5.8941 6.2584C5.8941 6.43097 5.8941 6.60353 5.8941 6.7761C5.89793 7.01002 6.01681 7.14808 6.25074 7.15191C6.60737 7.15958 6.96785 7.15958 7.32832 7.15191C7.55074 7.14424 7.65811 7.0407 7.66578 6.82212C7.67729 6.45398 7.67729 6.08584 7.66578 5.71769C7.66195 5.50678 7.52389 5.38407 7.31298 5.38023C6.96018 5.3764 6.60354 5.3764 6.25074 5.38023C6.02832 5.38407 5.89793 5.51445 5.8941 5.7407C5.89027 5.91327 5.8941 6.08584 5.8941 6.2584ZM2.46962 10.1584C2.46962 10.331 2.46578 10.5035 2.46962 10.6761C2.47345 10.91 2.60383 11.0442 2.83392 11.0481C3.16755 11.0519 3.50501 11.0519 3.83864 11.0481C4.0764 11.0442 4.23746 10.9062 4.2413 10.6723C4.2528 10.3195 4.24897 9.96282 4.2413 9.61002C4.23363 9.40678 4.10324 9.28023 3.9 9.27639C3.53569 9.26872 3.17139 9.26872 2.81091 9.27639C2.59617 9.28023 2.47729 9.42212 2.47345 9.64454C2.46962 9.8171 2.46962 9.98583 2.46962 10.1584ZM3.35929 5.3764C3.19056 5.3764 3.02566 5.3764 2.85693 5.3764C2.84926 5.3764 2.83776 5.3764 2.83009 5.3764C2.60767 5.38407 2.47345 5.51445 2.47345 5.73687C2.46962 6.08584 2.46962 6.4348 2.47345 6.78377C2.47345 6.99468 2.59233 7.13657 2.80324 7.14424C3.15988 7.15575 3.52035 7.15575 3.88083 7.14424C4.09557 7.13657 4.2413 6.99468 4.24513 6.7761C4.25664 6.41563 4.2528 6.05899 4.2413 5.69852C4.23363 5.49528 4.09558 5.38023 3.89233 5.3764C3.71593 5.3764 3.53569 5.3764 3.35929 5.3764Z" fill="#B5B5B5"/>
<path d="M13.8591 2.85693C9.23818 2.85693 4.6249 2.85693 0.0231295 2.85693C0.0231295 2.2472 -0.00371422 1.64897 0.0307991 1.05457C0.0576427 0.556048 0.464133 -0.0230072 1.23109 0.00383641C1.57623 0.0153408 1.92136 0.00767121 2.26649 0.00767121C2.31251 0.00767121 2.35853 0.00767121 2.42372 0.00767121C2.42372 0.122715 2.42372 0.22242 2.42372 0.322125C2.42372 0.625075 2.42372 0.924189 2.42372 1.22714C2.42372 1.54159 2.59245 1.741 2.86089 1.73717C3.12549 1.73717 3.29039 1.54159 3.29039 1.23481C3.29039 0.885841 3.29039 0.536874 3.29039 0.184072C3.29039 0.130385 3.29039 0.0805325 3.29039 0.0153408C5.59894 0.0153408 7.89983 0.0153408 10.2122 0.0153408C10.2161 0.0651933 10.2199 0.118881 10.2199 0.168733C10.2199 0.540709 10.2161 0.916519 10.2237 1.2885C10.2276 1.50324 10.3503 1.66431 10.5382 1.71799C10.7107 1.76785 10.914 1.70649 11.006 1.54543C11.0597 1.45339 11.0827 1.33835 11.0866 1.23481C11.0981 0.882006 11.0904 0.52537 11.0904 0.172568C11.0904 0.122715 11.0904 0.0690281 11.0904 0.00383641C11.5199 0.00383641 11.9302 -0.007668 12.3405 0.00767121C12.5438 0.0153408 12.7547 0.049854 12.9426 0.122715C13.4143 0.310621 13.7479 0.632744 13.8515 1.15044C13.8553 1.17345 13.8591 1.19646 13.8591 1.2233C13.8591 1.76401 13.8591 2.30472 13.8591 2.85693Z" fill="#B5B5B5"/>
</g>
<defs>
<clipPath id="clip0_1104_6105">
<rect width="13.9012" height="13" fill="white"/>
</clipPath>
</defs>
</svg>
