<svg width="16" height="16" viewBox="0 0 16 16" fill="none" xmlns="http://www.w3.org/2000/svg">
<g clip-path="url(#clip0_1127_5856)">
<path d="M12.125 0C12.543 0 12.957 0 13.375 0C13.375 0.414062 13.375 0.828125 13.375 1.25C13.6563 1.25 13.9141 1.24219 14.1719 1.25C14.7695 1.27344 15.25 1.52344 15.6172 1.99219C15.8281 2.26172 15.9258 2.57422 15.9961 2.90234C15.9961 6.71484 15.9961 10.5273 15.9961 14.3398C15.9883 14.3633 15.9766 14.3867 15.9688 14.4141C15.7813 15.3828 15.0469 15.9961 14.0703 15.9961C10.0195 15.9961 5.96875 15.9961 1.91797 15.9961C0.8125 15.9961 -0.00390625 15.1758 -0.00390625 14.0703C-0.00390625 10.4414 -0.00390625 6.8125 -0.00390625 3.18359C-0.00390625 3.02344 0.0117188 2.85938 0.046875 2.70312C0.261719 1.82031 1 1.25391 1.93359 1.25C2.16016 1.25 2.38672 1.25 2.625 1.25C2.625 0.820312 2.625 0.410156 2.625 0C3.04297 0 3.45703 0 3.875 0C3.875 0.414062 3.875 0.828125 3.875 1.23828C6.63672 1.23828 9.375 1.23828 12.125 1.23828C12.125 0.820313 12.125 0.410156 12.125 0ZM14.75 5.88672C10.2383 5.88672 5.75 5.88672 1.25 5.88672C1.25 5.95312 1.25 6.01172 1.25 6.06641C1.25 8.71094 1.25 11.3555 1.25 14.0039C1.25 14.5117 1.48438 14.75 1.99219 14.75C5.9961 14.75 10 14.75 14.0078 14.75C14.5156 14.75 14.75 14.5117 14.75 14.0039C14.75 11.3594 14.75 8.71484 14.75 6.06641C14.75 6.01172 14.75 5.95312 14.75 5.88672ZM1.25391 4.61328C5.76172 4.61328 10.2539 4.61328 14.75 4.61328C14.75 4.09766 14.7578 3.59375 14.7461 3.08984C14.7383 2.79297 14.5156 2.54297 14.2266 2.51562C13.9492 2.49219 13.668 2.51172 13.3711 2.51172C13.3711 2.92969 13.3711 3.33594 13.3711 3.74609C12.9492 3.74609 12.5469 3.74609 12.125 3.74609C12.125 3.33203 12.125 2.92188 12.125 2.51562C9.36719 2.51562 6.625 2.51562 3.875 2.51562C3.875 2.92969 3.875 3.33594 3.875 3.74609C3.45703 3.74609 3.04688 3.74609 2.62109 3.74609C2.62109 3.32812 2.62109 2.92188 2.62109 2.50781C2.34766 2.50781 2.09375 2.5 1.83984 2.51172C1.51953 2.52734 1.26563 2.77734 1.25781 3.09766C1.24219 3.59375 1.25391 4.09766 1.25391 4.61328Z" fill="#828282"/>
<path d="M2.38281 8.42578C2.38281 8.01172 2.38281 7.60547 2.38281 7.19531C2.79297 7.19531 3.19531 7.19531 3.61328 7.19531C3.61328 7.60156 3.61328 8.00781 3.61328 8.42578C3.21094 8.42578 2.80078 8.42578 2.38281 8.42578Z" fill="#828282"/>
<path d="M6.11328 8.42969C5.69922 8.42969 5.29688 8.42969 4.88281 8.42969C4.88281 8.01563 4.88281 7.60937 4.88281 7.19531C5.29297 7.19531 5.69531 7.19531 6.11328 7.19531C6.11328 7.60156 6.11328 8.00781 6.11328 8.42969Z" fill="#828282"/>
<path d="M8.61719 7.19531C8.61719 7.60938 8.61719 8.01172 8.61719 8.42578C8.20703 8.42578 7.80078 8.42578 7.38281 8.42578C7.38281 8.01562 7.38281 7.60938 7.38281 7.19531C7.79297 7.19531 8.19922 7.19531 8.61719 7.19531Z" fill="#828282"/>
<path d="M11.1211 7.19922C11.1211 7.60938 11.1211 8.01172 11.1211 8.42578C10.707 8.42578 10.3008 8.42578 9.88672 8.42578C9.88672 8.01953 9.88672 7.61328 9.88672 7.19922C10.2891 7.19922 10.6953 7.19922 11.1211 7.19922Z" fill="#828282"/>
<path d="M13.6133 8.42969C13.1992 8.42969 12.793 8.42969 12.3828 8.42969C12.3828 8.01953 12.3828 7.61719 12.3828 7.19922C12.7891 7.19922 13.1953 7.19922 13.6133 7.19922C13.6133 7.60156 13.6133 8.01172 13.6133 8.42969Z" fill="#828282"/>
<path d="M2.38281 10.9258C2.38281 10.5117 2.38281 10.1055 2.38281 9.69531C2.79297 9.69531 3.19531 9.69531 3.61328 9.69531C3.61328 10.1016 3.61328 10.5078 3.61328 10.9258C3.21094 10.9258 2.80078 10.9258 2.38281 10.9258Z" fill="#828282"/>
<path d="M6.11719 9.69531C6.11719 10.1055 6.11719 10.5117 6.11719 10.9258C5.71094 10.9258 5.30078 10.9258 4.88281 10.9258C4.88281 10.5195 4.88281 10.1133 4.88281 9.69531C5.29297 9.69531 5.69531 9.69531 6.11719 9.69531Z" fill="#828282"/>
<path d="M7.38281 10.9258C7.38281 10.5117 7.38281 10.1094 7.38281 9.69531C7.79297 9.69531 8.19531 9.69531 8.61328 9.69531C8.61328 10.0977 8.61328 10.5078 8.61328 10.9258C8.21094 10.9258 7.80469 10.9258 7.38281 10.9258Z" fill="#828282"/>
<path d="M9.88281 9.69531C10.2969 9.69531 10.6992 9.69531 11.1133 9.69531C11.1133 10.1055 11.1133 10.5156 11.1133 10.9297C10.7031 10.9297 10.2969 10.9297 9.88281 10.9297C9.88281 10.5195 9.88281 10.1133 9.88281 9.69531Z" fill="#828282"/>
<path d="M12.3828 10.9258C12.3828 10.5156 12.3828 10.1094 12.3828 9.69922C12.7969 9.69922 13.2031 9.69922 13.6172 9.69922C13.6172 10.1094 13.6172 10.5117 13.6172 10.9258C13.2109 10.9258 12.8047 10.9258 12.3828 10.9258Z" fill="#828282"/>
<path d="M2.38672 12.1953C2.80078 12.1953 3.20703 12.1953 3.61719 12.1953C3.61719 12.6055 3.61719 13.0078 3.61719 13.4258C3.21094 13.4258 2.80469 13.4258 2.38672 13.4258C2.38672 13.0234 2.38672 12.6133 2.38672 12.1953Z" fill="#828282"/>
<path d="M4.88281 13.4258C4.88281 13.0117 4.88281 12.6055 4.88281 12.1953C5.29297 12.1953 5.69531 12.1953 6.11328 12.1953C6.11328 12.6016 6.11328 13.0078 6.11328 13.4258C5.71094 13.4258 5.30078 13.4258 4.88281 13.4258Z" fill="#828282"/>
<path d="M7.38281 12.1953C7.79297 12.1953 8.19531 12.1953 8.61328 12.1953C8.61328 12.6016 8.61328 13.0078 8.61328 13.4258C8.20703 13.4258 7.80078 13.4258 7.38281 13.4258C7.38281 13.0195 7.38281 12.6094 7.38281 12.1953Z" fill="#828282"/>
<path d="M9.88672 12.1953C10.3008 12.1953 10.707 12.1953 11.1172 12.1953C11.1172 12.6055 11.1172 13.0117 11.1172 13.4258C10.7109 13.4258 10.3047 13.4258 9.88672 13.4258C9.88672 13.0234 9.88672 12.6133 9.88672 12.1953Z" fill="#828282"/>
</g>
<defs>
<clipPath id="clip0_1127_5856">
<rect width="16" height="16" fill="white"/>
</clipPath>
</defs>
</svg>
