<svg width="22" height="11" viewBox="0 0 22 11" fill="none" xmlns="http://www.w3.org/2000/svg">
<path d="M21.7479 4.7198C21.7477 4.71954 21.7475 4.71924 21.7472 4.71899L17.2568 0.250247C16.9204 -0.0845221 16.3762 -0.0832763 16.0414 0.253168C15.7066 0.58957 15.7079 1.13368 16.0443 1.46849L19.0591 4.46874L0.859375 4.46874C0.384742 4.46874 0 4.85348 0 5.32811C0 5.80274 0.384742 6.18748 0.859375 6.18748L19.0591 6.18748L16.0443 9.18772C15.7079 9.52254 15.7066 10.0666 16.0414 10.403C16.3763 10.7395 16.9204 10.7407 17.2568 10.406L21.7472 5.93723C21.7475 5.93697 21.7477 5.93667 21.748 5.93642C22.0846 5.60049 22.0835 5.05461 21.7479 4.7198Z" fill="#E6000A"/>
</svg>
