<svg width="18" height="14" viewBox="0 0 18 14" fill="none" xmlns="http://www.w3.org/2000/svg">
<path d="M17.1021 13.5361H5.06562C4.56953 13.5361 4.16746 13.134 4.16746 12.6379C4.16746 12.1418 4.56953 11.7397 5.06562 11.7397H17.1018C17.5979 11.7397 18 12.1418 18 12.6379C18 13.134 17.5982 13.5361 17.1021 13.5361Z" fill="#F2F2F2"/>
<path d="M17.1021 7.89837H5.06562C4.56953 7.89837 4.16746 7.49629 4.16746 7.00021C4.16746 6.50413 4.56953 6.10205 5.06562 6.10205H17.1018C17.5979 6.10205 18 6.50413 18 7.00021C18.0003 7.49629 17.5982 7.89837 17.1021 7.89837Z" fill="#F2F2F2"/>
<path d="M17.1021 2.26067H5.06562C4.56953 2.26067 4.16746 1.8586 4.16746 1.36251C4.16746 0.866431 4.56953 0.464355 5.06562 0.464355H17.1018C17.5979 0.464355 18 0.866431 18 1.36251C18 1.8586 17.5982 2.26067 17.1021 2.26067Z" fill="#F2F2F2"/>
<path d="M1.20623 2.63804C1.87241 2.63804 2.41245 2.09799 2.41245 1.43181C2.41245 0.765632 1.87241 0.225586 1.20623 0.225586C0.540046 0.225586 0 0.765632 0 1.43181C0 2.09799 0.540046 2.63804 1.20623 2.63804Z" fill="#F2F2F2"/>
<path d="M1.20623 8.2064C1.87241 8.2064 2.41245 7.66635 2.41245 7.00017C2.41245 6.33399 1.87241 5.79395 1.20623 5.79395C0.540046 5.79395 0 6.33399 0 7.00017C0 7.66635 0.540046 8.2064 1.20623 8.2064Z" fill="#F2F2F2"/>
<path d="M1.20623 13.7748C1.87241 13.7748 2.41245 13.2347 2.41245 12.5685C2.41245 11.9024 1.87241 11.3623 1.20623 11.3623C0.540046 11.3623 0 11.9024 0 12.5685C0 13.2347 0.540046 13.7748 1.20623 13.7748Z" fill="#F2F2F2"/>
</svg>
