<svg width="22" height="11" viewBox="0 0 22 11" fill="none" xmlns="http://www.w3.org/2000/svg"><path d="M0.252064 6.2802C0.252322 6.28045 0.252537 6.28076 0.252839 6.28101L4.74324 10.7498C5.07964 11.0845 5.62376 11.0833 5.95861 10.7468C6.29342 10.4104 6.29214 9.86632 5.95573 9.53151L2.94087 6.53126L21.1406 6.53126C21.6153 6.53126 22 6.14652 22 5.67189C22 5.19726 21.6153 4.81252 21.1406 4.81252L2.94092 4.81252L5.95569 1.81227C6.29209 1.47746 6.29338 0.933351 5.95857 0.59695C5.62372 0.260462 5.07956 0.259303 4.7432 0.594028L0.252795 5.06277C0.252537 5.06302 0.252322 5.06332 0.25202 5.06358C-0.0845523 5.39951 -0.0834785 5.94538 0.252064 6.2802Z" fill="#323031"/></svg>
