<svg width="22" height="13" viewBox="0 0 22 13" fill="none" xmlns="http://www.w3.org/2000/svg">
<path d="M17.5381 7.30773C17.1987 6.87915 17.2958 6.68847 17.5381 6.30536C17.5424 6.30099 20.344 2.4297 20.6326 1.11682L20.6344 1.11595C20.7778 0.637506 20.6344 0.285889 19.9408 0.285889H17.6456C17.0614 0.285889 16.792 0.58765 16.6476 0.925272C16.6476 0.925272 15.4791 3.72246 13.826 5.53565C13.2924 6.05958 13.0458 6.22752 12.7545 6.22752C12.611 6.22752 12.388 6.05958 12.388 5.58114V1.11595C12.388 0.542167 12.2244 0.285889 11.7408 0.285889H8.13187C7.76538 0.285889 7.54759 0.553538 7.54759 0.802818C7.54759 1.34686 8.37415 1.47194 8.45987 3.00261V6.32373C8.45987 7.05146 8.32779 7.18528 8.03478 7.18528C7.25457 7.18528 5.36091 4.37672 4.23871 1.16231C4.01217 0.538668 3.79088 0.286763 3.20223 0.286763H0.906221C0.251094 0.286763 0.119019 0.588524 0.119019 0.926147C0.119019 1.52267 0.899223 4.48868 3.74715 8.40719C5.64518 11.0819 8.31817 12.5313 10.7498 12.5313C12.2113 12.5313 12.3898 12.2094 12.3898 11.6557C12.3898 9.09993 12.2577 8.85852 12.9898 8.85852C13.3292 8.85852 13.9134 9.02646 15.2779 10.3166C16.8375 11.8464 17.0937 12.5313 17.9666 12.5313H20.2618C20.916 12.5313 21.2475 12.2094 21.0569 11.5744C20.6204 10.2388 17.671 7.49142 17.5381 7.30773Z" fill="#828282"/>
</svg>
