<svg width="19" height="20" viewBox="0 0 19 20" fill="none" xmlns="http://www.w3.org/2000/svg">
<path d="M4.32743 9.53561C4.32335 9.5397 4.32335 9.5397 4.31926 9.54378C4.30702 9.56011 4.29477 9.57236 4.2866 9.58869C4.28252 9.59277 4.28252 9.59685 4.27844 9.60093C4.27027 9.61726 4.25803 9.63359 4.24986 9.64992C4.24986 9.65401 4.24578 9.65809 4.24578 9.65809C4.23761 9.67442 4.22945 9.69075 4.22128 9.71116C4.22128 9.71524 4.22128 9.71524 4.2172 9.71932C4.20904 9.73565 4.20495 9.75607 4.19679 9.77648C4.19679 9.78056 4.19679 9.78464 4.19271 9.78464C4.18862 9.80506 4.18046 9.82139 4.18046 9.8418C4.18046 9.84996 4.18046 9.85405 4.17638 9.86221C4.17229 9.87854 4.17229 9.89487 4.16821 9.9112C4.16413 9.9357 4.16413 9.95611 4.16413 9.9806C4.16413 10.0051 4.16413 10.0255 4.16821 10.05C4.16821 10.0663 4.17229 10.0827 4.17638 10.099C4.17638 10.1072 4.17638 10.1112 4.18046 10.1194C4.18454 10.1398 4.18862 10.1561 4.19271 10.1766C4.19271 10.1806 4.19271 10.1847 4.19679 10.1847C4.20087 10.2051 4.20904 10.2215 4.2172 10.2419C4.2172 10.246 4.2172 10.246 4.22128 10.25C4.22945 10.2664 4.23761 10.2868 4.24578 10.3031C4.24578 10.3072 4.24986 10.3113 4.24986 10.3113C4.25803 10.3276 4.26619 10.3439 4.27844 10.3603C4.28252 10.3644 4.28252 10.3684 4.2866 10.3725C4.29885 10.3888 4.30702 10.4052 4.31926 10.4174C4.32335 10.4215 4.32335 10.4215 4.32743 10.4256C4.34376 10.4419 4.35601 10.4623 4.37642 10.4787L8.41398 14.5121C8.6875 14.7857 9.13249 14.7857 9.40602 14.5121C9.67954 14.2386 9.67954 13.7936 9.40602 13.5201L6.56462 10.6787L17.8608 10.6787C18.2486 10.6787 18.563 10.3644 18.563 9.9806C18.563 9.59277 18.2486 9.27842 17.8608 9.27842L6.56054 9.27842L9.38152 6.45743C9.65505 6.18391 9.65505 5.73892 9.38152 5.4654C9.2468 5.33067 9.06717 5.26127 8.88754 5.26127C8.70791 5.26127 8.52829 5.33067 8.39356 5.4654L4.3805 9.47846C4.36009 9.50295 4.34376 9.51928 4.32743 9.53561Z" fill="#F2F2F2"/>
<path d="M3.80077 1.40029H9.02633C9.41416 1.40029 9.72851 1.08594 9.72851 0.702184C9.72851 0.31435 9.41416 0 9.02633 0H3.80077C1.70647 0 0 1.70647 0 3.80078V16.1992C0 18.2935 1.70647 20 3.80077 20H8.94059C9.32843 20 9.64278 19.6856 9.64278 19.3019C9.64278 18.9141 9.32843 18.5997 8.94059 18.5997H3.80077C2.47806 18.5997 1.40029 17.5219 1.40029 16.1992V3.80078C1.40437 2.47397 2.47806 1.40029 3.80077 1.40029Z" fill="#F2F2F2"/>
</svg>
