<svg width="18" height="18" viewBox="0 0 18 18" fill="none" xmlns="http://www.w3.org/2000/svg">
<path d="M17.9534 6.65259C17.8363 6.28057 17.5166 6.01718 17.14 5.98199L12.0027 5.50049L9.97242 0.593223C9.82253 0.232692 9.48145 0 9.10182 0C8.72218 0 8.38097 0.232692 8.23203 0.593223L6.20174 5.50049L1.06364 5.98199C0.686993 6.01788 0.368051 6.28127 0.250196 6.65259C0.13302 7.02462 0.241234 7.43267 0.526096 7.6906L4.40948 11.2061L3.26446 16.4125C3.18069 16.7953 3.32461 17.1911 3.63228 17.4207C3.79766 17.5448 3.99196 17.6068 4.18694 17.6068C4.35449 17.6068 4.52217 17.5608 4.67193 17.4683L9.10182 14.7337L13.5309 17.4683C13.8558 17.6687 14.2644 17.6504 14.5714 17.4207C14.879 17.1911 15.0229 16.7953 14.9392 16.4125L13.7942 11.2061L17.6775 7.6906C17.9623 7.43267 18.0706 7.02546 17.9534 6.65259Z" fill="#D9D9D9"/>
</svg>
